<?xml version="1.0" encoding="UTF-8"?>
<!DOCTYPE svg PUBLIC "-//W3C//DTD SVG 1.1//EN" "http://www.w3.org/Graphics/SVG/1.1/DTD/svg11.dtd">
<svg version="1.1" xmlns="http://www.w3.org/2000/svg" xmlns:xlink="http://www.w3.org/1999/xlink" x="0" y="0" width="30.72" height="30.72" viewBox="0, 0, 512, 512">
  <g id="Layer_1">
    <path d="M469.779,94.063 L352.573,94.063 L343.467,57.637 C338.758,38.805 321.913,25.654 302.505,25.654 L209.494,25.654 C190.086,25.654 173.241,38.806 168.531,57.638 L159.426,94.063 L42.221,94.063 C18.941,94.063 0,113.003 0,136.284 L0,444.125 C0,467.406 18.941,486.346 42.221,486.346 L469.778,486.346 C493.059,486.346 511.999,467.405 511.999,444.125 L511.999,136.284 C512,113.003 493.059,94.063 469.779,94.063 z M184.086,61.528 C187.008,49.846 197.457,41.687 209.495,41.687 L302.506,41.687 C314.544,41.687 324.992,49.846 327.915,61.527 L336.048,94.063 L317.316,94.063 L310.283,65.931 C309.392,62.362 306.185,59.859 302.506,59.859 L209.495,59.859 C205.817,59.859 202.61,62.362 201.718,65.931 L194.687,94.063 L175.955,94.063 L184.086,61.528 z M300.789,94.063 L211.211,94.063 L215.754,75.892 L296.246,75.892 L300.789,94.063 z M42.221,110.096 L469.778,110.096 C477.783,110.096 484.955,113.71 489.763,119.387 L437.713,275.536 C432.977,289.744 419.733,299.29 404.756,299.29 L289.67,299.29 L289.67,281.653 C289.67,272.517 282.238,265.085 273.102,265.085 L238.897,265.085 C229.761,265.085 222.329,272.517 222.329,281.653 L222.329,299.29 L107.243,299.29 C92.267,299.29 79.022,289.744 74.286,275.537 L22.236,119.387 C27.044,113.71 34.216,110.096 42.221,110.096 z M238.363,316.393 L238.363,281.654 C238.363,281.359 238.602,281.12 238.897,281.12 L273.102,281.12 C273.397,281.12 273.636,281.359 273.636,281.654 L273.636,316.393 L238.363,316.393 z M273.637,332.426 L273.637,350.063 C273.637,350.358 273.398,350.597 273.103,350.597 L238.898,350.597 C238.603,350.597 238.364,350.358 238.364,350.063 L238.364,332.426 L273.637,332.426 z M495.967,444.125 C495.967,458.565 484.219,470.313 469.779,470.313 L42.221,470.313 C27.781,470.313 16.033,458.565 16.033,444.125 L16.033,151.481 L59.075,280.607 C65.997,301.372 85.354,315.324 107.243,315.324 L222.33,315.324 L222.33,350.063 C222.33,359.199 229.762,366.631 238.898,366.631 L273.103,366.631 C282.239,366.631 289.671,359.199 289.671,350.063 L289.671,315.324 L404.758,315.324 C426.647,315.324 446.003,301.373 452.926,280.607 L495.968,151.481 L495.968,444.125 z" fill="#FFFFFF"/>
  </g>
</svg>
