<?xml version="1.0" encoding="UTF-8"?>
<!DOCTYPE svg PUBLIC "-//W3C//DTD SVG 1.1//EN" "http://www.w3.org/Graphics/SVG/1.1/DTD/svg11.dtd">
<svg version="1.1" xmlns="http://www.w3.org/2000/svg" xmlns:xlink="http://www.w3.org/1999/xlink" x="0" y="0" width="34.14" height="34.14" viewBox="0, 0, 569, 569">
  <g id="Layer_1">
    <path d="M1.527,52.196 L39.512,118.6 C40.793,120.844 42.938,122.468 45.445,123.096 L80.883,131.947 L202.426,253.373 L215.855,239.96 L92.41,116.637 C91.195,115.42 89.672,114.557 88.004,114.14 L53.953,105.605 L21.613,49.035 L49.34,21.335 L105.988,53.675 L114.535,87.693 C114.949,89.363 115.816,90.889 117.031,92.103 L240.477,215.429 L253.902,202.012 L132.359,80.586 L123.5,45.202 C122.871,42.693 121.246,40.547 119,39.263 L52.527,1.319 C48.82,-0.788 44.156,-0.164 41.133,2.845 L3.152,40.793 C0.098,43.794 -0.566,48.461 1.527,52.196 z M1.527,52.196" fill="#000000"/>
    <path d="M396.312,186.964 L187.41,395.669 L173.98,382.252 L382.887,173.551 z M396.312,186.964" fill="#000000"/>
    <path d="M150.848,403.052 C149.129,400.196 146.043,398.451 142.707,398.451 L85.734,398.451 C82.402,398.451 79.312,400.196 77.598,403.052 L49.109,450.483 C47.301,453.488 47.301,457.246 49.109,460.255 L77.598,507.686 C79.312,510.539 82.402,512.287 85.734,512.287 L142.707,512.287 C146.043,512.287 149.129,510.539 150.848,507.686 L179.332,460.255 C181.141,457.246 181.141,453.488 179.332,450.483 z M137.336,493.313 L91.109,493.313 L68.32,455.369 L91.109,417.421 L137.336,417.421 L160.125,455.369 z M137.336,493.313" fill="#000000"/>
    <path d="M456.062,227.694 C518.777,227.905 569.793,177.282 570.004,114.628 C570.035,105.09 568.863,95.591 566.516,86.346 C565.25,81.261 560.098,78.167 555.008,79.431 C553.336,79.849 551.812,80.711 550.594,81.925 L491.484,140.938 L444.586,125.324 L428.945,78.483 L488.055,19.419 C491.762,15.711 491.758,9.705 488.047,6.002 C486.824,4.781 485.285,3.914 483.602,3.501 C422.781,-11.887 360.996,24.894 345.594,85.652 C343.254,94.869 342.086,104.345 342.117,113.855 C342.141,121.324 342.91,128.77 344.426,136.084 L136.469,343.836 C129.148,342.326 121.695,341.557 114.223,341.53 C51.289,341.53 0.273,392.496 0.273,455.369 C0.273,518.238 51.289,569.205 114.223,569.205 C177.152,569.205 228.168,518.238 228.168,455.369 C228.145,447.9 227.371,440.454 225.859,433.141 L275.645,383.404 L297.418,405.156 C301.129,408.859 307.137,408.859 310.848,405.156 L315.594,400.411 C319.758,396.278 326.488,396.278 330.652,400.411 C334.812,404.555 334.82,411.283 330.672,415.439 C330.668,415.443 330.66,415.451 330.652,415.458 L325.906,420.2 C322.199,423.903 322.199,429.909 325.906,433.613 L439.18,546.777 C468.973,576.815 517.496,577.033 547.562,547.269 C577.625,517.505 577.844,469.024 548.051,438.99 C547.891,438.827 547.727,438.663 547.562,438.499 L434.289,325.338 C430.582,321.635 424.57,321.635 420.863,325.338 L416.117,330.08 C411.949,334.217 405.223,334.217 401.055,330.08 C396.898,325.936 396.887,319.208 401.035,315.055 C401.043,315.048 401.051,315.044 401.055,315.036 L405.805,310.29 C409.512,306.587 409.512,300.581 405.805,296.878 L384.031,275.125 L433.816,225.388 C441.137,226.898 448.59,227.671 456.062,227.694 z M493.371,550.235 C486.473,550.223 479.633,548.978 473.176,546.555 L547.336,472.462 C558.527,502.203 543.469,535.374 513.699,546.555 C507.203,548.994 500.316,550.242 493.371,550.235 z M385.797,303.68 C375.281,316.211 376.93,334.888 389.473,345.389 C400.496,354.619 416.562,354.611 427.574,345.362 L534.137,451.916 C535.293,453.075 536.375,454.296 537.422,455.537 L456.234,536.646 C454.988,535.604 453.766,534.523 452.605,533.364 L345.961,426.815 C356.477,414.284 354.828,395.607 342.285,385.105 C331.262,375.872 315.191,375.883 304.18,385.128 L288.988,369.952 L370.602,288.538 z M424.141,208.268 L208.73,423.427 C206.367,425.784 205.418,429.207 206.223,432.442 C219.25,483.553 188.336,535.538 137.172,548.549 C86.012,561.564 33.977,530.679 20.949,479.565 C7.926,428.454 38.84,376.469 90.004,363.454 C105.48,359.52 121.695,359.52 137.172,363.454 C140.41,364.246 143.828,363.298 146.195,360.953 L361.555,145.789 C363.914,143.432 364.863,140.009 364.051,136.778 C351.113,86.264 381.613,34.837 432.176,21.909 C441.73,19.47 451.613,18.533 461.457,19.146 L411.367,69.207 C408.824,71.743 407.934,75.501 409.07,78.908 L428.059,135.83 C429.008,138.659 431.234,140.884 434.07,141.824 L491.047,160.798 C494.453,161.934 498.215,161.048 500.758,158.511 L550.848,108.47 C550.961,110.28 551.02,112.072 551.02,113.855 C551.285,165.98 509.207,208.451 457.031,208.72 C448.965,208.76 440.926,207.768 433.113,205.77 C429.875,204.962 426.449,205.907 424.09,208.264 L424.141,208.264 z M424.141,208.268" fill="#000000"/>
    <path d="M491.273,477.118 L477.844,490.534 L382.891,395.673 L396.316,382.256 z M491.273,477.118" fill="#000000"/>
  </g>
</svg>
