<?xml version="1.0" encoding="UTF-8"?>
<!DOCTYPE svg PUBLIC "-//W3C//DTD SVG 1.1//EN" "http://www.w3.org/Graphics/SVG/1.1/DTD/svg11.dtd">
<svg version="1.1" xmlns="http://www.w3.org/2000/svg" xmlns:xlink="http://www.w3.org/1999/xlink" x="0" y="0" width="33.2" height="33.3" viewBox="0, 0, 332, 333">
  <defs>
    <clipPath id="Clip_1">
      <path d="M0.06,0 L332,0 L332,333 L0.06,333 z"/>
    </clipPath>
  </defs>
  <g id="Layer_1">
    <g clip-path="url(#Clip_1)">
      <path d="M274.242,103.771 L329.539,48.478 C332.051,45.99 332.07,41.939 329.582,39.427 C328.434,38.263 326.883,37.587 325.25,37.533 L325.441,37.916 L295.363,36.892 L294.34,6.814 C294.219,3.279 291.262,0.513 287.727,0.63 C286.094,0.689 284.543,1.365 283.395,2.525 L228.164,57.501 C226.918,58.755 226.246,60.47 226.309,62.236 L226.309,68.638 C160.641,23.4 70.734,39.962 25.496,105.63 C-19.742,171.294 -3.18,261.201 62.488,306.439 C128.156,351.677 218.062,335.115 263.301,269.447 C297.277,220.126 297.277,154.951 263.301,105.63 L269.699,105.63 C271.398,105.638 273.035,104.97 274.242,103.771 z M276.164,187.611 C276.258,260.357 217.367,319.404 144.625,319.498 C71.883,319.595 12.836,260.701 12.738,187.959 C12.645,115.216 71.535,56.169 144.277,56.076 C174.398,56.033 203.621,66.318 227.074,85.212 L227.395,95.9 L201.797,121.501 C165.379,89.584 109.98,93.232 78.066,129.65 C46.148,166.064 49.797,221.462 86.211,253.376 C122.629,285.294 178.023,281.65 209.941,245.232 C238.621,212.509 238.965,163.712 210.754,130.587 L236.355,104.99 L246.914,105.373 C265.738,128.662 276.055,157.669 276.164,187.611 z M140.355,191.9 C142.852,194.384 146.883,194.384 149.379,191.9 L162.18,179.099 C163.426,181.673 164.082,184.498 164.098,187.357 C164.098,197.962 155.504,206.556 144.898,206.556 C134.297,206.556 125.699,197.962 125.699,187.357 C125.699,176.751 134.297,168.158 144.898,168.158 C147.762,168.173 150.582,168.83 153.156,170.076 L140.355,182.876 C137.875,185.373 137.875,189.404 140.355,191.9 z M162.5,160.669 C147.762,150.916 127.906,154.955 118.152,169.693 C108.398,184.431 112.441,204.287 127.176,214.037 C141.914,223.791 161.77,219.751 171.523,205.013 C178.609,194.306 178.609,180.4 171.523,169.693 L201.859,139.357 C228.453,170.935 224.414,218.091 192.836,244.685 C161.258,271.283 114.102,267.24 87.504,235.662 C60.91,204.084 64.953,156.927 96.531,130.334 C124.355,106.9 165.008,106.9 192.836,130.334 z M240.324,91.931 L239.426,64.669 L282.309,21.791 L283.012,43.099 C283.012,46.634 285.875,49.501 289.41,49.501 L310.723,50.205 L267.586,92.83 z M240.324,91.931" fill="#F3A433"/>
    </g>
  </g>
</svg>
