<?xml version="1.0" encoding="UTF-8"?>
<!DOCTYPE svg PUBLIC "-//W3C//DTD SVG 1.1//EN" "http://www.w3.org/Graphics/SVG/1.1/DTD/svg11.dtd">
<svg version="1.1" xmlns="http://www.w3.org/2000/svg" xmlns:xlink="http://www.w3.org/1999/xlink" x="0" y="0" width="32.78" height="29.48" viewBox="0, 0, 298, 268">
  <defs>
    <clipPath id="Clip_1">
      <path d="M0.06,0.04 L298,0.04 L298,268 L0.06,268 z"/>
    </clipPath>
  </defs>
  <g id="Layer_1">
    <g clip-path="url(#Clip_1)">
      <path d="M256,1.08 L41.602,1.08 C21.504,1.08 0,12.025 0,42.681 L0,186.423 C0,217.08 21.504,228.025 41.602,228.025 L120.961,228.025 L120.961,254.521 L107.777,254.521 C104.242,254.521 101.375,257.384 101.375,260.92 C101.375,264.455 104.242,267.322 107.777,267.322 L192.258,267.322 C195.789,267.322 198.656,264.455 198.656,260.92 C198.656,257.384 195.789,254.521 192.258,254.521 L176.641,254.521 L176.641,228.025 L256,228.025 C286.656,228.025 297.602,206.521 297.602,186.423 L297.602,42.681 C297.602,12.025 276.098,1.08 256,1.08 z M133.762,228.025 L163.84,228.025 L163.84,254.521 L133.762,254.521 z M284.801,186.423 C284.801,195.064 281.984,215.224 256,215.224 L41.602,215.224 C32.961,215.224 12.801,212.408 12.801,186.423 L12.801,177.271 L284.801,177.271 z M284.801,164.537 L12.801,164.537 L12.801,42.935 C12.801,16.951 32.961,14.134 41.602,14.134 L256,14.134 C264.641,14.134 284.801,16.951 284.801,42.935 z M284.801,164.537" fill="#000000"/>
    </g>
    <path d="M252.551,31.287 C249.727,29.166 245.715,29.732 243.59,32.56 C243.59,32.564 243.586,32.564 243.586,32.568 L243.906,32.568 L196.16,96.568 L173.762,67.447 C172.594,65.931 170.809,65.013 168.898,64.951 C166.992,64.896 165.16,65.697 163.906,67.127 L127.426,108.599 L100.672,62.904 C99.531,60.978 97.469,59.791 95.23,59.767 C92.984,59.755 90.895,60.92 89.727,62.841 L45.566,134.201 C43.297,136.908 43.648,140.943 46.355,143.216 C49.062,145.49 53.098,145.138 55.371,142.431 C55.832,141.884 56.195,141.267 56.449,140.599 L94.848,78.009 L120.449,122.103 C122.234,125.154 126.152,126.181 129.203,124.396 C129.781,124.056 130.305,123.63 130.754,123.127 L168,81.462 L190.848,111.162 C192.156,112.638 193.996,113.537 195.969,113.658 C197.961,113.634 199.828,112.689 201.023,111.095 L253.824,40.248 C255.945,37.423 255.379,33.412 252.551,31.287 z M252.551,31.287" fill="#000000"/>
  </g>
</svg>
