<?xml version="1.0" encoding="UTF-8"?>
<!DOCTYPE svg PUBLIC "-//W3C//DTD SVG 1.1//EN" "http://www.w3.org/Graphics/SVG/1.1/DTD/svg11.dtd">
<svg version="1.1" xmlns="http://www.w3.org/2000/svg" xmlns:xlink="http://www.w3.org/1999/xlink" x="0" y="0" width="600" height="400" viewBox="0, 0, 1200, 800">
  <g id="Layer_1">
    <path d="M1008.63,779.906 C1001.82,779.906 994.98,779.674 988.059,779.107 C961.623,776.944 934.825,775.863 908.52,772.775 C848.149,765.688 787.75,765.269 726.94,765.269 C702.795,765.269 678.655,765.071 654.515,765.071 C619.367,765.071 584.228,765.49 549.15,767.549 C494.431,770.76 439.628,771.272 384.81,771.272 C376.535,771.272 368.251,771.261 359.976,771.245 C359.446,771.244 358.916,771.243 358.387,771.243 C328.029,771.243 297.791,772.883 267.479,774.042 C237.036,775.205 207.431,777.117 177.164,777.117 C174.433,777.117 171.695,777.101 168.952,777.068 C138.708,776.703 92.656,768.976 71.08,749.283 C58.269,737.582 60.006,709.432 72.836,698.15 C78.44,693.222 87.475,689.362 94.856,687.013 C115.881,680.323 137.276,680.307 159.246,680.168 C159.515,680.166 159.783,680.166 160.053,680.166 C175.213,680.166 190.975,682.846 205.505,686.568 C218.723,689.955 232.229,691.142 245.674,693.251 C256.676,694.976 268.447,695.803 280.088,695.803 C287.662,695.802 295.183,695.453 302.396,694.773 C321.917,692.934 341.577,692.079 361.153,690.629 C385.465,688.829 409.256,684.928 433.481,682.836 C445.609,681.789 457.455,679.193 469.556,678.013 C501.648,674.883 533.797,674.205 565.947,674.121 C568.553,674.114 571.159,674.111 573.765,674.111 C589.071,674.111 604.376,674.212 619.674,674.212 C632.115,674.212 644.551,674.179 656.985,674.179 C682.1,674.179 707.205,674.313 732.284,675.118 L737.208,731.113 L754.687,731.379 L754.655,733.48 L754.755,733.482 L763.551,676.509 C769.432,676.851 775.31,677.242 781.188,677.689 L784.582,733.936 L784.682,733.938 L784.714,731.836 L802.278,732.104 L810.701,679.227 C815.037,679.542 819.364,680.026 823.679,680.856 C836.698,683.361 849.842,685.648 863.181,686.094 C874.593,686.476 886.038,686.602 897.498,686.602 C917.882,686.602 938.304,686.204 958.621,686.139 C960.657,686.133 963.492,686.122 967.01,686.122 C1012.49,686.122 1170.89,687.956 1159.53,725.024 C1155.16,739.269 1129.77,757.808 1115.53,763.776 C1097.54,771.315 1077.87,775.775 1058.07,777.278 C1041.38,778.546 1025.11,779.906 1008.63,779.906" fill="#F3EAE9"/>
    <path d="M589.799,239.354 C589.533,239.53 589.28,239.726 589.047,239.947 C586.869,242.009 587.697,244.888 586.339,247.181 C585.734,248.204 582.381,249.385 583.601,250.932 C584.056,251.5 585.424,253.542 586.924,255.505 C589.111,258.367 588.776,262.194 588.753,265.541 C588.721,270.041 588.69,274.54 588.658,279.04 C588.631,282.955 588.601,286.891 587.934,290.749 C586.324,300.057 581.232,307.377 576.695,315.298 C571.884,323.699 566.675,332.412 563.102,341.424 C561.838,344.61 560.819,348.021 561.229,351.424 C562.256,359.954 570.179,361.004 576.009,356.13 C578.458,354.083 580.354,351.463 582.121,348.806 C586.885,341.645 590.914,333.995 594.123,326.015 C595.619,322.296 596.937,318.507 598.254,314.72 C601.649,304.956 603.384,295.812 603.814,285.491 C603.607,280.647 602.876,275.851 602.255,271.049 C601.875,268.116 599.726,261.706 602.423,259.548 C602.866,259.193 603.388,258.936 603.778,258.525 C604.219,258.062 604.453,257.444 604.658,256.838 C605.409,254.618 606.002,252.283 606.218,249.941 C606.602,245.756 601.492,241.597 598.801,239.063 C598.131,238.432 597.416,237.801 596.538,237.523 C595.111,237.071 593.582,237.637 592.193,238.197 C591.371,238.527 590.533,238.868 589.799,239.354" fill="#DCA79B"/>
    <path d="M595.663,346.553 C601.354,332.812 605.082,318.341 606.797,304.375 C601.043,302.406 595.289,300.435 589.535,298.466 C588.751,298.197 587.885,297.929 587.116,298.239 C586.485,298.492 586.063,299.081 585.68,299.644 C580.716,306.956 576.398,314.946 569.988,321.145 C565.468,325.516 560.791,329.282 556.418,333.875 C549.27,341.381 541.812,348.632 534.823,356.285 C528.551,363.153 522.104,370.317 519.275,379.177 C513.233,398.094 533.235,414.928 550.527,403.835 C570.963,390.723 586.089,369.671 595.663,346.553" fill="#454E97"/>
    <path d="M876.924,446.299 L885.719,449.951 L893.35,446.558 L894.893,447.84 L893.43,449.819 L900.573,448.849 L905.561,452 L906.103,459.892 L901.608,466.633 L893.834,466.286 L885.995,461.234 L873.748,456.763 L876.924,446.299" fill="#CC9180"/>
    <path d="M883.376,444.347 L841.127,405.94 L808.919,330.187 L782.61,334.573 L801.76,393.505 L826.444,443.888 L882.672,464.103 L883.376,444.347" fill="#707EDC"/>
    <path d="M399.733,200.358 L385.264,206.592 C378.361,209.566 375.177,217.573 378.151,224.475 L402.205,280.302 C405.179,287.205 413.185,290.389 420.088,287.415 L434.557,281.181 L399.733,200.358" fill="#9DBBF2"/>
    <path d="M801.464,75.18 C666.514,39.79 496.828,119.583 496.828,119.583 L496.79,119.495 L385.545,167.427 L448.747,314.111 L559.992,266.18 L559.954,266.092 C559.954,266.092 734.495,197.569 801.464,75.18" fill="#C6C8CA"/>
    <path d="M496.79,119.495 C496.79,119.495 452.599,59.422 356.795,100.701 L308.894,121.34 L318.242,143.037 C318.242,143.037 390.565,115.754 408.557,157.512 L496.79,119.495" fill="#707EDC"/>
    <path d="M559.992,266.18 C559.992,266.18 573.3,339.559 477.497,380.837 L429.595,401.477 L420.246,379.78 C420.246,379.78 489.75,345.954 471.758,304.197 L559.992,266.18" fill="#707EDC"/>
    <path d="M608.183,216.678 C581.063,228.363 549.606,215.85 537.922,188.731 C526.237,161.612 538.749,130.155 565.868,118.47 C592.988,106.785 624.445,119.297 636.13,146.416 C647.815,173.536 635.302,204.993 608.183,216.678" fill="#F9F9F9"/>
    <path d="M603.091,204.861 C582.498,213.734 558.611,204.233 549.738,183.64 C540.865,163.046 550.367,139.159 570.96,130.286 C591.553,121.414 615.44,130.915 624.313,151.508 C633.186,172.101 623.685,195.988 603.091,204.861" fill="#9DBBF2"/>
    <path d="M501.906,291.207 L438.705,144.522 L454.958,137.519 L518.16,284.204 L501.906,291.207" fill="#F9F9F9"/>
    <path d="M402.205,280.302 L378.151,224.475 C378.151,224.475 309.387,220.154 281.426,299.246 C358.115,333.248 402.205,280.302 402.205,280.302" fill="#5966C7"/>
    <path d="M398.226,271.069 L382.129,233.709 C382.129,233.709 336.112,230.817 317.4,283.746 C368.721,306.501 398.226,271.069 398.226,271.069" fill="#454E97"/>
    <path d="M691.718,192.216 C733.51,161.836 775.544,122.55 801.464,75.18 C749.232,61.482 691.808,65.049 641.023,74.557 L691.718,192.216" fill="#707EDC"/>
    <path d="M559.992,266.179 L559.954,266.092 C559.954,266.092 592.357,253.363 634.588,229.1 C501.76,250.876 428.075,214.664 395.547,190.639 L448.747,314.111 L559.992,266.179" fill="#C5C4C2"/>
    <path d="M473.883,226.167 L501.906,291.207 L518.16,284.204 L495.1,230.683 C487.643,229.374 480.569,227.856 473.883,226.167" fill="#E2E1DF"/>
    <path d="M658.538,97.018 L651.823,81.434 C651.823,81.434 691.772,73.023 733.514,73.023 C753.109,73.023 773.09,74.875 789.536,80.319 C789.536,80.319 784.443,80.049 775.833,80.049 C752.345,80.049 702.652,82.055 658.538,97.018" fill="#8590E1"/>
    <path d="M617.426,194.49 C596.796,194.9 565.529,193.332 546.876,173.656 C547.388,177.018 548.33,180.37 549.738,183.639 C558.611,204.233 582.498,213.734 603.091,204.861 C608.764,202.417 613.589,198.829 617.426,194.49" fill="#8FADDB"/>
    <path d="M402.205,280.302 C405.179,287.205 413.185,290.389 420.088,287.415 L434.557,281.181 L434.557,281.18 C434.54,281.172 403.19,265.858 377.066,219.708 C377.138,221.307 377.48,222.919 378.151,224.475 L402.205,280.302" fill="#8FADDB"/>
    <path d="M477.497,380.837 C480.801,379.414 483.962,377.948 487.012,376.453 C464.056,379.534 442.321,378.977 424.89,377.316 C422.008,378.922 420.246,379.78 420.246,379.78 L429.595,401.477 L477.497,380.837" fill="#6575C0"/>
    <path d="M784.309,731.551 L784.197,738.925 L802.962,748.667 L812.56,739.356 L803.25,729.758 L802.03,729.739 L801.694,731.816 L784.309,731.551" fill="#36385B"/>
    <path d="M737.773,728.76 L736.467,728.741 L726.869,738.052 L736.179,747.65 L755.232,738.483 L755.345,731.11 L737.959,730.845 L737.773,728.76" fill="#36385B"/>
    <path d="M742.27,451.005 C744.95,438.448 747.073,426.854 747.347,420.552 C748.172,401.601 751.511,339.018 751.511,339.018 L763.449,315.243 L765.584,315.296 C765.431,315.276 765.278,315.255 765.125,315.234 C765.627,315.302 764.953,310.601 764.78,310.185 C754.723,309.689 741.67,315.167 735.203,322.978 C730.418,328.757 727.518,335.867 724.69,342.854 C716.729,362.524 712.976,380.803 708.838,401.552 C706.199,414.782 703.747,427.953 701.775,441.096 C699.59,455.653 697.985,470.175 697.364,484.628 C697.296,486.225 696.911,490.69 696.652,496.028 C696.11,507.207 696.12,522.172 700.743,522.801 C701.608,522.919 702.45,522.541 703.219,522.176 C709.221,519.323 713.973,515.552 719.277,512.275 L720.448,453.933 L742.27,451.005" fill="#707EDC"/>
    <path d="M847.792,512.591 C846.796,500.157 845.756,487.724 844.442,475.321 C841.822,450.58 838.119,425.881 831.583,401.87 C829.087,392.697 826.183,383.645 823.28,374.596 C819.745,363.577 816.211,352.559 812.676,341.541 C808.283,327.846 800.665,318.13 787.141,313.156 C784.726,312.268 782.18,311.573 779.553,311.052 C779.485,311.333 779.422,311.617 779.381,311.917 C779.204,313.223 778.814,314.669 777.985,315.606 L786.908,315.828 C786.908,315.828 810.721,405.688 811.412,421.123 C811.674,426.99 812.649,439.805 813.745,453.306 L827.385,455.561 L827.187,507.135 C827.948,507.37 828.707,507.598 829.459,507.814 C833.779,509.051 837.259,512.319 840.825,514.896 C846.091,518.7 848.402,520.211 847.792,512.591" fill="#707EDC"/>
    <path d="M813.745,453.306 C815.479,474.672 817.518,497.757 817.518,497.757 C817.518,497.757 806.461,497.855 790.452,498.824 C791.636,498.814 792.819,498.8 794.001,498.808 C805.124,498.877 816.586,503.858 827.187,507.135 L827.385,455.561 L813.745,453.306" fill="#708091"/>
    <path d="M738.319,504.52 C730.688,504.808 729.762,503.358 729.762,503.358 C729.762,503.358 737.068,475.368 742.27,451.005 L720.448,453.933 L719.277,512.275 C721.142,511.123 723.074,510.03 725.154,509.061 C729.323,507.121 733.766,505.661 738.319,504.52" fill="#708091"/>
    <path d="M827.187,507.135 C816.586,503.858 805.124,498.877 794,498.808 C792.819,498.8 791.636,498.814 790.453,498.824 C789.462,498.884 788.452,498.947 787.425,499.014 C779.963,499.5 771.577,500.173 762.82,501.101 C762.389,501.147 761.961,501.191 761.529,501.238 C750.311,503.501 743.036,504.342 738.319,504.52 C733.766,505.661 729.323,507.121 725.154,509.061 C723.074,510.03 721.142,511.122 719.277,512.275 L719.033,524.423 L737.208,731.113 L754.687,731.379 L754.655,733.48 L754.755,733.482 L776.081,595.354 L776.173,594.575 L784.582,733.936 L784.682,733.938 L784.714,731.836 L802.278,732.104 L826.915,577.434 L827.187,507.135" fill="#36385B"/>
    <path d="M813.745,453.306 C812.649,439.806 811.674,426.99 811.412,421.123 C810.721,405.688 786.908,315.828 786.908,315.828 L777.985,315.606 C777.886,315.719 777.783,315.828 777.67,315.924 C777.391,316.163 777.07,316.35 776.702,316.467 C775.969,316.7 775.179,316.599 774.418,316.496 C771.474,316.096 768.529,315.696 765.585,315.296 L763.449,315.243 L751.511,339.018 C751.511,339.018 748.172,401.601 747.347,420.552 C747.073,426.854 744.95,438.449 742.27,451.005 C737.068,475.368 729.762,503.358 729.762,503.358 C729.762,503.358 730.688,504.808 738.319,504.52 C743.036,504.342 750.311,503.501 761.529,501.238 C761.961,501.191 762.389,501.147 762.82,501.101 C771.577,500.173 779.963,499.5 787.425,499.014 C788.452,498.947 789.462,498.884 790.453,498.824 C806.461,497.855 817.518,497.757 817.518,497.757 C817.518,497.757 815.479,474.672 813.745,453.306" fill="#FFFFFF"/>
    <path d="M792.467,256.256 C795.081,260.772 796.384,265.996 796.682,271.224 C796.762,272.615 796.878,274.219 797.995,275.027 C799.19,275.891 798.177,277.833 799.061,276.646 C799.945,275.459 802.947,271.338 803.063,269.852 C803.338,266.372 803.284,262.865 802.905,259.393 C802.574,256.374 801.923,253.223 799.947,250.942 C798.774,249.59 797.222,248.648 795.693,247.735 C793.477,246.411 791.193,245.076 788.662,244.629 C784.299,243.857 781.652,245.476 785.534,248.515 C788.315,250.693 790.675,253.161 792.467,256.256" fill="#36385B"/>
    <path d="M766.246,315.946 C772.24,316.443 778.234,316.939 784.228,317.436 C785.067,312.167 785.527,306.82 785.604,301.461 C790.805,300.489 796.914,298.7 798.62,293.125 C799.157,291.369 799.15,289.467 799.138,287.605 C799.087,279.911 799.037,272.216 798.986,264.521 C798.969,261.86 798.937,259.118 798.007,256.659 C796.374,252.345 792.343,249.811 788.403,248.233 C778.346,244.206 766.694,244.512 757.547,250.522 C755.112,252.122 752.822,254.169 751.445,256.927 C749.322,261.179 749.668,266.395 750.074,271.267 C750.449,275.765 750.824,280.263 751.199,284.761 C751.63,289.934 752.477,295.885 756.468,298.572 C758.588,299.998 761.304,300.232 763.14,302.089 C766.376,305.364 765,311.277 766.246,315.946" fill="#CC9180"/>
    <path d="M782.208,295.577 C779.517,297.467 776.525,297.603 773.484,296.713 C772.192,296.335 772.708,294.132 774.002,294.51 C776.522,295.248 778.89,295.2 781.13,293.627 C782.257,292.835 783.329,294.79 782.208,295.577 z M800.931,284.515 C800.826,283.09 800.156,278.916 798.082,281.57 C797.54,282.263 797.417,283.236 797.396,284.152 C797.374,285.067 797.428,286.008 797.157,286.872 C796.533,288.858 794.394,289.783 792.476,289.771 C791.714,289.767 790.935,289.649 790.256,289.267 C789.596,288.896 789.069,288.3 788.554,287.715 C787.304,286.294 786.054,284.874 784.804,283.453 C782.655,281.011 778.475,282.128 775.631,282.541 C772.353,283.017 769.082,284.064 766.429,286.293 C766.161,286.518 765.9,286.754 765.638,286.99 C764.999,287.565 764.357,288.135 763.61,288.516 C761.091,289.802 757.932,288.53 756.122,286.202 C755.293,285.136 754.514,283.76 753.246,283.595 C752.254,283.466 751.3,284.199 750.805,285.147 C750.311,286.095 750.19,287.22 750.136,288.312 C749.941,292.289 750.536,296.381 752.278,299.885 C756.057,307.485 763.172,308.338 770.308,308.08 C773.128,307.979 775.949,307.877 778.769,307.775 C783.926,307.589 789.375,307.306 793.678,304.204 C797.474,301.469 799.689,296.868 800.557,292.067 C801.005,289.589 801.115,287.035 800.931,284.515" fill="#36385B"/>
    <path d="M801.433,242.812 C801.906,240.941 802.248,239.036 802.456,237.116 C800.719,237.76 798.82,237.948 796.991,237.658 C796.971,236.552 796.952,235.446 796.932,234.34 C796.912,233.42 784.661,232.923 783.665,232.852 C774.342,232.188 765.816,231.552 757.466,236.735 C750.332,241.163 745.81,247.701 744.823,256.152 C743.88,264.226 746.619,274.723 751.296,281.358 C751.24,279.212 749.956,274.165 750.426,272.119 C750.703,270.072 751.37,268.092 752.303,266.261 C754.166,262.605 757.087,259.512 760.481,257.289 C765.891,253.745 772.211,251.829 778.537,250.855 C784.332,249.963 791.398,249.118 797.156,250.614 C799.924,251.332 800.392,252.03 802.023,249.179 C802.31,248.677 804.564,242.822 804.336,242.821 C803.368,242.818 802.401,242.815 801.433,242.812" fill="#36385B"/>
    <path d="M677.446,446.981 L677.549,456.503 L683.671,462.183 L683.099,464.106 L680.704,463.54 L684.406,469.725 L683.472,475.552 L676.429,479.155 L668.463,477.674 L665.724,470.39 L667.284,461.196 L666.577,448.177 L677.446,446.981" fill="#CC9180"/>
    <path d="M681.779,452.144 L700.468,398.193 L735.946,384.243 L743.058,316.317 L696.412,357.107 L659.803,399.623 L663.34,459.269 L681.779,452.144" fill="#707EDC"/>
    <path d="M930.447,301.584 C930.649,301.859 930.855,302.144 930.966,302.455 C932.005,305.349 930.814,307.48 931.019,310.538 C931.111,311.903 934.185,313.609 931.899,315.318 C931.055,315.948 928.767,317.204 926.955,318.531 C924.313,320.467 922.133,324.518 920.997,328.054 C916.531,341.946 915.971,356.669 915.873,371.249 C915.867,372.08 915.874,372.948 916.253,373.688 C916.93,375.013 918.536,375.51 919.97,375.907 C926.621,377.751 933.101,380.215 939.297,383.256 C944.825,385.969 950.256,389.251 954.074,394.083 C957.893,398.914 959.86,405.572 957.824,411.384 C956.3,415.737 952.554,419.244 948.111,420.479 C937.091,423.543 926.725,410.438 919.305,404.032 C912.284,397.972 905.688,391.42 899.583,384.437 C898.83,383.575 898.065,382.675 897.711,381.586 C897.334,380.426 897.46,379.169 897.594,377.956 C899.314,362.335 902.403,346.954 905.82,331.556 C906.759,327.325 909.803,324.125 910.636,320.204 C911.168,317.702 909.786,315.357 909.765,312.885 C909.744,310.44 910.34,307.224 911.222,304.946 C912.962,300.452 917.766,299.153 921.852,297.604 C922.869,297.218 923.555,296.955 924.567,297.081 C926.212,297.286 927.361,298.413 928.54,299.491 C929.238,300.129 929.889,300.826 930.447,301.584" fill="#DCA79B"/>
    <path d="M916.37,412.289 C908.872,405.784 902.425,398.011 896.884,389.93 C895.548,387.982 894.26,385.913 893.856,383.585 C893.52,381.656 893.815,379.681 894.11,377.745 C895.825,366.481 897.541,355.217 899.256,343.952 C899.501,342.345 899.965,340.455 901.489,339.89 C902.408,339.549 903.429,339.825 904.37,340.103 C924.565,346.068 913.989,347.031 920.269,361.837 C926.135,375.666 935.981,372.838 945.551,365.508 C951.816,360.709 960.171,359.916 968.04,359.301 C970.318,359.123 972.754,358.978 974.74,360.11 C976.768,361.265 977.889,363.506 978.816,365.648 C986.617,383.669 988.851,404.054 985.138,423.337 C984.83,424.934 984.421,426.635 983.211,427.721 C981.998,428.811 980.26,429.034 978.637,429.191 C965.443,430.466 951.792,430.598 939.326,426.092 C930.747,422.99 923.131,418.155 916.37,412.289" fill="#454E97"/>
    <path d="M1024.27,700.202 L1029.83,722.742 L1016.48,726.028 L1010.31,701.039 L1024.27,700.202" fill="#DCA79B"/>
    <path d="M1016.85,722.209 L1029.39,723.359 L1033.74,726.294 L1035.2,735.294 L1004.27,745.046 C1000.7,741.787 1001.22,736.128 1005.31,733.573 L1006.65,732.73 L1016.85,722.209" fill="#36385B"/>
    <path d="M1113.04,599.656 C1118.56,597.165 1123.74,592.836 1129.36,590.892 C1130.12,595.349 1131.02,599.777 1131.86,604.219 C1125.23,608.22 1118.32,611.566 1110.86,613.732 C1111.59,609.066 1112.67,604.365 1113.04,599.656" fill="#DCA79B"/>
    <path d="M1132.23,603.925 C1131.77,603.396 1131.72,603.384 1131.24,602.09 C1130.06,598.884 1126.9,589.985 1129.72,586.863 C1130.18,586.356 1130.46,586.78 1130.93,586.947 C1138.89,589.758 1144.8,593.336 1151.47,598.811 C1154.33,601.154 1157.16,604.171 1157.73,607.952 C1157.98,609.611 1157.43,610.975 1156.94,612.365 C1156.21,614.414 1155.3,616.233 1154.25,618.045 C1153.86,618.707 1153.56,619.431 1152.68,619.464 C1150.91,619.529 1149.85,617.601 1149.34,615.981 C1148.82,614.36 1148.48,612.359 1147.23,611.08 C1146.67,610.507 1145.91,610.198 1145.27,609.917 C1140.57,607.831 1135.86,608.07 1132.23,603.925" fill="#36385B"/>
    <path d="M1013.2,597.882 C1026.31,616.377 1043.47,623.246 1063.68,627.282 C1086.81,631.901 1105.71,626.091 1124.51,612.852 C1124.16,606.155 1122.83,599.599 1122.68,593.294 C1100.85,599.127 1090.04,599.466 1073,581.196 C1048.35,554.79 1065.46,510.353 1055.92,476.347 C1054.82,472.439 1053.32,468.589 1050.94,465.306 C1023.19,427.151 983.692,458.696 982.339,496.422 C981.128,530.181 993.654,570.297 1013.2,597.882" fill="#5966C7"/>
    <path d="M1041.8,474.618 C1039.01,462.412 1034.79,451 1030.43,442.564 C1011.38,445.917 990.604,452.928 972.872,461.017 C955.541,468.923 945.117,475.51 949.557,495.261 C957.728,531.605 950.711,565.803 952.672,602.102 C953.812,623.197 964.165,639.902 975.33,657.095 C988.107,676.769 999.824,697.131 1010.41,718.064 C1016.71,716.566 1023,715.067 1029.29,713.569 C1029.02,684.143 1019.72,655.67 1013.6,626.886 C1009.35,606.883 1006.67,586.026 1009.65,565.643 C1012.94,543.237 1026.42,548.725 1036.96,533.731 C1047.2,519.152 1046.62,495.701 1041.8,474.618" fill="#5966C7"/>
    <path d="M1001.35,334.945 C1003.71,336.259 1005.86,337.948 1007.99,339.622 C1009.9,341.122 1011.8,342.622 1013.71,344.122 C1020.31,349.318 1024.48,357.863 1028.1,365.235 C1047.11,404.03 1060.22,459.227 1058.37,503.066 C1027.22,510.593 989.47,508.19 957.317,508.676 C954.19,508.723 950.617,508.565 948.624,506.155 C947.416,504.695 947.087,502.72 946.803,500.846 C942.697,473.82 943.992,443.905 945.297,416.447 C945.848,404.86 946.938,393.289 948.852,381.844 C950.878,369.73 953.246,356.621 960.766,346.546 C968.813,335.765 986.238,328.396 999.198,333.886 C999.938,334.199 1000.65,334.556 1001.35,334.945" fill="#454E97"/>
    <path d="M998.774,341.148 C998.786,337.386 998.797,333.623 998.809,329.861 C999.52,329.378 1000.19,328.862 1000.8,328.328 C1012.68,317.92 1027.91,269.425 991.274,264.657 C958.013,260.329 966.336,303.913 975.334,321.246 C976.874,324.213 978.745,326.951 981.242,329.194 C982.949,330.727 983.223,330.345 983.324,332.408 C983.423,334.405 981.803,336.927 981.673,339.069 C981.534,341.353 982.085,343.776 983.653,345.442 C984.613,346.463 985.891,347.139 987.214,347.601 C989.318,348.336 991.666,348.561 993.768,347.822 C996.266,346.942 998.766,343.843 998.774,341.148" fill="#FFECE4"/>
    <path d="M965.332,305.825 C968.17,311.359 971.748,316.513 975.941,321.107 C974.117,310.345 973.781,299.334 974.943,288.481 C975.032,287.654 975.1,286.721 974.561,286.086 C974.059,285.493 973.202,285.373 972.426,285.325 C958.565,284.465 960.386,296.177 965.332,305.825" fill="#7A6A60"/>
    <path d="M1003.06,316.721 C1005.68,319.422 1010.27,317.89 1013.33,315.716 C1025.93,306.786 1031.45,289.059 1026.15,274.556 C1021.71,262.421 1004.5,255.431 1003.67,271.429 C1003.37,277.101 1007.88,284.213 1008.04,290.431 C1008.27,299.318 1005.48,308.275 1003.06,316.721" fill="#86766A"/>
    <path d="M958.193,257.923 C956.757,258.76 955.298,259.633 953.758,260.523 C950.567,262.365 948.178,263.186 944.379,261.731 C943.293,261.314 935.628,255.998 937.041,254.438 C927.678,264.783 938.405,276.176 943.784,284.576 C947.409,290.239 949.269,298.728 955.946,301.773 C963.29,305.123 967.034,298.906 972.723,295.51 C977.741,292.514 983.345,290.454 988.494,287.684 C997.037,283.088 1009.62,275.383 1004.8,263.837 C999.175,250.351 984.443,249.016 971.848,252.028 C966.467,253.314 962.426,255.458 958.193,257.923" fill="#86766A"/>
    <path d="M1106.91,333.488 C1106.57,333.499 1106.22,333.513 1105.91,333.617 C1102.99,334.59 1102.05,336.844 1099.52,338.572 C1098.39,339.342 1095.15,337.98 1095.22,340.834 C1095.24,341.887 1095.67,344.461 1095.75,346.706 C1095.86,349.98 1094.02,354.197 1091.94,357.275 C1088.01,363.101 1070.94,374.333 1074.44,382.677 C1082.67,402.283 1102.03,363.545 1104.52,360.57 C1106.16,358.606 1108.85,358.244 1110.81,356.733 C1112.74,355.238 1114.9,352.781 1116.15,350.68 C1118.61,346.536 1116.66,341.955 1115.35,337.786 C1115.03,336.748 1114.81,336.046 1114.09,335.328 C1112.91,334.161 1111.31,333.955 1109.74,333.694 C1108.8,333.539 1107.85,333.458 1106.91,333.488" fill="#DCA79B"/>
    <path d="M1047.04,424.573 C1065.41,412.749 1083.34,399.354 1098.61,384.044 C1093.87,378.941 1087.85,370.311 1079.61,371.931 C1067.21,374.373 1060.7,388.799 1045.73,382.867 C1032.58,377.661 1028.51,359.837 1015.86,353.519 C1014.56,352.868 1013.09,352.347 1011.67,352.678 C1010.67,352.912 1009.81,353.548 1009.04,354.223 C986.537,370.19 1011.18,407.68 1018.01,424.531 C1019.78,428.897 1022.33,433.9 1026.99,434.553 C1029.99,434.973 1032.87,433.376 1035.46,431.807 C1039.32,429.462 1043.19,427.052 1047.04,424.573" fill="#454E97"/>
    <path d="M556.863,338.455 C554.222,343.25 550.203,347.11 546.835,351.425 C543.557,355.623 542.2,359.54 541.036,364.604 C540.195,368.261 538.658,371.054 534.155,371.356 C525.661,371.924 528.582,365.158 527.049,359.965 C525.297,354.028 520.984,349.119 518.117,343.723 C509.83,328.13 514.705,298.894 534.704,294.068 C556.571,288.792 564.877,323.906 556.863,338.455" fill="#DCA79B"/>
    <path d="M523.896,321.507 C521.464,321.424 518.783,321.417 516.864,322.912 C514.944,324.406 514.875,327.972 517.22,328.532 C519.346,329.041 522.299,327.003 523.491,328.74 C524.188,329.755 523.409,331.106 522.743,332.183 C520.186,336.315 519.145,341.249 519.847,345.907 C518.901,346.661 517.583,345.707 516.869,344.795 C513.324,340.266 510.677,335.088 509.1,329.596 C508.228,330.832 507.008,331.848 505.611,332.504 C506.565,330.554 506.22,328.318 505.876,326.231 C504.612,318.561 504.028,309.643 509.748,303.879 C512.808,300.795 517.23,299.219 521.594,298.743 C525.958,298.268 530.331,298.788 534.654,299.307 C536.504,299.53 538.761,300.1 539.079,301.851 C534.886,303.18 530.438,306.046 528.112,309.748 C527.399,310.885 524.143,321.515 523.896,321.507" fill="#36385B"/>
    <path d="M533.847,304.048 C533.691,304.144 533.537,304.242 533.386,304.34 C531.436,305.607 529.579,307.186 527.299,307.643 C524.013,308.301 520.671,306.492 517.421,307.352 C513.788,308.314 511.144,312.375 508.371,314.69 C503.825,318.485 498.343,321.115 492.572,322.412 C489.624,323.074 486.598,323.391 483.577,323.337 C482.207,323.312 480.364,323.435 479.06,322.978 C477.312,322.364 477.434,321.557 479.38,321.09 C485.485,319.624 487.978,311.389 487.941,305.804 C487.912,301.396 486.742,296.704 488.716,292.762 C490.224,289.752 493.085,288.352 495.867,286.773 C498.936,285.031 502.065,285.795 505.454,285.1 C508.989,284.375 512.012,281.859 515.595,281.427 C519.379,280.97 522.984,282.901 526.661,283.904 C529.699,284.733 532.907,284.932 536.025,284.486 C538.818,284.086 541.583,283.174 544.395,283.409 C548.542,283.757 552.166,286.631 554.336,290.182 C557.406,295.204 559.013,303.527 557.338,309.713 C557.598,308.753 554.583,304.98 553.965,304.171 C552.661,302.463 551.055,300.833 548.902,300.412 C544.027,299.46 538.015,301.471 533.847,304.048" fill="#36385B"/>
    <path d="M360.182,693.461 C361.273,696.492 363.09,699.098 364.531,701.927 C394.255,691.837 423.678,676.92 452.46,664.065 C449.079,656.743 445.698,649.422 442.318,642.1 C428.757,653.542 414.107,663.691 398.637,672.377 C396.185,673.754 360.026,693.029 360.182,693.461" fill="#DCA79B"/>
    <path d="M370.541,700.581 C371.606,702.297 371.218,703.713 370.584,705.393 C370.216,706.368 369.485,707.223 369.361,708.271 C369.237,709.32 369.483,710.202 369.788,711.268 C371.397,716.881 376.577,729.224 364.912,726.198 C354.318,723.45 351.213,706.175 349.762,696.059 C349.666,695.394 349.502,694.717 349.794,694.085 C350.087,693.453 350.637,692.886 351.254,692.421 C354.691,689.83 358.933,686.471 362.439,690.569 C363.935,692.317 363.338,694.714 364.934,696.56 C366.241,698.072 369.476,698.866 370.541,700.581" fill="#36385B"/>
    <path d="M463.535,539.198 C461.451,546.341 463.241,552.432 464.568,561.302 C465.732,569.08 466.209,576.961 465.993,584.822 C465.807,591.566 465.08,598.42 462.405,604.614 C458.075,614.642 449.562,619.78 442.53,627.493 C436.655,633.938 430.768,639.674 423.777,645.139 C408.824,656.828 392.922,667.207 377.397,678.103 C381.828,686.284 384.341,688.972 388.773,697.153 C389.554,698.594 415.864,693.08 417.573,692.737 C423.351,691.576 429.016,689.849 434.461,687.593 C444.909,683.265 455.165,677.2 465.049,671.781 C487.833,659.29 507.329,640.823 520.923,618.67 C529.745,604.294 536.068,588.554 542.348,572.9 C545.452,565.163 549.388,557.337 551.554,549.284 C552.97,544.017 556.451,536.856 554.864,531.456 C553.491,526.481 550.125,523.267 545.511,520.131 C533.167,511.74 517.273,497.645 501.302,501.429 C492.806,503.442 489.302,508.588 483.245,513.912 C476.783,519.594 470.944,524.944 466.519,532.476 C465.11,534.875 464.153,537.083 463.535,539.198" fill="#36385B"/>
    <path d="M598.951,733.865 C601.61,739.836 605.133,734.301 608.086,736.405 C617.182,700.784 617.222,676.299 609.898,640.396 C602.224,642.115 594.627,644.137 586.972,645.858 C594.823,662.466 599.196,674.193 601.36,694.571 C601.703,697.802 598.572,733.015 598.951,733.865" fill="#DCA79B"/>
    <path d="M610.244,730.391 C612.261,730.228 613.002,731.32 613.981,732.742 C614.55,733.569 614.728,734.656 615.45,735.373 C616.172,736.091 617.118,736.33 618.136,736.605 C623.492,738.055 636.637,740.103 628.264,748.156 C620.661,755.47 604.734,749.928 595.616,745.931 C595.017,745.669 594.276,745.491 593.895,744.904 C593.513,744.316 593.284,743.653 593.24,742.863 C592.995,738.468 592.626,734.026 597.671,732.657 C599.823,732.073 601.627,733.888 603.971,733.296 C605.891,732.811 608.226,730.553 610.244,730.391" fill="#36385B"/>
    <path d="M538.878,585.263 C548.93,592.772 558.982,600.281 569.035,607.79 C572.346,610.263 575.726,612.808 577.999,616.26 C580.065,619.398 581.086,623.09 582.039,626.724 C587.281,646.704 591.376,666.986 594.299,687.434 C595.016,692.442 595.661,697.46 596.237,702.486 C596.73,706.797 594.792,712.177 598.206,714.816 C602.137,717.854 614.876,717.504 619.917,718.319 C622.189,691.046 624.461,663.772 626.732,636.499 C627.137,631.634 627.539,626.699 626.637,621.901 C625.814,617.521 623.933,613.421 622.069,609.372 C604.199,570.552 582.928,534.925 556.979,500.839 C555.889,499.407 554.751,497.942 553.191,497.045 C551.019,495.795 548.369,495.826 545.864,495.892 C536.344,496.143 521.688,493.733 513.02,497.793 C501.875,503.016 493.195,510.416 485.843,520.296 C480.943,526.882 484.057,539.384 488.563,545.72 C491.507,549.86 495.645,552.969 499.714,556.008 C512.768,565.76 525.823,575.511 538.878,585.263" fill="#36385B"/>
    <path d="M498.253,374.774 C494.97,377.086 491.954,379.692 489.357,382.5 C480.649,391.915 473.7,402.972 468.7,414.767 C457.243,441.792 455.041,471.463 452.976,500.545 C452.288,510.224 451.602,519.904 450.914,529.583 C450.237,539.106 450.911,541.222 460.995,540.779 C479.681,539.958 499.21,537.57 516.578,530.409 C524.842,527.002 532.656,522.485 541.249,519.972 C553.748,516.316 566.096,519.435 578.355,517.392 C575.948,507.574 571.971,498.464 570.528,488.252 C569.083,478.03 568.776,467.677 568.804,457.362 C568.843,442.865 568.23,428.381 567.958,413.89 C567.747,402.627 567.791,389.406 560.867,379.846 C558.545,376.639 555.289,373.711 551.62,372.136 C548.924,370.979 544.039,370.233 542.449,367.406 C542.304,367.148 542.294,366.837 542.288,366.54 C542.215,362.949 543.34,359.694 539.841,358.41 C537.891,357.695 535.109,357.769 533.051,357.642 C530.142,357.464 522.812,356.76 521.977,360.844 C521.756,361.926 521.781,363.066 521.378,364.094 C521.278,364.349 521.146,364.601 520.936,364.779 C520.666,365.007 520.303,365.082 519.957,365.153 C512.464,366.696 504.824,370.146 498.253,374.774" fill="#454E97"/>
    <path d="M653.064,291.982 C652.744,291.986 652.426,292.014 652.11,292.074 C649.164,292.635 648.306,295.505 645.925,296.701 C644.863,297.235 641.404,296.419 641.595,298.38 C641.671,299.103 641.72,301.561 641.922,304.023 C642.218,307.613 639.87,310.653 638.042,313.458 C635.586,317.228 633.13,320.998 630.674,324.768 C628.536,328.049 626.386,331.345 623.742,334.232 C617.36,341.198 609.122,344.608 601.026,348.826 C592.44,353.299 583.352,357.82 575.478,363.475 C572.693,365.475 569.994,367.796 568.501,370.882 C564.76,378.615 570.861,383.777 578.401,382.823 C581.566,382.422 584.577,381.241 587.499,379.959 C595.376,376.505 602.898,372.241 609.908,367.258 C613.175,364.935 616.33,362.457 619.484,359.981 C627.614,353.596 634.012,346.836 639.946,338.382 C642.388,334.193 644.362,329.761 646.433,325.384 C647.697,322.711 649.349,316.155 652.785,315.795 C653.349,315.736 653.927,315.802 654.478,315.666 C655.099,315.514 655.629,315.12 656.129,314.721 C657.96,313.259 659.72,311.613 661.166,309.759 C663.749,306.443 661.694,300.184 660.797,296.597 C660.574,295.704 660.313,294.787 659.725,294.079 C658.767,292.928 657.174,292.58 655.704,292.3 C654.833,292.135 653.944,291.969 653.064,291.982" fill="#DCA79B"/>
    <path d="M597.853,383.348 C600.37,381.896 602.848,380.379 605.249,378.741 C614.171,372.656 621.96,364.917 628.103,356.034 C625.412,349.758 622.158,343.724 618.395,338.026 C593.929,348.632 569.197,353.909 543.651,360.714 C534.664,363.108 525.37,365.656 518.204,371.585 C504.997,382.512 509.087,404.854 526.33,408.717 C547.194,413.391 571.784,397.509 589.4,388.01 C592.232,386.484 595.066,384.955 597.853,383.348" fill="#454E97"/>
    <path d="M1022.79,361.415 C1022.55,361.514 1022.3,361.631 1022.05,361.707 C1008.88,365.648 994.56,368.346 980.626,370.532 C970.795,372.069 960.78,373.564 950.782,373.816 C935.133,374.209 926.861,367.345 923.443,353.195 C919.259,335.888 922.883,317.451 924.382,300.077 C924.665,296.82 925.005,268.862 927.949,268.238 C918.338,270.271 913.412,260.169 903.688,261.514 C901.813,261.771 899.84,262.127 897.793,262.508 C897.328,258.519 895.675,254.603 892.787,251.275 C884.54,241.33 871.048,228.884 875.84,215.302 C878.148,213.359 880.47,211.464 882.681,209.535 C890.609,202.602 897.161,194.211 902.241,185.003 C903.939,181.921 905.804,179.16 907.683,176.737 C913.049,169.802 918.51,165.561 920.535,164.104 C920.292,166.474 920.731,168.823 922.158,170.832 C925.249,175.175 931.857,176.624 936.591,174.577 C936.83,174.471 937.054,174.362 937.283,174.243 C939.261,173.188 938.378,172.399 936.934,171.832 C935.393,171.223 933.625,170.562 933.096,168.804 C931.717,164.206 944.041,163.078 946.287,162.753 C968.398,159.552 984.299,187.96 989.768,193.715 C989.768,193.715 988.098,203.967 991.837,208.011 C992.633,208.877 993.137,209.678 993.435,210.419 C992.612,211.709 991.934,213.26 991.469,215.113 L991.463,215.12 C983.796,217.324 991.911,226.597 987.053,230.856 C985.187,232.488 982.667,233.064 980.706,234.575 C980.338,234.862 979.974,235.175 979.804,235.609 C979.516,236.3 979.826,237.123 980.355,237.66 C982.523,239.865 985.784,239.978 988.929,239.283 C989.581,249.347 992.837,259.606 1001.28,267.315 C1000.41,275.25 998.208,287.443 988.939,289.497 C987.599,289.79 986.219,290.01 985.015,290.657 C979.003,293.912 986.156,301.856 990.121,302.777 C996.056,304.155 1002.74,302.642 1009.13,301.717 L1009.13,301.716 C1010.57,301.509 1011.32,303.567 1007.86,306.671 C998.692,314.912 988.72,326.863 991.726,340.319 C993.936,350.228 1001.84,356.55 1010.9,359.543 C1014.7,360.798 1018.7,361.19 1022.79,361.415" fill="#FFFFFF"/>
    <path d="M895.387,249.8 C886.82,239.469 874.05,226.75 879.027,212.638 C871.952,218.577 863.778,224.696 860.555,233.5 C856.958,243.324 859.697,255.12 868.962,260.72 C877.906,266.126 890.195,263.959 900.67,261.988 C900.19,257.842 898.39,253.258 895.387,249.8" fill="#C6C8CA"/>
    <path d="M864.91,240.496 C864.617,238.472 866.02,236.594 868.044,236.301 C870.068,236.008 871.946,237.411 872.239,239.435 C872.532,241.459 871.129,243.337 869.105,243.63 C867.081,243.923 865.203,242.52 864.91,240.496" fill="#4C5167"/>
    <path d="M922.059,142.902 C916.706,151.037 910.271,158.387 902.986,164.716 C905.741,171.896 907.683,176.737 907.683,176.737 C913.049,169.801 918.51,165.561 920.535,164.104 C920.972,159.815 923.635,155.45 926.672,152.894 C927.301,152.365 927.965,151.882 928.67,151.441 C926.796,148.993 924.541,146.073 922.059,142.902" fill="#4C4899"/>
    <path d="M897.214,113.125 C891.724,107.25 887.31,103.374 885.55,103.82 C883.419,104.362 885.1,112.474 888.31,123.102 C891.605,120.202 894.602,116.913 897.214,113.125" fill="#C6C8CA"/>
    <path d="M897.214,113.125 C894.602,116.913 891.605,120.202 888.31,123.102 C889.61,127.407 891.159,132.124 892.81,136.921 C897.609,132.872 901.791,128.001 905.132,122.053 C902.37,118.813 899.684,115.767 897.214,113.125" fill="#9DBBF2"/>
    <path d="M905.132,122.053 C901.791,128.001 897.609,132.872 892.81,136.921 C894.382,141.49 896.044,146.129 897.665,150.549 C903.938,145.585 909.569,139.805 914.328,133.169 C911.3,129.417 908.171,125.618 905.132,122.053" fill="#707EDC"/>
    <path d="M914.328,133.169 C909.569,139.805 903.938,145.585 897.665,150.549 C899.565,155.728 901.409,160.606 902.986,164.716 C910.271,158.387 916.706,151.037 922.059,142.902 C919.653,139.828 917.03,136.517 914.328,133.169" fill="#5966C7"/>
    <path d="M1058.69,236.539 C1058.5,235.781 1057.95,235.063 1057.19,234.891 C1056.31,234.694 1055.46,235.231 1054.73,235.741 C1051.21,238.187 1047.3,242.378 1042.65,240.569 C1037.6,238.603 1035.19,232.108 1034.41,227.194 C1032.97,218.08 1034.13,210.949 1029.2,203.027 C1027.14,199.721 1021.8,194.667 1016.1,195.206 C1020.03,194.804 1016.08,175.774 1015.09,173.148 C1011.2,162.882 1000.82,155.405 991.483,150.522 C972.261,140.475 947.364,139.754 928.67,151.441 C927.964,151.882 927.301,152.366 926.672,152.894 C923.635,155.45 920.972,159.815 920.535,164.104 C920.292,166.474 920.731,168.823 922.158,170.832 C925.249,175.175 931.857,176.623 936.591,174.577 C936.829,174.471 937.053,174.362 937.283,174.243 C939.261,173.188 938.378,172.399 936.934,171.832 C935.393,171.223 933.625,170.561 933.096,168.804 C931.717,164.206 944.041,163.078 946.287,162.753 C963.108,160.318 976.333,176.173 984.107,186.434 C986.734,190.15 994.364,203.26 987.697,222.72 C985.478,229.198 981.131,231.272 978.848,233.329 C978.42,233.719 977.998,234.147 977.81,234.75 C977.489,235.709 977.883,236.872 978.529,237.642 C981.174,240.801 985.054,241.063 988.769,240.188 L989.007,240.125 C989.816,250.375 993.101,260.78 1001.16,268.764 C1000.2,276.687 997.783,287.918 988.992,289.866 C987.652,290.159 986.326,290.749 985.122,291.396 C979.11,294.651 986.156,301.856 990.121,302.778 C996.055,304.155 1002.74,302.642 1009.13,301.716 C1009.45,301.67 1009.76,301.591 1010.07,301.497 C1009.96,302.518 1009.27,303.74 1007.65,305.194 C998.479,313.435 988.502,326.273 991.508,339.728 C993.719,349.638 1001.79,356.181 1010.84,359.174 C1014.65,360.428 1018.7,361.19 1022.79,361.415 C1031.77,361.906 1040.97,359.849 1048.35,354.859 C1053.34,351.483 1058.36,346.778 1060.01,340.761 C1060.42,339.234 1060.73,337.419 1060.29,335.853 C1059.75,333.942 1058.03,332.892 1056.8,335.278 C1055.15,338.488 1052.18,340.286 1048.65,341.009 C1041.27,342.508 1034.96,337.114 1037.29,329.327 C1037.79,327.617 1038.73,326.071 1039.69,324.57 C1043.12,319.198 1048.03,314.495 1050.84,308.783 C1053.41,303.564 1054.83,297.519 1054.13,291.779 C1053.18,283.91 1048.63,274.669 1039.97,272.966 C1039.83,272.938 1039.68,272.916 1039.54,272.895 C1041.23,267.294 1041.46,261.165 1040.72,255.381 C1047.12,255.697 1054.52,249.31 1057.17,244.014 C1058.16,242.033 1059.25,238.784 1058.69,236.539" fill="#E08698"/>
    <path d="M967.305,184.256 C963.23,184.038 954.805,176.078 955.673,172.092 C957.813,162.261 967.004,148.264 966.161,142.441 C964.982,134.297 979.863,136.375 979.366,152.438 C978.87,168.501 978.985,183.036 972.13,184.042 C970.416,184.294 968.786,184.335 967.305,184.256" fill="#F9F9F9"/>
    <path d="M924.883,211.65 C925.355,214.916 923.091,217.947 919.825,218.419 C916.56,218.892 913.529,216.628 913.056,213.362 C912.583,210.096 914.847,207.065 918.113,206.593 C921.379,206.119 924.41,208.384 924.883,211.65" fill="#4C5167"/>
    <path d="M972.13,184.042 C978.985,183.035 978.87,168.501 979.366,152.438 C979.571,145.81 977.157,141.569 974.334,139.439 C974.351,139.632 977.703,177.532 963.595,182.791 L965.055,183.595 C965.88,183.983 966.649,184.221 967.305,184.256 C968.786,184.335 970.416,184.294 972.13,184.042" fill="#E4E2ED"/>
    <path d="M1106.05,247.117 L1126.89,286.21 C1127.23,286.853 1127.87,287.286 1128.6,287.369 L1172.73,292.411 C1174.56,292.62 1175.35,294.828 1174.07,296.148 L1143.21,327.992 C1142.7,328.516 1142.48,329.256 1142.63,329.97 L1151.44,373.36 C1151.81,375.157 1149.95,376.593 1148.29,375.789 L1108.38,356.378 C1107.72,356.058 1106.95,356.082 1106.31,356.44 L1067.63,378.215 C1066.03,379.116 1064.08,377.796 1064.34,375.979 L1070.53,332.138 C1070.64,331.416 1070.38,330.692 1069.84,330.199 L1037.11,300.266 C1035.76,299.026 1036.42,296.775 1038.23,296.456 L1081.98,288.771 C1082.7,288.645 1083.31,288.174 1083.61,287.511 L1102.07,247.237 C1102.83,245.569 1105.19,245.498 1106.05,247.117" fill="#9DBBF2"/>
    <path d="M1104.33,256.344 L1087.84,290.675 C1086.97,292.476 1085.25,293.712 1083.26,293.953 L1045.34,298.556 L1085.57,299.22 C1088.12,299.262 1090.41,297.651 1091.23,295.237 L1104.33,256.344" fill="#C0D5F5"/>
    <path d="M1065.05,370.935 L1064.34,375.979 C1064.08,377.796 1066.03,379.116 1067.63,378.215 L1106.31,356.44 C1106.95,356.082 1107.72,356.058 1108.38,356.378 L1148.29,375.789 C1149.95,376.593 1151.81,375.157 1151.44,373.36 L1142.63,329.969 C1142.48,329.256 1142.7,328.516 1143.21,327.992 L1174.07,296.148 C1175.35,294.828 1174.56,292.62 1172.73,292.411 L1157.95,290.722 C1135.43,334.015 1099.65,357.527 1065.05,370.935" fill="#91AEDB"/>
    <path d="M1064.49,383.737 L1064.5,383.737 L1064.49,383.737" fill="#CBE4F0"/>
    <path d="M895.054,555.399 L673.34,555.399 L673.34,416.393 C673.34,411.416 677.375,407.38 682.352,407.38 L886.041,407.38 C891.019,407.38 895.054,411.416 895.054,416.393 L895.054,555.399" fill="#4C4899"/>
    <path d="M682.178,417.634 L886.274,417.634 L886.274,547.228 L682.178,547.228 z" fill="#E4E2ED"/>
    <path d="M895.034,574.526 L673.317,573.861 C667.921,573.846 662.922,571.021 660.126,566.406 L908.268,567.145 L908.267,567.146 C905.445,571.745 900.43,574.541 895.034,574.526" fill="#D4D5D6"/>
    <path d="M905.318,568.382 L663.076,568.382 C661.268,568.382 659.803,566.917 659.803,565.109 L659.803,558.308 C659.803,556.5 661.268,555.035 663.076,555.035 L905.318,555.035 C907.125,555.035 908.59,556.5 908.59,558.308 L908.59,565.109 C908.59,566.917 907.125,568.382 905.318,568.382" fill="#C6C8CA"/>
    <path d="M802.48,563.679 L765.914,563.679 C764.678,563.679 763.676,562.678 763.676,561.442 L763.676,561.195 C763.676,559.96 764.678,558.958 765.914,558.958 L802.48,558.958 C803.715,558.958 804.717,559.96 804.717,561.195 L804.717,561.442 C804.717,562.678 803.715,563.679 802.48,563.679" fill="#AFB1B2"/>
    <path d="M682.828,533.396 L884.497,533.396 L885.625,473.188 L854.478,427.729 L824.757,479.544 L789.557,451.103 L744.585,494.242 L716.488,476.927 L682.828,513.99 L682.828,533.396" fill="#F5F5F5"/>
    <path d="M817.518,533.396 L817.518,533.396 L789.557,451.103 L824.757,479.544 L817.518,533.396" fill="#EDEDED"/>
    <path d="M150.146,278.265 C150.357,278.514 150.572,278.773 150.699,279.061 C151.881,281.752 150.887,283.862 151.286,286.764 C151.464,288.058 154.507,289.481 152.441,291.262 C151.678,291.919 149.581,293.267 147.941,294.653 C145.551,296.674 143.742,300.68 142.893,304.127 C139.558,317.666 140.001,331.738 140.875,345.643 C140.925,346.436 140.989,347.262 141.398,347.943 C142.132,349.162 143.696,349.528 145.09,349.812 C151.552,351.129 157.893,353.048 164.001,355.535 C169.451,357.755 174.846,360.523 178.807,364.876 C182.767,369.228 185.084,375.444 183.529,381.12 C182.365,385.37 179.027,388.962 174.873,390.435 C164.572,394.086 153.82,382.282 146.322,376.668 C139.227,371.356 132.504,365.548 126.221,359.296 C125.446,358.524 124.657,357.717 124.247,356.702 C123.811,355.621 123.848,354.415 123.894,353.25 C124.498,338.244 126.422,323.377 128.658,308.472 C129.273,304.376 131.962,301.123 132.496,297.331 C132.837,294.91 131.363,292.767 131.18,290.412 C130.997,288.082 131.353,284.977 132.042,282.746 C133.403,278.347 137.896,276.789 141.688,275.042 C142.632,274.607 143.269,274.31 144.242,274.363 C145.824,274.45 146.993,275.448 148.189,276.397 C148.897,276.959 149.564,277.58 150.146,278.265" fill="#DCA79B"/>
    <path d="M143.97,383.542 C141.725,381.403 139.609,379.154 137.644,376.799 C131.715,369.696 125.785,362.592 119.856,355.489 C119.326,354.854 118.787,354.203 118.498,353.428 C118.004,352.1 118.315,350.625 118.614,349.241 C120.915,338.597 122.229,327.741 122.535,316.857 C129.247,319.671 136.643,320.841 143.896,320.234 C143.91,327.53 143.925,334.826 143.939,342.122 C143.941,342.95 143.957,343.828 144.402,344.527 C144.824,345.188 145.559,345.571 146.264,345.914 C163.362,354.234 182.091,357.569 200.212,363.004 C208.968,365.633 218.021,368.422 224.878,374.468 C239.521,387.377 231.144,411.67 210.959,411.038 C187.108,410.29 161.558,400.302 143.97,383.542" fill="#4C4899"/>
    <path d="M215.272,709.013 L215.586,731.196 L200.205,731.371 L199.857,706.778 L215.272,709.013" fill="#DCA79B"/>
    <path d="M201.374,727.896 L212.807,731.675 L216.215,735.344 L215.638,744.038 L184.735,746.44 C182.124,742.638 183.822,737.481 188.179,735.985 L189.617,735.491 L201.374,727.896" fill="#36385B"/>
    <path d="M310.004,687.748 L318.71,708.154 L306.614,713.303 L296.962,690.68 L310.004,687.748" fill="#DCA79B"/>
    <path d="M304.604,713.685 C305.039,713.206 305.543,712.751 306.13,712.322 C307.584,711.26 319.302,705.05 320.308,707.849 C320.471,708.304 320.419,708.804 320.362,709.284 C319.397,717.337 317.507,725.279 314.742,732.904 C313.56,736.166 311.765,739.779 308.392,740.592 C306.913,740.948 305.361,740.686 303.877,740.349 C301.689,739.853 299.536,739.2 297.441,738.397 C296.675,738.103 295.861,737.741 295.464,737.024 C294.669,735.587 296.056,733.885 297.504,733.111 C298.953,732.337 300.722,731.781 301.429,730.298 C301.746,729.634 301.791,728.877 301.831,728.141 C302.126,722.684 301.2,717.444 304.604,713.685" fill="#36385B"/>
    <path d="M225.18,606.212 C229.492,625.933 241.821,640.1 254.991,654.602 C270.061,671.197 284.238,688.604 297.438,706.722 C303.143,704.343 308.849,701.964 314.555,699.584 C309.785,671.872 296.639,646.445 286.453,620.235 C279.374,602.021 273.639,582.761 273.328,563.078 C273.173,553.289 275.545,544.337 276.815,534.816 C278.388,523.023 278.478,510.935 279.9,499.087 C280.376,495.114 280.647,490.415 277.592,487.83 C276.232,486.68 274.44,486.196 272.691,485.857 C207.813,473.293 216.979,568.713 225.18,606.212" fill="#5966C7"/>
    <path d="M278.033,502.798 C278.068,490.833 276.607,479.3 274.369,470.505 C255.913,469.517 235.057,471.559 216.805,475.262 C198.965,478.882 187.839,482.765 187.711,502.109 C187.474,537.705 173.561,568.026 167.554,602.24 C164.063,622.123 170.095,639.908 176.779,658.323 C184.427,679.394 190.94,700.878 196.28,722.65 C202.461,722.613 208.643,722.576 214.825,722.539 C220.925,695.088 218.409,666.575 218.927,638.46 C219.287,618.922 221.288,598.927 228.467,580.596 C236.36,560.447 247.726,568.467 260.77,556.781 C273.452,545.421 277.973,523.465 278.033,502.798" fill="#5966C7"/>
    <path d="M257.076,365.811 C259.114,367.39 260.905,369.295 262.675,371.182 C264.26,372.873 265.845,374.564 267.431,376.255 C272.923,382.113 275.636,390.784 277.99,398.268 C290.379,437.65 294.837,491.68 286.792,532.83 C256.279,535.466 220.962,527.772 190.517,523.614 C187.556,523.209 184.203,522.546 182.666,519.983 C181.735,518.43 181.708,516.517 181.708,514.706 C181.712,488.583 187.232,460.508 192.41,434.755 C194.595,423.888 197.287,413.113 200.739,402.576 C204.393,391.422 208.514,379.378 217.066,370.94 C226.216,361.911 243.737,357.452 255.192,364.5 C255.846,364.903 256.472,365.342 257.076,365.811" fill="#4C4899"/>
    <path d="M245.255,363.893 C245.072,364.274 244.822,364.641 244.485,364.991 C243.153,366.373 241.28,367.186 239.409,367.503 C236.943,367.92 234.416,367.573 231.947,367.168 C228.612,366.619 228.68,364.674 228.122,361.673 C227.817,360.033 227.61,358.379 227.444,356.72 C227.353,355.811 227.622,352.54 227.025,351.917 C226.62,351.494 225.019,351.681 224.307,351.332 C223.178,350.779 222.22,349.731 221.524,348.707 C220.402,347.056 219.758,345.135 219.128,343.241 C218.031,339.946 216.935,336.651 215.838,333.356 C214.717,329.989 213.591,326.594 213.168,323.071 C212.531,317.761 213.2,310.224 217.118,306.229 C220.693,302.585 226.008,301.205 230.896,300.453 C237.368,299.457 244.13,300.474 249.827,303.777 C252.127,305.111 254.32,306.861 255.721,309.308 C257.88,313.082 257.845,317.862 257.738,322.333 C257.639,326.461 257.539,330.588 257.44,334.715 C257.326,339.462 256.875,344.94 253.389,347.602 C251.538,349.015 249.079,349.37 247.51,351.161 C245.544,353.406 245.759,356.692 245.745,359.474 C245.737,361.065 245.895,362.566 245.255,363.893" fill="#DCA79B"/>
    <path d="M223.338,311.134 C223.124,311.526 222.948,311.932 222.814,312.352 C222.113,314.557 222.687,317.011 222.004,319.221 C220.921,322.725 216.92,324.917 216.401,328.548 C215.977,331.518 218.069,334.277 218.316,337.266 C218.586,340.532 216.571,343.681 216.978,346.902 C217.332,349.699 219.212,353.594 220.944,355.799 C220.407,355.116 215.719,355.484 214.482,354.771 C212.587,353.679 212.356,352.967 211.751,351.036 C211.151,349.12 211.529,347.206 210.62,345.251 C209.504,342.851 207.293,341.126 206.468,338.558 C205.343,335.053 207.126,331.28 206.886,327.608 C206.522,322.049 201.578,316.929 203.189,311.596 C204.133,308.468 207.095,306.407 208.718,303.571 C209.95,301.416 210.361,298.904 211.194,296.567 C212.027,294.229 213.503,291.874 215.864,291.111 C217.176,290.687 218.602,290.81 219.95,290.524 C222.282,290.028 224.186,288.362 226.424,287.541 C229.624,286.366 235.403,289.485 237.357,292.173 C239.297,294.841 238.412,297.174 236.561,299.624 C233.479,303.705 225.85,306.519 223.338,311.134" fill="#36385B"/>
    <path d="M266.396,293.586 C268.367,294.956 270.781,295.92 272.591,297.533 C276.118,300.679 276.905,305.835 277.15,310.554 C277.368,314.757 279.304,318.447 278.96,322.841 C278.729,325.793 277.554,328.802 275.203,330.601 C272.276,332.841 267.601,333.316 266.358,336.787 C265.008,340.557 268.996,345.16 266.731,348.463 C265.481,350.285 262.95,350.612 261.128,351.862 C259.095,353.256 258.094,355.678 256.885,357.827 C255.677,359.975 253.835,362.144 251.373,362.26 C251.177,358.515 250.99,355.549 252.504,352.081 C253.385,350.061 256.036,346.307 253.872,344.199 C252.496,342.437 249.342,341.932 249.204,339.7 C249.139,338.653 249.848,337.74 250.404,336.849 C252.552,333.4 252.664,328.873 251.052,325.142 C249.44,321.411 246.24,318.48 242.538,316.802 C238.199,314.836 238.863,313.772 237.513,309.7 C236.27,305.954 234.105,305.123 230.67,303.834 C227.586,302.676 226.586,301.931 225.387,299.103 C224.509,297.034 223.43,294.557 224.566,292.194 C225.469,290.316 227.145,288.946 228.769,287.64 C232.162,284.914 235.98,282.04 240.328,282.242 C242.743,282.354 245.04,283.428 247.456,283.504 C249.068,283.554 250.659,283.156 252.269,283.062 C255.013,282.9 257.932,283.661 260.197,285.239 C262.483,286.831 262.464,288.559 263.77,290.868 C264.41,291.999 265.339,292.851 266.396,293.586" fill="#36385B"/>
    <path d="M256.284,278.427 C255.795,275.827 255.979,272.418 258.449,271.473 C259.803,270.955 261.348,271.445 262.76,271.12 C265.77,270.427 266.707,266.737 268.226,264.047 C268.454,263.644 268.726,263.235 269.143,263.036 C269.74,262.752 270.439,262.973 271.097,263.036 C274.118,263.327 276.33,260.297 279.139,259.147 C282.615,257.723 287.087,259.805 288.237,263.381 C288.709,264.85 288.674,266.443 289.12,267.921 C290.926,273.906 299.82,276.246 300.203,282.487 C300.462,286.704 296.434,290.854 298.14,294.72 C299.23,297.192 302.488,298.813 302.189,301.499 C301.997,303.226 300.193,304.446 298.455,304.466 C296.717,304.486 295.096,303.573 293.758,302.463 C291.634,300.702 290.009,298.414 287.981,296.544 C285.953,294.673 283.273,293.182 280.545,293.594 C277.902,293.993 275.556,296.118 272.91,295.744 C270.794,295.444 269.182,293.604 267.098,293.128 C265.148,292.681 263.154,293.493 261.162,293.665 C259.169,293.836 256.691,292.86 256.587,290.863 C256.562,290.379 256.685,289.875 256.521,289.419 C256.062,288.141 253.863,288.272 253.412,286.991 C254.413,285.359 255.897,285.897 256.59,283.78 C257.126,282.142 256.591,280.06 256.284,278.427" fill="#36385B"/>
    <path d="M156.96,297.915 L159.573,309.759 C160.422,313.607 164.152,316.054 167.905,315.226 L198.255,308.53 C202.008,307.702 204.362,303.912 203.513,300.065 L200.9,288.22 L156.96,297.915" fill="#999999"/>
    <path d="M217.436,117.793 C208.243,76.123 167.84,49.612 127.196,58.579 C86.551,67.547 61.055,108.596 70.248,150.266 C73.515,165.074 80.726,177.965 90.485,188.032 L90.482,188.032 C118.722,218.694 129.956,247.115 129.956,247.115 L204.022,230.775 C204.022,230.775 202.254,200.265 214.971,160.567 L214.968,160.568 C219.585,147.328 220.703,132.6 217.436,117.793" fill="#F2DDDD"/>
    <path d="M129.103,247.303 L140.204,297.62 C140.668,299.722 142.666,301.068 144.668,300.626 L213.191,285.509 C215.193,285.067 216.44,283.005 215.976,280.903 L204.875,230.587 L129.103,247.303" fill="#C6C8CA"/>
    <path d="M213.012,103.955 C202.586,145.546 179.052,211.436 129.876,246.919 C129.924,247.036 129.956,247.115 129.956,247.115 L204.022,230.775 C204.022,230.775 202.254,200.265 214.971,160.567 L214.968,160.568 C219.585,147.328 220.703,132.6 217.436,117.793 C216.37,112.962 214.868,108.346 213.012,103.955" fill="#DECCCC"/>
    <path d="M83.643,153.819 C75.617,117.439 97.876,81.602 133.361,73.773 C154.102,69.197 174.768,75.207 189.965,88.253 C174.514,70.955 150.786,62.249 126.963,67.505 C91.478,75.333 69.219,111.171 77.245,147.55 C80.58,162.665 88.621,175.492 99.424,184.765 C91.861,176.299 86.281,165.773 83.643,153.819" fill="#E4E2ED"/>
    <path d="M152.678,242.102 L122.455,147.49 L137.214,155.34 L144.169,135.344 L158.914,149.963 L168.895,137.148 L181.3,235.788 L185.101,234.949 L171.565,127.319 L158.517,144.072 L142.52,128.211 L135.035,149.728 L115.839,139.518 L148.877,242.941 L152.678,242.102" fill="#F8F9F9"/>
    <path d="M145.863,233.506 L148.877,242.941 L152.678,242.102 L148.955,230.448 C147.938,231.48 146.909,232.5 145.863,233.506" fill="#F1F0F1"/>
    <path d="M176.192,195.174 L181.3,235.788 L185.101,234.949 L179.418,189.76 C178.368,191.575 177.293,193.38 176.192,195.174" fill="#E4E2ED"/>
    <path d="M209.681,252.372 L133.91,269.089 L131.859,259.797 L207.631,243.08 L209.681,252.372" fill="#B1B1B2"/>
    <path d="M214.059,272.216 L138.288,288.932 L136.237,279.641 L212.009,262.924 L214.059,272.216" fill="#B1B1B2"/>
    <path d="M177.779,270.476 L212.009,262.924 L209.681,252.372 L188.566,257.031 C185.032,262.011 181.411,266.474 177.779,270.476" fill="#A7A39E"/>
    <path d="M207.631,243.08 L204.875,230.587 L203.683,230.849 C201.202,236.158 198.598,241.089 195.903,245.668 L207.631,243.08" fill="#A7A39E"/>
    <path d="M144.668,300.626 L213.191,285.509 C215.193,285.067 216.44,283.005 215.976,280.903 L214.059,272.216 L164.583,283.131 C155.692,290.511 147.293,295.379 140.542,298.542 C141.307,300.092 142.981,300.999 144.668,300.626" fill="#A7A39E"/>
    <path d="M188.566,257.031 L209.681,252.372 L207.631,243.08 L195.903,245.668 C193.517,249.722 191.064,253.509 188.566,257.031" fill="#999999"/>
    <path d="M164.583,283.131 L214.059,272.216 L212.009,262.924 L177.779,270.476 C173.354,275.351 168.911,279.539 164.583,283.131" fill="#999999"/>
    <path d="M202.487,295.414 C195.802,305.736 179.995,311.9 174.724,313.721 L198.255,308.53 C202.008,307.702 204.362,303.912 203.513,300.065 L202.487,295.414" fill="#706D6C"/>
    <path d="M153.398,379.456 L117.612,357.26 L75.6,443.109 C73.655,446.966 74.919,451.629 78.515,453.859 L120.016,479.599 C123.612,481.829 128.351,480.89 130.942,477.434 L189.185,401.652 L153.398,379.456" fill="#FFFFFF"/>
    <path d="M74.984,449.109 C75.509,451.03 76.722,452.747 78.515,453.859 L120.016,479.599 C123.612,481.829 128.351,480.891 130.942,477.434 L189.175,401.664 L74.984,449.109" fill="#C6C8CA"/>
    <path d="M117.612,357.26 L186.128,405.302 L194.28,394.988 L117.612,357.26" fill="#AFABA4"/>
    <path d="M105.846,380.594 L173.508,422.56 L139.82,465.593 L82.263,429.894 L105.846,380.594" fill="#9DBBF2"/>
    <path d="M114.896,355.821 L191.333,403.23 L195.954,395.78 L119.517,348.371 L114.896,355.821" fill="#36385B"/>
    <path d="M195.332,377.744 C195.319,376.336 194.599,375.044 193.42,374.312 L140.223,341.317 C139.043,340.586 137.566,340.515 136.298,341.13 L124.207,351.28 L191.611,393.086 L195.332,377.744" fill="#707EDC"/>
    <path d="M116.06,434.184 C116.357,434.05 116.665,433.913 116.977,433.87 C119.888,433.47 121.646,435.005 124.546,435.417 C125.839,435.6 128.041,433.063 129.188,435.538 C129.611,436.452 130.333,438.839 131.216,440.795 C132.505,443.648 135.862,446.485 138.944,448.245 C151.051,455.163 164.705,458.594 178.318,461.564 C179.094,461.733 179.907,461.898 180.674,461.691 C182.046,461.319 182.827,459.915 183.482,458.653 C186.52,452.798 190.102,447.227 194.169,442.033 C197.797,437.4 201.937,432.971 207.209,430.354 C212.48,427.738 219.093,427.213 224.125,430.264 C227.894,432.549 230.434,436.743 230.712,441.141 C231.4,452.049 217.102,459.154 209.647,464.827 C202.595,470.195 195.167,475.069 187.433,479.398 C186.478,479.932 185.486,480.469 184.398,480.585 C183.238,480.709 182.088,480.343 180.98,479.979 C166.715,475.286 152.944,469.361 139.222,463.127 C135.451,461.413 133.06,457.935 129.559,456.383 C127.325,455.391 124.859,456.221 122.544,455.753 C120.254,455.289 117.365,454.096 115.409,452.823 C111.551,450.309 111.284,445.56 110.642,441.434 C110.482,440.407 110.372,439.714 110.689,438.793 C111.206,437.295 112.487,436.444 113.727,435.554 C114.462,435.027 115.242,434.556 116.06,434.184" fill="#DCA79B"/>
    <path d="M259.976,413.355 C260.118,412.93 260.279,412.508 260.415,412.083 C266.554,392.844 245.486,378.131 229.059,388.675 C221.366,393.613 216.202,401.555 211.275,409.255 C205.095,418.921 199.6,429.021 193.48,438.723 C183.883,453.94 167.952,452.659 151.952,448.935 C148.779,456.572 144.966,463.942 140.566,470.945 C152.042,476.226 163.645,481.549 176.023,484.072 C188.401,486.595 201.811,486.1 212.961,480.161 C221.742,475.484 228.508,467.822 234.776,460.095 C246.046,446.203 256.649,430.872 259.976,413.355" fill="#4C4899"/>
    <g>
      <text transform="matrix(0.992, -0.128, 0.128, 0.992, 788.605, 507.467)">
        <tspan x="-57.136" y="-15.054" font-family="LucidaGrande" font-size="30" fill="#E08698">RESUM</tspan>
      </text>
      <path d="M732.787,499.488 L730.014,477.986 L736.522,477.147 Q739.617,476.747 741.442,477.9 Q743.267,479.053 743.602,481.654 Q744.157,485.954 740.046,488.316 L748.521,497.458 L744.773,497.942 L737.483,489.636 L734.636,490.003 L735.809,499.098 z M734.342,487.723 L735.33,487.595 Q741.083,486.853 740.5,482.335 Q740.071,479.008 735.247,479.63 L733.33,479.877 z M751.601,497.061 L748.827,475.559 L760.842,474.009 L761.136,476.29 L752.173,477.447 L753.063,484.348 L760.574,483.379 L760.864,485.63 L753.353,486.599 L754.358,494.386 L763.946,493.15 L764.24,495.43 z M772.01,494.975 Q769.845,495.254 766.353,494.744 L765.963,491.723 Q769.812,492.939 772.151,492.638 Q773.953,492.405 774.928,491.319 Q775.903,490.234 775.704,488.694 Q775.541,487.43 774.708,486.636 Q773.874,485.843 771.802,485.002 L770.209,484.336 Q767.261,483.122 765.956,481.879 Q764.651,480.637 764.413,478.792 Q764.093,476.308 765.687,474.47 Q767.281,472.632 770.071,472.273 Q772.555,471.952 775.422,472.424 L775.782,475.214 Q772.21,474.315 770.539,474.531 Q768.956,474.735 768.033,475.711 Q767.11,476.687 767.275,477.965 Q767.414,479.04 768.276,479.771 Q769.138,480.501 771.291,481.391 L772.944,482.064 Q775.937,483.287 777.223,484.554 Q778.509,485.821 778.764,487.797 Q779.126,490.601 777.275,492.567 Q775.424,494.534 772.01,494.975 z M780.804,471.435 L783.855,471.041 L785.605,484.61 Q786.023,487.85 787.412,489.17 Q788.8,490.49 791.416,490.153 Q793.972,489.823 794.861,488.298 Q795.75,486.772 795.323,483.46 L793.559,469.789 L796.233,469.444 L797.99,483.072 Q798.558,487.474 797.008,489.712 Q795.458,491.95 791.506,492.46 Q787.482,492.979 785.296,491.149 Q783.111,489.319 782.55,484.975 z M804.367,490.254 L801.593,468.753 L805.821,468.207 L813.923,484.074 L817.908,466.648 L821.686,466.161 L824.459,487.662 L821.612,488.03 L819.355,470.538 L815.499,487.356 L812.55,487.737 L804.72,472.382 L806.982,489.917 z M829.995,486.948 L827.221,465.447 L839.236,463.897 L839.53,466.178 L830.566,467.334 L831.456,474.235 L838.967,473.266 L839.258,475.518 L831.747,476.487 L832.751,484.274 L842.34,483.037 L842.634,485.318 z M830.838,463.149 L833.738,458.034 L837.051,457.606 L832.989,462.871 z" fill-opacity="0" stroke="#E08698" stroke-width="1"/>
    </g>
  </g>
</svg>
