<?xml version="1.0" encoding="UTF-8"?>
<!DOCTYPE svg PUBLIC "-//W3C//DTD SVG 1.1//EN" "http://www.w3.org/Graphics/SVG/1.1/DTD/svg11.dtd">
<svg version="1.1" xmlns="http://www.w3.org/2000/svg" xmlns:xlink="http://www.w3.org/1999/xlink" x="0" y="0" width="600" height="600" viewBox="0, 0, 600, 600">
  <g id="Layer_1">
    <path d="M600.088,538.964 L75.14,9.197 L493.115,108.471 L492.598,108.991 L600.088,538.964 z" fill="#FFFFFF"/>
    <path d="M422.382,304.583 L428.963,305.022 L424.592,300.046 L422.382,304.583 z" fill="#F3A433"/>
    <path d="M365.926,282.596 L354.887,294.708 L362.618,302.403 L369.776,297.325 L365.926,282.596 z" fill="#F3A433"/>
    <path d="M238.937,105.671 L250.526,104.053 L236.587,133.771 L238.937,105.671 z M262.194,93.797 L263.022,90.304 L275.739,92.541 L268.006,100.329 L284.909,119.39 L255.976,113.566 L262.194,93.797 z M280.277,149.997 L276.945,146.744 L280.198,143.412 L283.529,146.666 L280.277,149.997 z M263.309,128.011 L273.039,119.441 L274.141,128.939 L263.309,128.011 z M302.649,130.335 L295.185,138.928 L290.476,134.195 L302.649,130.335 z M300.633,177.096 L281.936,160.028 L312.059,157.987 L300.633,177.096 z M323.267,184.332 L317.156,202.945 L313.688,189.915 L323.267,184.332 z M338.969,131.695 L316.743,149.157 L315.507,128.351 L338.969,131.695 z M345.982,156.182 L338.601,165.587 L339.843,155.005 L345.982,156.182 z M345.541,138.58 L349.834,139.34 L349.073,143.634 L344.781,142.873 L345.541,138.58 z M332.156,210.073 L336.88,181.525 L352.537,188.076 L332.156,210.073 z M358.382,220.617 L343.103,220.037 L353.916,212.498 L358.382,220.617 z M390.21,188.996 L409.497,197.512 L359.954,229.818 L390.21,188.996 z M370.259,146.643 L367.251,158.402 L361.39,151.636 L370.259,146.643 z M367.876,102.202 L378.111,128.989 L362.005,133.836 L367.876,102.202 z M383.567,157.883 L390.36,175.66 L379.345,180.633 L383.567,157.883 z M393.74,138.435 L401.21,108.802 L420.017,109.271 L396.553,143.408 L400.89,151.074 L392.777,158.436 L391.533,150.711 L390.128,152.753 L391.187,148.559 L387.892,128.099 L393.74,138.435 z M393.048,188.832 L415.361,144.181 L448.479,158.254 L393.048,188.832 z M456.774,179.463 L461.198,185.497 L455.172,189.929 L450.738,183.896 L456.774,179.463 z M480.514,194.757 L479.784,210.109 L462.849,205.8 L480.514,194.757 z M495.802,164.603 L481.713,176.277 L475.485,167.537 L495.802,164.603 z M483.483,347.484 L490.162,295.144 L500.422,339.295 L483.483,347.484 z M530.667,426.684 L540.899,453.471 L524.79,458.317 L530.667,426.684 z M460.932,257.79 L448.465,241.964 L437.342,249.316 L428.164,237.079 L444.157,236.508 L435.75,225.827 L484.054,230.475 L460.932,257.79 z M435.763,316.956 L471.053,264.401 L471.649,314.314 L435.763,316.956 z M458.7,337.825 C459.012,335.775 460.93,334.365 462.979,334.679 C465.027,334.993 466.435,336.911 466.123,338.962 C465.811,341.014 463.893,342.423 461.845,342.109 C459.786,341.797 458.378,339.878 458.7,337.825 z M448.759,358.341 L467.658,355.101 L468.742,366.295 L448.759,358.341 z M424.917,346.628 L433.505,320.004 L446.028,336.394 L424.917,346.628 z M425.267,251.67 C426.491,249.395 429.326,248.538 431.599,249.761 C433.882,250.983 434.735,253.82 433.512,256.097 C432.288,258.375 429.453,259.229 427.18,258.006 C424.897,256.786 424.044,253.947 425.267,251.67 z M403.393,338.825 L415.221,300.169 L411.981,298.557 L415.32,291.855 L421.034,294.701 L393.592,262.901 L411.373,272.698 L428.586,275.674 L427.162,281.402 L433.292,284.778 L428.658,300.803 L432.216,301.07 L403.393,338.825 z M563.679,475.556 L555.566,482.917 L550.685,452.581 L563.679,475.556 z M114.352,49.076 L114.354,49.067 L151.374,65.962 L136.788,71.778 L173.435,108.86 L178.906,97.669 L211.731,116.784 L193.044,128.701 L213.288,149.186 L217.085,119.419 L225.002,153.495 L242.348,153.216 L245.757,138.87 L262.889,144.281 L256.417,150.801 L257.192,152.976 L285.734,152.517 L262.647,168.292 L266.266,178.449 L267.464,177.623 L266.854,180.101 L271.235,192.399 L263.285,194.595 L262.264,198.743 L266.213,202.739 L276.243,197.942 L276.976,189.638 L286.793,192.896 L288.194,192.226 L288.059,191.252 L288.502,192.079 L297.421,187.811 L293.056,194.975 L299.025,196.956 L294.302,202.899 L308.97,230.263 L322.132,219.518 L338.611,244.75 L308.846,245.878 L319.931,257.094 L327.746,247.742 L325.514,262.744 L344.962,282.422 L350.935,246.321 L374.086,256.008 L379.138,234.154 L389.048,238.677 L400.22,224.07 L392.178,220.291 L416.118,217.672 L418.679,232.75 L405.086,226.359 L410.998,244.716 L403.984,245.494 L416.161,251.049 L371.817,268.728 L389.241,284.014 L401.233,281.255 L390.568,299.164 L389.614,297.067 L376.362,314.195 L376.836,314.675 L407.683,299.829 L390.378,328.378 L392.026,330.046 L397.957,316.142 L407.498,321.062 L393.207,331.24 L414.063,352.347 C414.265,352.129 414.486,351.919 414.727,351.733 C417.017,350.003 420.275,350.455 422.001,352.743 C423.639,354.904 423.301,357.914 421.33,359.701 L450.387,389.098 L462.807,377.378 L462.634,401.495 L477.546,416.583 L491.29,378.598 L491.7,429.408 L490.499,429.689 L532.777,472.466 L532.717,472.406 L545.75,485.598 L548.682,488.56 L548.752,488.626 L603.357,543.884 L606.595,-5.106 L57.605,-8.345 L114.352,49.076" fill="#F3A433"/>
    <path d="M406.791,374.994 L412.38,387.837 L433.525,376.753 L406.791,374.994 z" fill="#F3A433"/>
    <path d="M429.619,404.868 C429.203,402.316 426.799,400.582 424.25,401 C421.701,401.415 419.966,403.82 420.382,406.371 C420.798,408.921 423.202,410.651 425.751,410.237 C428.3,409.822 430.034,407.417 429.619,404.868 z" fill="#F3A433"/>
    <path d="M467.875,443.145 L490.47,445.029 L481.017,426.235 L467.875,443.145 z" fill="#F3A433"/>
    <path d="M270.082,496.715 L276.565,510.65 L287.08,492.657 L270.082,496.715 z" fill="#F3A433"/>
    <path d="M185.642,305.477 L180.664,327.844 L209.431,316.1 L185.642,305.477 z" fill="#F3A433"/>
    <path d="M428.187,594.112 L444.81,582.069 L435.229,577.228 L428.187,594.112 z" fill="#F3A433"/>
    <path d="M241.678,472.502 L253.977,466.43 L246.235,434.296 L241.678,472.502 z" fill="#F3A433"/>
    <path d="M315,521.831 L321.728,525.113 L325.009,518.384 L318.28,515.103 L315,521.831 z" fill="#F3A433"/>
    <path d="M224.678,564 L238.329,562.882 L237.948,543.884 L224.678,564 z" fill="#F3A433"/>
    <path d="M352.799,309.367 L370.133,309.884 L362.618,302.403 L352.799,309.367 z" fill="#F3A433"/>
    <path d="M118.883,130.371 L129.396,112.377 L112.4,116.435 L118.883,130.371 z" fill="#F3A433"/>
    <path d="M107.36,90.962 L137.754,78.554 L115.134,56.036 L107.36,90.962 z" fill="#F3A433"/>
    <path d="M135.994,152.131 L126.414,147.289 L119.367,164.174 L135.994,152.131 z" fill="#F3A433"/>
    <path d="M212.189,177.933 L224.942,171.637 L234.168,195.057 L246.306,186.616 L214.884,155.336 L212.189,177.933 z" fill="#F3A433"/>
    <path d="M143.57,122.862 L140.289,129.589 L147.019,132.872 L150.299,126.143 L143.57,122.862 z" fill="#F3A433"/>
    <path d="M138.778,165.902 L184.894,145.32 L168.422,122.806 L138.778,165.902 z" fill="#F3A433"/>
    <path d="M157.114,284.387 L175.724,275.006 L159.254,269.166 L157.114,284.387 z" fill="#F3A433"/>
    <path d="M159.746,217.646 L137.591,183.512 L112.065,208.597 L159.746,217.646 z" fill="#F3A433"/>
    <path d="M130.575,245.089 L115.478,255.425 L135.978,254.362 L130.575,245.089 z" fill="#F3A433"/>
    <path d="M151.844,237.784 L155.705,244.197 L162.118,240.334 L158.256,233.921 L151.844,237.784 z" fill="#F3A433"/>
    <path d="M190.231,228.782 L208.817,193.809 L170.563,216.419 L190.231,228.782 z" fill="#F3A433"/>
    <path d="M333.168,344.861 L326.809,325.014 L318.468,340.37 L333.168,344.861 z" fill="#F3A433"/>
    <path d="M281.341,285.476 L298.489,316.89 L314.378,285.188 L322.055,301.128 L339.77,295.064 L315.088,283.768 L320.233,273.502 L281.341,285.476 z" fill="#F3A433"/>
    <path d="M359.547,347.158 L359.238,336.54 L330.176,366.008 L360.671,385.879 L359.804,356.024 L360.79,346.675 L359.547,347.158 z" fill="#F3A433"/>
    <path d="M351.018,318.665 L344.082,321.477 L346.895,328.415 L353.832,325.602 L351.018,318.665 z" fill="#F3A433"/>
    <path d="M276.937,246.43 L285.277,215.701 L261.823,228.457 L276.937,246.43 z" fill="#F3A433"/>
    <path d="M217.019,213.724 L215.606,221.074 L222.958,222.489 L224.37,215.138 L217.019,213.724 z" fill="#F3A433"/>
    <path d="M546.623,508.569 L557.592,503.507 L553.106,492.027 L550.079,489.024 L546.623,508.569 z" fill="#F3A433"/>
    <path d="M528.428,479.719 L534.343,486.437 L536.94,475.938 L536.238,475.24 L528.428,479.719 z" fill="#F3A433"/>
    <path d="M482.356,456.81 L483.763,477.605 L505.843,459.964 L482.356,456.81 z" fill="#F3A433"/>
    <path d="M505.76,493.855 L513.059,484.391 L506.916,483.263 L505.76,493.855 z" fill="#F3A433"/>
    <path d="M511.749,471.092 L516.05,471.817 L516.77,467.519 L512.479,466.794 L511.749,471.092 z" fill="#F3A433"/>
    <path d="M388.751,357.122 L384.223,387.741 L399.539,382.514 L388.751,357.122 z" fill="#F3A433"/>
    <path d="M376.494,417.657 C378.125,416.402 378.429,414.064 377.175,412.433 C375.921,410.803 373.583,410.498 371.954,411.751 C370.322,413.006 370.018,415.343 371.272,416.974 C372.526,418.603 374.863,418.911 376.494,417.657 z" fill="#F3A433"/>
    <path d="M255.549,359.583 L279.46,366.241 L294.956,340.336 L255.549,359.583 z" fill="#F3A433"/>
    <path d="M231.451,303.116 L273.909,273.593 L220.333,274.894 L231.451,303.116 z" fill="#F3A433"/>
    <path d="M431.531,467.8 L446.005,447.637 L427.012,424.177 L431.531,467.8 z" fill="#F3A433"/>
    <path d="M343.15,438.239 L358.365,412.95 L326.608,425.725 L343.15,438.239 z" fill="#F3A433"/>
    <path d="M368.285,486.892 L406.272,485.975 L389.839,423.313 L368.285,486.892 z" fill="#F3A433"/>
    <path d="M222.42,364.355 L229.233,389.129 L240.586,353.567 L222.42,364.355 z" fill="#F3A433"/>
    <path d="M270.364,408.446 L277.975,384.609 L265.798,391.839 L270.364,408.446 z" fill="#F3A433"/>
    <path d="M303.681,430.006 L323.202,430.588 L317.416,420.265 L303.681,430.006 z" fill="#F3A433"/>
    <path d="M295.333,380.881 L289.597,417.394 L315.4,389.086 L295.333,380.881 z" fill="#F3A433"/>
  </g>
</svg>
