<?xml version="1.0" encoding="UTF-8"?>
<!DOCTYPE svg PUBLIC "-//W3C//DTD SVG 1.1//EN" "http://www.w3.org/Graphics/SVG/1.1/DTD/svg11.dtd">
<svg version="1.1" xmlns="http://www.w3.org/2000/svg" xmlns:xlink="http://www.w3.org/1999/xlink" x="0" y="0" width="2200" height="500" viewBox="0, 0, 2200, 500">
  <defs>
    <clipPath id="Clip_1">
      <path d="M2202.808,-236.858 L600.815,-236.858 L600.815,648.796 L2202.808,648.796 z"/>
    </clipPath>
  </defs>
  <g id="Layer_1">
    <g clip-path="url(#Clip_1)">
      <path d="M1414.597,607.303 L1411.59,607.303 L1409.035,613.292 L1406.541,607.303 L1403.614,607.303 L1407.385,615.42 L1408.059,616.889 C1408.308,617.382 1408.545,617.758 1408.769,618.017 C1408.993,618.277 1409.252,618.487 1409.544,618.649 C1409.834,618.81 1410.193,618.936 1410.619,619.027 C1411.045,619.116 1411.526,619.161 1412.062,619.161 C1412.606,619.161 1413.139,619.116 1413.662,619.027 L1413.913,617.279 C1413.471,617.348 1413.072,617.382 1412.717,617.382 C1412.059,617.382 1411.572,617.229 1411.258,616.926 C1410.943,616.62 1410.702,616.233 1410.533,615.762 L1414.597,607.303" fill="#FFFFFE"/>
      <path d="M2096.955,251.96 L2096.955,265.095 L2114.818,265.095 L2114.818,258.786 L2123,258.786 L2123,276.295 L2149.182,276.295 L2149.182,251.96 L2096.955,251.96 z M2192.884,241.448 L2191.734,241.448 L2191.734,249.726 L2192.884,249.726 z M2147.509,241.448 L2138.37,241.448 L2138.37,249.726 L2147.509,249.726 z M2136.162,241.448 L2127.024,241.448 L2127.024,249.726 L2136.162,249.726 z M2124.815,241.448 L2115.679,241.448 L2115.679,249.726 L2124.815,249.726 z M2113.47,241.448 L2104.335,241.448 L2104.335,249.726 L2113.47,249.726 z M2102.126,241.448 L2096.956,241.448 L2096.956,249.726 L2102.126,249.726 z M2085.364,261.475 L2085.364,265.095 L2091.966,265.095 L2091.966,256.275 L2085.364,261.475 z M2091.966,241.448 L2085.364,241.448 L2085.364,245.82 L2090.299,249.726 L2091.966,249.726 L2091.966,241.448 z M2091.966,234.816 L2086.406,239.212 L2091.966,239.212 L2091.966,234.816 z M2091.966,213.394 L2081.699,221.479 L2091.966,229.602 L2091.966,213.394 z M2091.966,191.929 L2081.699,200.041 L2091.966,208.156 L2091.966,191.929 z M2091.966,170.501 L2081.699,178.596 L2091.966,186.717 L2091.966,170.501 z M2091.966,149.056 L2081.699,157.154 L2091.966,165.258 L2091.966,149.056 z M2090.457,145.778 L2068.951,145.778 L2068.121,146.414 L2079.699,155.565 L2079.703,155.565 L2091.281,146.414 L2090.457,145.778 z M2067.439,165.258 L2077.706,157.154 L2067.439,149.056 L2067.439,165.258 z M1982.022,215.01 C1961.971,223.967 1940.427,232.062 1917.34,239.212 L1941.349,239.212 L1941.349,237.957 L1971.352,237.957 L1971.352,239.212 L1990.444,239.212 L1990.444,212.535 L2019.356,212.535 L2019.356,239.212 L2041.72,239.212 L2041.72,227.616 L2062.453,227.616 L2062.453,168.494 C2038.916,185.969 2012.155,201.509 1982.022,215.01 z M2062.453,145.8 C2038.937,165.007 2012.205,182.531 1982.105,198.256 C1952.844,213.546 1920.392,227.161 1884.619,239.024 L1884.619,239.212 L1909.498,239.212 C1935.049,231.607 1958.735,222.848 1980.627,213.048 C2011.39,199.284 2038.608,183.386 2062.453,165.423 L2062.453,145.8 z M1886.565,241.448 L1884.619,241.448 L1884.619,249.726 L1886.565,249.726 z M1897.909,241.448 L1888.774,241.448 L1888.774,249.726 L1897.909,249.726 z M1909.26,241.448 L1900.121,241.448 L1900.121,249.726 L1909.26,249.726 z M1920.604,241.448 L1911.472,241.448 L1911.472,249.726 L1920.604,249.726 z M1931.948,241.448 L1922.816,241.448 L1922.816,249.726 L1931.948,249.726 z M1977.327,241.448 L1971.352,241.448 L1971.352,249.726 L1977.327,249.726 z M1941.349,241.448 L1934.158,241.448 L1934.158,249.726 L1941.349,249.726 z M1988.67,241.448 L1979.539,241.448 L1979.539,249.726 L1988.67,249.726 z M1990.444,267.444 L1990.444,251.96 L1971.352,251.96 L1971.352,278.45 L1982.497,278.45 L1982.497,267.444 L1990.444,267.444 z M2022.713,241.448 L2019.356,241.448 L2019.356,249.726 L2022.713,249.726 z M2034.053,241.448 L2024.918,241.448 L2024.918,249.726 L2034.053,249.726 z M2041.72,261.479 L2041.72,251.96 L2019.356,251.96 L2019.356,272.848 L2032.767,272.848 L2032.767,261.479 L2041.72,261.479 z M2041.72,241.448 L2036.263,241.448 L2036.263,249.726 L2041.72,249.726 z M2069.949,227.616 L2077.706,221.479 L2067.439,213.394 L2067.439,227.616 L2069.949,227.616 z M2085.364,251.96 L2085.364,258.334 L2091.281,253.665 L2089.128,251.96 L2085.364,251.96 z M2085.364,249.726 L2086.301,249.726 L2085.364,248.983 L2085.364,249.726 z M2079.699,223.075 L2073.949,227.616 L2085.364,227.616 L2085.364,236.884 L2091.281,232.219 L2079.703,223.075 L2079.699,223.075 z M2079.699,201.628 L2068.121,210.768 L2079.699,219.922 L2079.703,219.922 L2091.281,210.768 L2079.703,201.628 L2079.699,201.628 z M2067.439,191.929 L2067.439,208.146 L2077.706,200.041 L2067.439,191.929 z M2079.699,180.175 L2068.121,189.336 L2079.699,198.458 L2079.703,198.458 L2091.281,189.336 L2079.703,180.175 L2079.699,180.175 z M2067.439,170.501 L2067.439,186.717 L2077.706,178.596 L2067.439,170.501 z M2079.699,177.022 L2079.703,177.022 L2091.281,167.861 L2079.703,158.738 L2079.699,158.738 L2068.121,167.861 L2079.699,177.022 z M1896.194,262.132 L1896.194,273.708 L1901.529,273.708 L1901.529,254.323 L1928.805,254.323 L1928.805,266.108 L1941.349,266.108 L1941.349,251.96 L1884.619,251.96 L1884.619,262.132 L1896.194,262.132 z M1845.883,241.448 L1843.397,241.448 L1843.397,249.726 L1845.883,249.726 z M1840.299,253.665 L1845.883,258.07 L1845.883,251.96 L1842.453,251.96 L1840.299,253.665 z M1841.185,241.448 L1832.055,241.448 L1832.055,249.726 L1841.185,249.726 z M1829.843,241.448 L1820.711,241.448 L1820.711,249.726 L1829.843,249.726 z M1818.499,241.448 L1812.064,241.448 L1812.064,249.726 L1818.499,249.726 z M1841.649,279.312 L1839.617,277.704 L1839.617,279.312 L1841.649,279.312 z M1845.883,267.522 L1845.883,261.213 L1839.617,256.275 L1839.617,272.48 L1845.883,267.522 z M1845.883,279.312 L1845.883,270.692 L1840.299,275.111 L1845.62,279.312 L1845.883,279.312 z M1824.139,268.75 L1824.139,279.312 L1834.632,279.312 L1834.632,251.96 L1812.064,251.96 L1812.064,268.75 L1824.139,268.75 z M1772.789,241.448 L1763.98,241.448 L1763.98,249.726 L1772.789,249.726 z M1761.768,241.448 L1761.54,241.448 L1756.529,244.689 L1756.529,249.726 L1761.768,249.726 L1761.768,241.448 z M1559.282,172.758 L1556.728,172.758 L1556.728,180.501 L1559.282,180.501 z M1559.282,165.947 L1556.728,165.947 L1556.728,170.731 L1559.282,170.731 z M1553.1,172.758 L1550.549,172.758 L1550.549,180.501 L1553.1,180.501 z M1553.1,165.947 L1550.549,165.947 L1550.549,170.731 L1553.1,170.731 z M604.854,298.955 L604.854,281.339 L615.851,281.339 L615.851,271.045 L633.474,271.045 L633.474,281.003 L638.601,281.003 L638.601,276.824 L646.531,276.824 L646.531,281.003 L649.552,281.003 L649.552,283.371 L651.806,283.371 L651.806,283.761 L664.394,283.761 L664.394,267.21 L667.712,267.21 L667.712,229.273 L690.702,229.273 L690.702,267.21 L734.804,267.21 L734.804,231.751 L745.698,231.751 L745.698,162.406 L764.031,162.406 L764.031,170.692 L792.261,170.692 L792.261,164.897 L801.256,164.897 L801.256,139.838 L802.137,139.838 L802.137,140.891 C805.227,142.81 809.232,141.046 811.269,144.019 L811.269,147.703 C808.82,144.094 805.192,145.586 802.137,144.472 L802.137,164.897 L808.076,164.897 L808.076,170.692 L812.63,170.692 L812.63,232.818 L829.246,232.818 L829.246,251.487 L831.775,251.487 L831.775,285.145 L835.986,285.145 L835.986,219.235 L857.236,219.235 L857.236,267.176 L862.843,267.176 L862.843,257.327 L891.189,257.327 L891.189,217.373 L915.46,217.373 L915.46,193.936 L948.176,193.936 L948.176,287.243 L951.449,287.243 L951.449,275.74 L950.991,275.74 L952.593,269.454 L954.138,275.477 L954.138,263.655 L953.429,263.655 L955.031,257.381 L956.438,262.853 L956.827,262.853 L956.827,257.791 L957.983,257.791 L957.983,249.265 L957.342,249.265 L960.546,236.709 L963.762,249.265 L963.121,249.265 L963.121,257.791 L964.265,257.791 L964.265,262.853 L964.666,262.853 L966.051,257.381 L967.675,263.655 L966.955,263.655 L966.955,275.64 L967.161,275.64 L968.74,269.454 L970.365,275.74 L969.644,275.74 L969.644,281.003 L977.666,275.258 L981.602,278.082 L987.93,278.082 L987.93,275.74 L987.484,275.74 L989.086,269.454 L990.608,275.477 L990.608,263.655 L989.91,263.655 L991.512,257.381 L992.919,262.853 L993.308,262.853 L993.308,257.791 L994.464,257.791 L994.464,249.265 L993.823,249.265 L997.039,236.709 L1000.243,249.265 L999.602,249.265 L999.602,257.791 L1000.747,257.791 L1000.747,262.853 L1001.147,262.853 L1002.543,257.381 L1004.157,263.655 L1003.447,263.655 L1003.447,275.64 L1003.665,275.64 L1005.232,269.454 L1006.846,275.74 L1006.136,275.74 L1006.136,283.839 L1012.35,283.839 L1012.35,253.592 L1022.1,253.592 L1022.1,185.355 L1031.998,185.355 L1031.998,183.35 L1039.62,183.35 L1039.62,185.355 L1053.798,185.355 L1053.798,170.097 L1054.873,170.097 L1054.873,185.355 L1062.774,185.355 L1062.774,181.914 L1076.953,181.914 L1076.953,185.355 L1084.583,185.355 L1084.583,257.851 L1088.871,257.851 L1088.871,241.94 L1108.113,241.94 L1108.113,210.712 L1130.147,210.712 L1130.147,55.938 L1138.771,55.938 L1138.771,45.715 L1215.041,45.715 L1215.041,55.938 L1223.667,55.938 L1223.667,208.521 L1251.339,208.521 L1251.339,210.611 L1266.169,210.611 L1266.169,213.784 L1271.707,213.784 L1271.707,215.806 L1276.223,215.806 L1276.223,222.684 L1274.333,222.684 L1274.333,298.955 L1279.679,298.955 L1279.679,260.222 L1291.903,260.222 L1291.903,181.444 L1297.657,181.444 L1297.657,179.04 L1339.032,179.04 L1339.032,181.444 L1344.787,181.444 L1344.787,276.818 L1364.924,276.818 L1364.924,259.184 L1374.799,259.184 L1381.892,215.378 L1381.892,125.879 L1395.267,118.131 L1402.039,46.016 L1408.813,118.131 L1422.192,125.879 L1422.192,215.378 L1430.836,268.807 L1430.836,170.429 L1449.745,170.429 L1449.745,166.055 L1463.48,166.055 L1463.48,153.103 L1466.97,153.103 L1466.97,134.801 L1469.432,134.801 L1469.432,170.429 L1476.288,170.429 L1476.288,134.801 L1478.746,134.801 L1478.746,153.103 L1482.229,153.103 L1482.229,166.055 L1495.974,166.055 L1495.974,170.429 L1520.899,170.429 L1520.899,251.724 L1535.375,251.724 L1535.375,280.713 L1540.336,280.713 L1540.336,298.955 L1542.675,298.955 L1542.675,277.492 L1546.38,277.492 L1546.38,182.752 L1548.266,182.752 L1548.266,164.252 L1565.083,164.252 L1565.083,182.752 L1566.965,182.752 L1566.965,277.492 L1577.025,277.492 L1577.025,242.23 L1583.329,242.23 L1583.329,163.412 L1671.872,163.412 L1671.872,157.825 L1675.691,157.825 L1675.691,156.531 L1698.595,156.531 L1698.595,151.794 L1699.691,151.794 L1699.691,156.531 L1710.057,156.531 L1710.057,157.825 L1718.235,157.825 L1718.235,254.204 L1727.201,254.204 L1727.201,212.471 L1756.529,212.471 L1756.529,241.799 L1760.145,239.48 L1760.547,239.212 L1772.789,239.212 L1772.789,211.243 L1812.064,211.243 L1812.064,239.212 L1845.883,239.212 L1845.883,217.707 L1884.619,217.707 L1884.619,236.611 C1919.792,224.893 1951.729,211.446 1980.547,196.398 C2011.346,180.307 2038.592,162.346 2062.453,142.586 L2062.453,139.212 L2067.439,139.212 L2067.439,141.839 L2091.966,141.839 L2091.966,139.212 L2096.955,139.212 L2096.955,142.586 C2120.813,162.346 2148.064,180.307 2178.858,196.398 C2186.639,200.456 2194.642,204.394 2202.876,208.219 L2202.876,210.818 C2194.096,206.753 2185.568,202.566 2177.301,198.256 C2147.198,182.531 2120.467,165.007 2096.955,145.8 L2096.955,165.423 C2120.791,183.386 2148.011,199.284 2178.772,213.048 C2186.58,216.572 2194.618,219.922 2202.876,223.131 L2202.876,225.616 C2194.125,222.217 2185.628,218.684 2177.384,215.01 C2147.253,201.509 2120.492,185.969 2096.955,168.494 L2096.955,239.212 L2149.182,239.212 L2149.182,224.599 L2191.733,224.599 L2191.733,239.212 L2202.876,239.212 L2202.876,241.448 L2195.102,241.448 L2195.102,249.726 L2202.876,249.726 L2202.876,251.96 L2191.733,251.96 L2191.733,270.082 L2198.671,270.082 L2198.671,298.955 L2202.876,298.955 L2202.876,366.223 L600.815,366.223 L600.815,298.955 L604.854,298.955" fill="#EBEBEB"/>
    </g>
    <path d="M302.358,333.623 L2214.927,333.623 L2214.927,594.664 L302.358,594.664 L302.358,333.623 z" fill="#EBEBEB"/>
    <path d="M171.67,531.783 L763.617,531.783 C763.617,531.783 718.445,452.831 715.626,440.937 C712.799,429.04 677.04,343.601 670.452,338.193 C663.861,332.786 656.336,317.643 656.336,317.643 C656.336,317.643 633.748,372.804 630.927,374.964 C628.102,377.124 622.457,385.777 622.457,385.777 C622.457,385.777 597.048,307.909 586.696,299.257 C576.343,290.604 569.751,270.054 560.342,251.667 C550.928,233.284 514.23,154.332 514.23,154.332 L506.697,160.821 L495.406,143.516 C495.406,143.516 477.524,186.779 475.642,193.268 C473.763,199.758 467.172,211.652 463.411,222.468 C459.645,233.284 447.409,268.976 437.057,278.707 C426.706,288.441 408.827,316.562 408.827,316.562 C408.827,316.562 398.475,294.93 393.768,281.951 C389.066,268.973 374.946,250.592 369.3,244.099 C363.657,237.61 352.36,254.915 346.712,263.568 C341.066,272.22 335.421,283.033 329.775,288.441 C324.128,293.849 310.012,308.988 307.187,319.804 C304.367,330.619 294.955,347.925 285.542,358.74 C276.133,369.556 247.897,397.674 243.19,408.49 C238.486,419.306 237.547,443.097 229.074,453.913 C220.608,464.729 181.081,513.4 171.67,531.783" fill="#EBEBEB"/>
  </g>
</svg>
