<?xml version="1.0" encoding="UTF-8"?>
<!DOCTYPE svg PUBLIC "-//W3C//DTD SVG 1.1//EN" "http://www.w3.org/Graphics/SVG/1.1/DTD/svg11.dtd">
<svg version="1.1" xmlns="http://www.w3.org/2000/svg" xmlns:xlink="http://www.w3.org/1999/xlink" x="0" y="0" width="500" height="400" viewBox="0, 0, 500, 400">
  <g id="Layer_1">
    <path d="M440.073,374.488 C440.073,376.829 354.975,378.726 250,378.726 C145.025,378.726 59.927,376.829 59.927,374.488 C59.927,372.147 145.025,370.25 250,370.25 C354.975,370.25 440.073,372.147 440.073,374.488" fill="#E4E8E8"/>
    <path d="M435.396,373.488 C426.968,355.726 393.717,339.579 413.694,317.153 C433.673,294.727 370.02,269.641 399.214,248.613 C431.376,225.447 414.746,192.389 435.396,192.389 L435.396,373.488" fill="#FFFFFE"/>
    <g>
      <path d="M435.396,373.488 L435.848,373.273 C432.51,366.258 425.483,359.611 419.321,352.764 C416.24,349.344 413.374,345.882 411.29,342.335 C409.205,338.786 407.904,335.166 407.904,331.406 C407.907,327.051 409.638,322.463 414.068,317.485 C416.937,314.271 418.156,310.935 418.152,307.584 C418.149,303.593 416.459,299.621 413.976,295.672 C410.247,289.749 404.703,283.843 400.11,278.032 C395.508,272.224 391.904,266.516 391.917,261.153 C391.919,259.088 392.436,257.064 393.639,255.044 C394.842,253.025 396.739,251.012 399.506,249.019 C415.724,237.347 419.669,223.099 422.111,211.92 C423.331,206.33 424.203,201.497 425.995,198.151 C426.89,196.477 427.997,195.178 429.489,194.283 C430.981,193.39 432.88,192.889 435.396,192.889 L435.396,192.389 L434.896,192.389 L434.896,373.488 L435.396,373.488 L435.848,373.273 L435.396,373.488 L435.896,373.488 L435.896,191.889 L435.396,191.889 C432.75,191.888 430.651,192.42 428.975,193.426 C427.508,194.303 426.379,195.536 425.484,197.026 C423.916,199.637 423.03,203.036 422.162,206.945 C420.866,212.808 419.628,219.827 416.43,227.027 C413.231,234.225 408.083,241.606 398.922,248.207 C396.072,250.26 394.071,252.367 392.78,254.532 C391.488,256.696 390.916,258.919 390.917,261.153 C390.92,265.031 392.613,268.915 395.095,272.805 C398.824,278.639 404.366,284.521 408.958,290.375 C413.558,296.226 417.164,302.039 417.152,307.584 C417.148,310.692 416.053,313.747 413.321,316.82 C408.774,321.919 406.902,326.774 406.904,331.406 C406.905,335.402 408.286,339.197 410.428,342.841 C413.644,348.309 418.576,353.467 423.302,358.551 C428.029,363.631 432.546,368.639 434.945,373.702 L435.896,375.708 L435.896,373.488 L435.396,373.488" fill="#B8C1C6"/>
      <path d="M435.396,373.488 C443.824,355.726 477.076,339.579 457.098,317.153 C437.119,294.727 500.772,269.641 471.578,248.613 C439.416,225.447 456.046,192.389 435.396,192.389 L435.396,373.488" fill="#FFFFFE"/>
    </g>
    <path d="M435.396,373.488 L435.848,373.702 C439.045,366.947 446.013,360.308 452.214,353.434 C455.313,349.993 458.221,346.487 460.364,342.842 C462.506,339.197 463.888,335.402 463.888,331.407 C463.891,326.774 462.018,321.92 457.471,316.82 C454.739,313.747 453.644,310.692 453.64,307.584 C453.637,303.886 455.226,300.074 457.662,296.205 C461.312,290.401 466.836,284.506 471.466,278.652 C476.087,272.794 479.861,266.973 479.875,261.153 C479.876,258.919 479.304,256.696 478.012,254.532 C476.721,252.367 474.72,250.26 471.87,248.207 C455.926,236.713 452.105,222.848 449.658,211.707 C448.435,206.137 447.582,201.258 445.68,197.681 C444.727,195.894 443.495,194.429 441.818,193.426 C440.141,192.42 438.042,191.888 435.396,191.889 L434.896,191.889 L434.896,375.708 L435.848,373.702 L435.396,373.488 L435.896,373.488 L435.896,192.389 L435.396,192.389 L435.396,192.889 C437.913,192.89 439.811,193.39 441.304,194.283 C442.609,195.066 443.619,196.158 444.452,197.541 C445.91,199.959 446.795,203.274 447.653,207.161 C448.945,212.991 450.192,220.101 453.448,227.432 C456.703,234.765 461.979,242.317 471.286,249.019 C474.053,251.012 475.95,253.026 477.153,255.044 C478.356,257.064 478.874,259.088 478.875,261.153 C478.878,264.73 477.291,268.455 474.854,272.267 C471.204,277.984 465.679,283.859 461.047,289.758 C456.425,295.66 452.652,301.596 452.64,307.584 C452.636,310.935 453.855,314.271 456.724,317.485 C461.154,322.463 462.885,327.051 462.888,331.407 C462.888,335.166 461.587,338.786 459.502,342.335 C456.376,347.656 451.491,352.783 446.758,357.87 C442.028,362.961 437.447,368.009 434.945,373.273 L435.396,373.488 L435.896,373.488 L435.396,373.488" fill="#B8C1C6"/>
    <path d="M435.896,360.989 C435.898,354.659 434.115,349.571 431.44,345.535 C427.426,339.477 421.438,335.782 416.466,333.592 C411.492,331.401 407.521,330.714 407.494,330.709 L407.324,331.694 C407.324,331.694 407.424,331.712 407.624,331.752 C409.124,332.055 415.989,333.631 422.432,338.003 C425.655,340.188 428.771,343.067 431.079,346.827 C433.387,350.588 434.895,355.23 434.896,360.989 L435.896,360.989" fill="#B8C1C6"/>
    <path d="M435.896,306.814 C435.895,293.507 429.6,281.737 421.14,273.298 C412.675,264.86 402.048,259.715 393.207,259.706 C392.587,259.706 391.975,259.732 391.374,259.784 L391.46,260.78 C392.031,260.731 392.614,260.706 393.207,260.706 C401.661,260.697 412.129,265.711 420.434,274.006 C428.746,282.298 434.898,293.832 434.896,306.814 L435.896,306.814" fill="#B8C1C6"/>
    <path d="M435.896,255.207 C435.896,226.882 421.752,212.764 421.696,212.711 L420.99,213.419 L421.025,213.455 C421.793,214.248 434.896,228.106 434.896,255.207 L435.896,255.207" fill="#B8C1C6"/>
    <path d="M435.896,360.989 C435.898,354.846 437.614,349.974 440.186,346.087 C444.043,340.259 449.862,336.649 454.729,334.507 C457.162,333.435 459.353,332.731 460.933,332.295 C461.723,332.077 462.36,331.926 462.798,331.83 C463.017,331.782 463.186,331.748 463.3,331.726 C463.413,331.704 463.468,331.694 463.468,331.694 L463.298,330.709 C463.262,330.717 456.215,331.933 449.127,336.316 C445.583,338.508 442.027,341.497 439.352,345.535 C436.677,349.571 434.895,354.659 434.896,360.989 L435.896,360.989" fill="#B8C1C6"/>
    <path d="M435.896,306.814 C435.895,293.832 442.047,282.298 450.358,274.006 C458.663,265.711 469.131,260.697 477.585,260.706 C478.178,260.706 478.76,260.731 479.332,260.78 L479.418,259.784 C478.817,259.732 478.205,259.706 477.585,259.706 C468.744,259.715 458.118,264.86 449.652,273.298 C441.193,281.737 434.898,293.507 434.896,306.814 L435.896,306.814" fill="#B8C1C6"/>
    <path d="M435.896,255.207 C435.897,241.216 439.387,230.761 442.87,223.804 C444.612,220.325 446.352,217.722 447.653,215.992 C448.304,215.127 448.845,214.48 449.221,214.051 C449.409,213.837 449.556,213.677 449.655,213.572 L449.767,213.455 L449.802,213.419 L449.096,212.711 C449.04,212.764 434.897,226.882 434.896,255.207 L435.896,255.207" fill="#B8C1C6"/>
    <path d="M64.604,373.488 C73.032,355.726 106.284,339.579 86.305,317.153 C66.327,294.727 129.98,269.641 100.786,248.613 C68.624,225.447 85.254,192.389 64.604,192.389 L64.604,373.488" fill="#FFFFFE"/>
    <g>
      <path d="M64.604,373.488 L65.056,373.702 C68.253,366.947 75.221,360.308 81.422,353.434 C84.521,349.993 87.428,346.487 89.572,342.842 C91.714,339.198 93.095,335.402 93.095,331.407 C93.098,326.774 91.226,321.92 86.678,316.82 C83.946,313.747 82.851,310.692 82.847,307.584 C82.845,303.886 84.434,300.074 86.87,296.205 C90.519,290.401 96.044,284.506 100.674,278.652 C105.295,272.794 109.069,266.973 109.083,261.153 C109.084,258.919 108.512,256.696 107.22,254.532 C105.929,252.367 103.928,250.26 101.078,248.207 C85.134,236.713 81.313,222.848 78.866,211.707 C77.643,206.137 76.79,201.258 74.887,197.681 C73.935,195.894 72.702,194.429 71.025,193.426 C69.349,192.42 67.25,191.888 64.604,191.889 L64.104,191.889 L64.104,375.708 L65.056,373.702 L64.604,373.488 L65.104,373.488 L65.104,192.389 L64.604,192.389 L64.604,192.889 C67.12,192.89 69.019,193.39 70.511,194.283 C71.817,195.066 72.826,196.158 73.66,197.541 C75.118,199.959 76.003,203.274 76.861,207.161 C78.153,212.991 79.4,220.101 82.656,227.432 C85.911,234.765 91.187,242.317 100.494,249.019 C103.261,251.012 105.158,253.025 106.361,255.044 C107.564,257.064 108.081,259.088 108.083,261.153 C108.086,264.729 106.499,268.455 104.062,272.267 C100.412,277.984 94.886,283.859 90.255,289.758 C85.632,295.66 81.86,301.596 81.848,307.584 C81.844,310.935 83.063,314.271 85.932,317.485 C90.361,322.463 92.093,327.051 92.095,331.407 C92.096,335.166 90.795,338.787 88.71,342.335 C85.584,347.656 80.699,352.783 75.966,357.87 C71.235,362.961 66.654,368.009 64.152,373.273 L64.604,373.488 L65.104,373.488 L64.604,373.488" fill="#B8C1C6"/>
      <path d="M64.604,373.488 C56.176,355.726 22.924,339.579 42.903,317.153 C62.881,294.727 -0.772,269.641 28.422,248.613 C60.583,225.447 43.954,192.389 64.604,192.389 L64.604,373.488" fill="#FFFFFE"/>
    </g>
    <path d="M64.604,373.488 L65.056,373.273 C61.718,366.258 54.691,359.611 48.529,352.764 C45.448,349.345 42.582,345.882 40.498,342.335 C38.413,338.787 37.112,335.166 37.112,331.407 C37.115,327.051 38.846,322.463 43.276,317.485 C46.145,314.271 47.364,310.935 47.36,307.584 C47.358,303.594 45.667,299.621 43.184,295.672 C39.455,289.75 33.911,283.844 29.318,278.032 C24.716,272.224 21.112,266.516 21.125,261.153 C21.126,259.088 21.644,257.064 22.847,255.044 C24.05,253.026 25.947,251.012 28.714,249.019 C44.932,237.347 48.877,223.099 51.318,211.92 C52.539,206.33 53.411,201.497 55.203,198.151 C56.098,196.477 57.205,195.178 58.697,194.283 C60.189,193.39 62.087,192.89 64.604,192.889 L64.604,192.389 L64.104,192.389 L64.104,373.488 L64.604,373.488 L65.056,373.273 L64.604,373.488 L65.104,373.488 L65.104,191.889 L64.604,191.889 C61.958,191.888 59.859,192.42 58.183,193.426 C56.716,194.304 55.587,195.536 54.691,197.026 C53.124,199.637 52.238,203.036 51.37,206.945 C50.073,212.808 48.836,219.827 45.638,227.027 C42.439,234.225 37.291,241.606 28.13,248.207 C25.28,250.26 23.279,252.367 21.988,254.532 C20.696,256.696 20.124,258.919 20.125,261.153 C20.128,265.031 21.82,268.915 24.303,272.805 C28.032,278.639 33.574,284.522 38.166,290.376 C42.766,296.226 46.372,302.039 46.36,307.584 C46.357,310.692 45.262,313.747 42.529,316.82 C37.982,321.92 36.11,326.774 36.113,331.407 C36.113,335.402 37.494,339.198 39.636,342.842 C42.852,348.309 47.784,353.467 52.509,358.551 C57.236,363.631 61.753,368.639 64.152,373.702 L65.104,375.708 L65.104,373.488 L64.604,373.488" fill="#B8C1C6"/>
    <path d="M65.104,360.989 C65.105,354.846 66.821,349.974 69.394,346.087 C73.251,340.259 79.07,336.649 83.937,334.507 C86.37,333.435 88.561,332.731 90.141,332.295 C90.931,332.077 91.568,331.926 92.006,331.83 C92.225,331.782 92.394,331.748 92.508,331.726 C92.621,331.704 92.676,331.694 92.676,331.694 L92.506,330.709 C92.47,330.717 85.423,331.933 78.334,336.316 C74.791,338.508 71.235,341.497 68.56,345.535 C65.885,349.571 64.102,354.659 64.104,360.989 L65.104,360.989" fill="#B8C1C6"/>
    <path d="M65.104,306.814 C65.102,293.832 71.255,282.298 79.566,274.006 C87.871,265.711 98.339,260.697 106.793,260.706 C107.385,260.706 107.968,260.731 108.539,260.78 L108.626,259.784 C108.024,259.732 107.413,259.706 106.793,259.706 C97.952,259.715 87.325,264.86 78.86,273.298 C70.4,281.737 64.106,293.507 64.104,306.814 L65.104,306.814" fill="#B8C1C6"/>
    <path d="M65.104,255.207 C65.104,241.216 68.595,230.761 72.078,223.804 C73.819,220.325 75.56,217.722 76.861,215.992 C77.512,215.127 78.053,214.48 78.429,214.051 C78.617,213.837 78.764,213.677 78.863,213.572 L78.975,213.455 L79.01,213.419 L78.304,212.711 C78.248,212.764 64.104,226.882 64.104,255.207 L65.104,255.207" fill="#B8C1C6"/>
    <path d="M65.104,360.989 C65.105,354.659 63.323,349.571 60.648,345.535 C56.634,339.477 50.646,335.782 45.674,333.592 C40.7,331.401 36.729,330.714 36.702,330.709 L36.532,331.694 C36.532,331.694 36.632,331.712 36.832,331.752 C38.332,332.055 45.197,333.631 51.64,338.003 C54.863,340.188 57.978,343.067 60.286,346.827 C62.594,350.588 64.103,355.23 64.104,360.989 L65.104,360.989" fill="#B8C1C6"/>
    <path d="M65.104,306.814 C65.102,293.507 58.808,281.737 50.348,273.298 C41.882,264.86 31.256,259.715 22.415,259.706 C21.795,259.706 21.183,259.732 20.582,259.784 L20.668,260.78 C21.239,260.731 21.822,260.706 22.415,260.706 C30.869,260.697 41.337,265.711 49.642,274.006 C57.953,282.298 64.105,293.832 64.104,306.814 L65.104,306.814" fill="#B8C1C6"/>
    <path d="M65.104,255.207 C65.104,226.882 50.96,212.764 50.904,212.711 L50.198,213.419 L50.233,213.455 C51.001,214.248 64.104,228.106 64.104,255.207 L65.104,255.207" fill="#B8C1C6"/>
    <path d="M99.937,157.022 C89.045,158.394 79.886,149.235 81.258,138.343 C82.193,130.922 88.186,124.929 95.607,123.994 C106.5,122.621 115.659,131.781 114.286,142.673 C113.351,150.094 107.358,156.086 99.937,157.022 z M128.666,140.508 C128.666,138.634 128.495,136.801 128.173,135.021 C127.975,133.924 128.498,132.825 129.463,132.268 L133.76,129.787 C135.036,129.051 135.473,127.419 134.736,126.144 L128.694,115.678 C127.958,114.402 126.326,113.965 125.051,114.702 L120.748,117.186 C119.782,117.744 118.568,117.647 117.718,116.927 C114.931,114.566 111.721,112.692 108.216,111.433 C107.169,111.057 106.482,110.053 106.482,108.941 L106.482,103.981 C106.482,102.508 105.288,101.314 103.815,101.314 L91.73,101.314 C90.257,101.314 89.063,102.508 89.063,103.981 L89.063,108.941 C89.063,110.053 88.375,111.057 87.328,111.433 C83.824,112.692 80.614,114.566 77.826,116.927 C76.976,117.647 75.762,117.744 74.797,117.186 L70.494,114.702 C69.218,113.965 67.587,114.402 66.851,115.678 L60.808,126.144 C60.072,127.419 60.509,129.05 61.784,129.787 L66.081,132.268 C67.047,132.825 67.569,133.924 67.371,135.021 C67.05,136.801 66.879,138.634 66.879,140.508 C66.879,142.381 67.05,144.214 67.371,145.995 C67.569,147.092 67.046,148.19 66.081,148.748 L61.784,151.229 C60.509,151.965 60.072,153.596 60.808,154.872 L66.851,165.337 C67.587,166.613 69.218,167.05 70.494,166.314 L74.797,163.829 C75.762,163.272 76.976,163.369 77.826,164.089 C80.613,166.449 83.823,168.323 87.328,169.583 C88.375,169.959 89.062,170.962 89.062,172.074 L89.062,177.035 C89.062,178.507 90.257,179.702 91.729,179.702 L103.814,179.702 C105.288,179.702 106.482,178.507 106.482,177.035 L106.482,172.074 C106.482,170.962 107.169,169.959 108.216,169.583 C111.721,168.323 114.931,166.449 117.718,164.089 C118.568,163.369 119.782,163.272 120.747,163.829 L125.051,166.314 C126.326,167.05 127.958,166.613 128.694,165.337 L134.736,154.872 C135.473,153.596 135.036,151.965 133.76,151.229 L129.463,148.748 C128.498,148.19 127.975,147.092 128.173,145.995 C128.495,144.214 128.666,142.381 128.666,140.508" fill="#FFFFFE"/>
    <path d="M99.937,157.022 L99.874,156.526 C99.165,156.615 98.463,156.659 97.773,156.659 C93.311,156.658 89.276,154.852 86.352,151.928 C83.429,149.004 81.622,144.969 81.622,140.508 C81.622,139.817 81.665,139.115 81.754,138.406 C82.657,131.216 88.48,125.393 95.67,124.49 C96.379,124.4 97.081,124.357 97.772,124.357 C102.234,124.357 106.268,126.164 109.192,129.087 C112.116,132.012 113.923,136.046 113.923,140.508 C113.923,141.199 113.88,141.901 113.79,142.61 C112.887,149.8 107.064,155.623 99.874,156.526 L99.999,157.518 C107.651,156.55 113.814,150.387 114.782,142.735 C114.877,141.984 114.923,141.241 114.923,140.508 C114.923,131.035 107.244,123.357 97.772,123.357 C97.039,123.357 96.296,123.403 95.545,123.498 C87.893,124.466 81.73,130.628 80.762,138.281 C80.668,139.032 80.622,139.775 80.622,140.508 C80.622,149.98 88.3,157.658 97.773,157.659 C98.505,157.659 99.248,157.613 99.999,157.518 L99.937,157.022 z M128.666,140.508 L129.166,140.508 C129.166,138.604 128.992,136.741 128.665,134.932 C128.643,134.806 128.632,134.681 128.632,134.557 C128.631,133.804 129.039,133.09 129.713,132.701 L134.01,130.22 C135.025,129.634 135.595,128.568 135.594,127.475 C135.594,126.938 135.457,126.391 135.169,125.894 L129.127,115.428 C128.54,114.413 127.475,113.843 126.382,113.844 C125.845,113.844 125.298,113.981 124.801,114.269 L120.498,116.753 C120.159,116.948 119.785,117.045 119.412,117.045 C118.918,117.045 118.433,116.876 118.041,116.545 C115.209,114.147 111.947,112.242 108.385,110.963 C107.542,110.661 106.982,109.847 106.982,108.941 L106.982,103.981 C106.982,102.231 105.564,100.814 103.815,100.814 L91.73,100.814 C89.981,100.814 88.563,102.232 88.563,103.981 L88.563,108.941 C88.563,109.847 88.002,110.661 87.159,110.963 C83.597,112.242 80.335,114.147 77.503,116.545 C77.112,116.876 76.626,117.045 76.133,117.045 C75.76,117.045 75.385,116.948 75.047,116.753 L70.744,114.269 C70.246,113.982 69.7,113.844 69.163,113.844 C68.07,113.843 67.004,114.413 66.418,115.428 L60.375,125.894 C60.088,126.391 59.95,126.938 59.95,127.475 C59.95,128.568 60.519,129.633 61.534,130.22 L65.832,132.701 C66.506,133.09 66.913,133.804 66.913,134.557 C66.913,134.681 66.902,134.806 66.879,134.932 C66.553,136.741 66.379,138.604 66.379,140.508 C66.379,142.412 66.553,144.275 66.879,146.084 C66.902,146.21 66.913,146.335 66.913,146.459 C66.913,147.211 66.506,147.926 65.831,148.315 L61.534,150.796 C60.519,151.382 59.95,152.448 59.95,153.541 C59.95,154.078 60.088,154.624 60.375,155.122 L66.418,165.587 C67.004,166.603 68.07,167.172 69.163,167.171 C69.7,167.172 70.246,167.034 70.744,166.746 L75.047,164.262 C75.385,164.067 75.76,163.971 76.132,163.971 C76.626,163.971 77.112,164.139 77.503,164.47 C80.335,166.869 83.597,168.773 87.159,170.053 C88.002,170.355 88.562,171.169 88.562,172.074 L88.562,177.035 C88.563,178.784 89.98,180.201 91.729,180.202 L103.814,180.202 C105.564,180.201 106.982,178.784 106.982,177.035 L106.982,172.074 C106.982,171.169 107.542,170.355 108.385,170.053 C111.947,168.773 115.209,166.869 118.041,164.471 C118.433,164.139 118.918,163.971 119.412,163.971 C119.784,163.971 120.159,164.067 120.497,164.262 L124.801,166.747 C125.298,167.034 125.844,167.172 126.382,167.172 C127.475,167.172 128.541,166.603 129.127,165.587 L135.169,155.122 C135.457,154.624 135.594,154.078 135.594,153.541 C135.595,152.448 135.025,151.382 134.01,150.796 L129.713,148.315 C129.038,147.925 128.631,147.212 128.632,146.459 C128.632,146.335 128.643,146.21 128.665,146.084 C128.992,144.275 129.166,142.412 129.166,140.508 L128.166,140.508 C128.166,142.351 127.997,144.154 127.681,145.906 C127.648,146.091 127.632,146.276 127.632,146.459 C127.632,147.572 128.23,148.613 129.213,149.181 L133.51,151.662 C134.206,152.063 134.593,152.79 134.594,153.541 C134.594,153.909 134.501,154.279 134.303,154.622 L128.261,165.087 C127.859,165.784 127.132,166.171 126.382,166.172 C126.014,166.171 125.643,166.079 125.301,165.881 L120.997,163.396 C120.505,163.112 119.957,162.971 119.412,162.971 C118.691,162.97 117.972,163.218 117.395,163.707 C114.652,166.03 111.495,167.873 108.047,169.112 C106.797,169.562 105.982,170.756 105.982,172.074 L105.982,177.035 C105.98,178.231 105.011,179.2 103.814,179.202 L91.729,179.202 C90.533,179.2 89.565,178.231 89.563,177.035 L89.563,172.074 C89.563,170.756 88.748,169.562 87.497,169.112 C84.049,167.873 80.892,166.03 78.149,163.707 C77.572,163.218 76.853,162.97 76.132,162.971 C75.588,162.971 75.039,163.112 74.547,163.396 L70.244,165.881 C69.901,166.078 69.53,166.171 69.163,166.172 C68.413,166.171 67.685,165.784 67.284,165.087 L61.241,154.622 C61.043,154.279 60.951,153.909 60.95,153.541 C60.951,152.79 61.339,152.063 62.034,151.662 L66.331,149.181 C67.314,148.613 67.912,147.572 67.913,146.459 C67.913,146.276 67.896,146.091 67.863,145.906 C67.547,144.154 67.379,142.351 67.379,140.508 C67.379,138.665 67.547,136.862 67.863,135.109 C67.896,134.925 67.913,134.74 67.913,134.557 C67.912,133.444 67.314,132.403 66.331,131.835 L62.034,129.354 C61.338,128.952 60.951,128.225 60.95,127.475 C60.951,127.107 61.043,126.736 61.241,126.394 L67.284,115.928 C67.685,115.232 68.413,114.845 69.163,114.844 C69.531,114.844 69.901,114.937 70.244,115.135 L74.547,117.619 C75.04,117.904 75.588,118.045 76.133,118.045 C76.853,118.045 77.572,117.797 78.149,117.308 C80.892,114.986 84.05,113.142 87.497,111.904 C88.748,111.454 89.563,110.26 89.563,108.941 L89.563,103.981 C89.565,102.784 90.533,101.816 91.73,101.814 L103.815,101.814 C105.011,101.816 105.98,102.784 105.982,103.981 L105.982,108.941 C105.982,110.26 106.797,111.454 108.047,111.904 C111.495,113.142 114.653,114.986 117.395,117.308 C117.972,117.797 118.691,118.045 119.412,118.045 C119.957,118.045 120.505,117.904 120.998,117.619 L125.301,115.135 C125.643,114.937 126.014,114.844 126.382,114.844 C127.132,114.845 127.859,115.232 128.261,115.928 L134.303,126.394 C134.501,126.737 134.594,127.107 134.594,127.475 C134.593,128.225 134.206,128.953 133.51,129.354 L129.213,131.835 C128.23,132.403 127.632,133.444 127.632,134.557 C127.632,134.74 127.648,134.925 127.681,135.11 C127.998,136.862 128.166,138.665 128.166,140.508 L128.666,140.508" fill="#B8C1C6"/>
    <path d="M132.935,84.777 C120.929,79.533 117.13,64.548 125.189,54.218 C130.68,47.18 140.484,44.695 148.665,48.268 C160.671,53.511 164.47,68.497 156.411,78.827 C150.92,85.865 141.115,88.35 132.935,84.777 z M172.477,85.388 C173.622,83.467 174.565,81.483 175.323,79.461 C175.79,78.215 176.997,77.408 178.326,77.426 L184.248,77.506 C186.005,77.53 187.449,76.125 187.473,74.367 L187.668,59.945 C187.692,58.188 186.287,56.744 184.529,56.72 L178.6,56.64 C177.27,56.622 176.084,55.781 175.652,54.523 C174.235,50.401 172.088,46.52 169.264,43.088 C168.42,42.063 168.328,40.614 169.007,39.474 L172.036,34.388 C172.936,32.877 172.44,30.924 170.93,30.025 L158.539,22.645 C157.028,21.745 155.075,22.24 154.175,23.75 L151.146,28.836 C150.467,29.977 149.149,30.586 147.846,30.333 C143.483,29.483 139.048,29.445 134.749,30.163 C133.437,30.382 132.133,29.74 131.484,28.579 L128.588,23.404 C127.73,21.87 125.791,21.322 124.257,22.18 L111.67,29.222 C110.136,30.08 109.588,32.019 110.446,33.553 L113.337,38.721 C113.987,39.882 113.852,41.328 112.979,42.331 C111.562,43.961 110.267,45.736 109.123,47.657 C107.979,49.578 107.035,51.562 106.277,53.584 C105.811,54.83 104.604,55.637 103.274,55.619 L97.352,55.539 C95.595,55.515 94.151,56.92 94.127,58.678 L93.932,73.099 C93.908,74.857 95.313,76.301 97.071,76.325 L103,76.405 C104.331,76.423 105.516,77.264 105.948,78.522 C107.365,82.644 109.512,86.525 112.336,89.957 C113.18,90.982 113.272,92.431 112.593,93.571 L109.564,98.657 C108.665,100.168 109.16,102.121 110.67,103.021 L123.062,110.4 C124.572,111.3 126.525,110.805 127.425,109.294 L130.454,104.209 C131.133,103.068 132.451,102.459 133.754,102.712 C138.117,103.562 142.553,103.6 146.852,102.882 C148.164,102.663 149.467,103.305 150.116,104.465 L153.012,109.641 C153.87,111.175 155.809,111.723 157.343,110.865 L169.93,103.823 C171.464,102.965 172.012,101.026 171.154,99.492 L168.263,94.324 C167.613,93.163 167.749,91.717 168.621,90.714 C170.039,89.084 171.333,87.309 172.477,85.388" fill="#FFFFFE"/>
    <path d="M132.935,84.777 L133.135,84.319 C125.636,81.043 121.427,73.881 121.425,66.504 C121.426,62.359 122.754,58.153 125.583,54.526 C129.29,49.773 135.028,47.146 140.855,47.146 C143.431,47.146 146.022,47.659 148.465,48.726 C155.964,52.002 160.173,59.164 160.175,66.541 C160.174,70.686 158.846,74.892 156.017,78.519 C152.31,83.272 146.573,85.899 140.745,85.898 C138.17,85.898 135.578,85.386 133.135,84.319 L132.735,85.235 C135.308,86.359 138.037,86.898 140.745,86.898 C146.87,86.898 152.897,84.142 156.805,79.134 C159.774,75.33 161.175,70.899 161.175,66.541 C161.177,58.788 156.74,51.248 148.865,47.809 C146.292,46.686 143.563,46.146 140.855,46.146 C134.73,46.147 128.703,48.903 124.795,53.911 C121.826,57.715 120.425,62.146 120.425,66.504 C120.423,74.257 124.86,81.796 132.735,85.235 L132.935,84.777 z M172.477,85.388 L172.907,85.644 C174.067,83.697 175.023,81.686 175.791,79.636 C176.177,78.604 177.175,77.926 178.282,77.926 L178.319,77.926 L184.241,78.006 L184.292,78.007 C186.303,78.006 187.945,76.39 187.973,74.374 L188.168,59.952 L188.169,59.901 C188.168,57.89 186.553,56.248 184.536,56.22 L178.606,56.14 C177.483,56.124 176.487,55.415 176.125,54.361 C174.689,50.183 172.513,46.249 169.65,42.771 C169.256,42.292 169.057,41.703 169.057,41.106 C169.057,40.633 169.183,40.156 169.437,39.729 L172.466,34.644 C172.817,34.054 172.985,33.403 172.985,32.762 C172.986,31.508 172.342,30.284 171.186,29.595 L158.794,22.215 C158.205,21.864 157.554,21.696 156.913,21.696 C155.659,21.695 154.434,22.339 153.746,23.495 L150.717,28.581 C150.231,29.398 149.355,29.89 148.436,29.889 C148.273,29.889 148.107,29.874 147.942,29.842 C145.584,29.383 143.205,29.157 140.837,29.157 C138.764,29.157 136.7,29.33 134.666,29.67 C134.522,29.694 134.379,29.706 134.237,29.706 C133.291,29.706 132.397,29.187 131.92,28.335 L129.008,23.131 L129.025,23.16 C128.35,21.954 127.097,21.274 125.808,21.274 C125.199,21.274 124.58,21.426 124.013,21.744 L111.426,28.785 C110.221,29.46 109.54,30.713 109.541,32.002 C109.54,32.611 109.692,33.23 110.01,33.797 L112.901,38.965 C113.131,39.376 113.244,39.828 113.244,40.278 C113.244,40.9 113.027,41.514 112.602,42.003 C111.166,43.654 109.853,45.454 108.693,47.401 C107.534,49.349 106.577,51.359 105.809,53.409 C105.423,54.441 104.425,55.119 103.318,55.119 L103.281,55.119 L97.359,55.039 L97.308,55.038 C95.297,55.039 93.655,56.654 93.627,58.671 L93.432,73.092 L93.431,73.143 C93.432,75.155 95.047,76.797 97.064,76.825 L102.994,76.905 C104.117,76.921 105.114,77.63 105.475,78.684 C106.911,82.862 109.087,86.796 111.95,90.274 C112.344,90.753 112.543,91.341 112.543,91.938 C112.543,92.412 112.417,92.889 112.163,93.316 L109.134,98.401 C108.783,98.991 108.615,99.642 108.615,100.283 C108.615,101.537 109.258,102.761 110.414,103.45 L122.806,110.83 C123.395,111.181 124.046,111.349 124.687,111.349 C125.941,111.35 127.166,110.706 127.854,109.55 L130.883,104.464 C131.369,103.647 132.245,103.155 133.164,103.155 C133.328,103.155 133.493,103.171 133.659,103.203 C136.016,103.662 138.395,103.887 140.763,103.887 C142.836,103.887 144.9,103.715 146.934,103.375 C147.078,103.351 147.221,103.339 147.363,103.339 C148.31,103.339 149.204,103.858 149.68,104.71 L152.575,109.885 C153.25,111.091 154.503,111.771 155.792,111.771 C156.401,111.771 157.02,111.619 157.587,111.301 L170.174,104.26 C171.38,103.585 172.06,102.332 172.06,101.043 C172.06,100.434 171.908,99.815 171.59,99.248 L168.699,94.08 C168.469,93.669 168.356,93.217 168.356,92.768 C168.356,92.145 168.573,91.531 168.998,91.042 C170.435,89.39 171.747,87.591 172.907,85.644 L172.047,85.132 C170.919,87.027 169.642,88.778 168.244,90.386 C167.655,91.062 167.356,91.913 167.356,92.768 C167.356,93.385 167.512,94.006 167.826,94.568 L170.717,99.736 C170.95,100.152 171.059,100.6 171.06,101.043 C171.059,101.984 170.565,102.895 169.686,103.387 L157.099,110.428 C156.683,110.661 156.236,110.77 155.792,110.771 C154.851,110.77 153.94,110.276 153.448,109.397 L150.553,104.221 C149.9,103.055 148.675,102.34 147.363,102.339 C147.167,102.339 146.968,102.356 146.769,102.389 C144.789,102.719 142.78,102.887 140.763,102.887 C138.459,102.887 136.144,102.668 133.85,102.222 C133.621,102.177 133.391,102.155 133.164,102.155 C131.888,102.156 130.691,102.834 130.024,103.953 L126.995,109.039 C126.493,109.882 125.603,110.348 124.687,110.349 C124.22,110.349 123.749,110.228 123.317,109.971 L110.926,102.591 C110.082,102.089 109.616,101.199 109.615,100.283 C109.615,99.816 109.737,99.345 109.994,98.913 L113.022,93.827 C113.37,93.243 113.543,92.589 113.543,91.938 C113.543,91.12 113.268,90.302 112.723,89.639 C109.936,86.255 107.819,82.426 106.421,78.359 C105.918,76.898 104.544,75.926 103.007,75.905 L97.078,75.825 C95.609,75.806 94.431,74.608 94.431,73.143 L94.432,73.106 L94.627,58.685 C94.646,57.216 95.845,56.038 97.308,56.038 L97.346,56.039 L103.267,56.119 L103.318,56.119 C104.834,56.119 106.209,55.191 106.745,53.76 C107.493,51.765 108.424,49.808 109.553,47.913 C110.681,46.018 111.958,44.267 113.356,42.659 C113.945,41.983 114.244,41.132 114.244,40.278 C114.244,39.661 114.088,39.039 113.774,38.477 L110.883,33.309 C110.65,32.893 110.541,32.446 110.541,32.002 C110.541,31.061 111.035,30.149 111.914,29.658 L124.541,22.594 L124.501,22.617 C124.917,22.384 125.365,22.275 125.808,22.274 C126.749,22.275 127.661,22.769 128.152,23.648 L131.075,28.872 L131.048,28.823 C131.701,29.99 132.925,30.705 134.237,30.706 C134.434,30.706 134.632,30.689 134.831,30.656 C136.811,30.326 138.82,30.157 140.837,30.157 C143.141,30.157 145.456,30.377 147.751,30.823 C147.98,30.868 148.209,30.889 148.436,30.889 C149.712,30.889 150.909,30.211 151.576,29.092 L154.605,24.006 C155.107,23.163 155.997,22.697 156.913,22.696 C157.38,22.696 157.851,22.817 158.283,23.074 L170.674,30.454 C171.518,30.956 171.984,31.846 171.985,32.762 C171.985,33.229 171.864,33.7 171.607,34.132 L168.578,39.218 C168.23,39.801 168.057,40.456 168.057,41.106 C168.057,41.925 168.332,42.743 168.878,43.406 C171.664,46.79 173.782,50.62 175.179,54.686 C175.682,56.147 177.056,57.119 178.593,57.14 L184.523,57.22 C185.991,57.239 187.169,58.437 187.169,59.901 L187.168,59.939 L186.973,74.36 C186.954,75.829 185.756,77.007 184.292,77.007 L184.254,77.006 L178.333,76.926 L178.282,76.926 C176.766,76.926 175.391,77.854 174.855,79.285 C174.107,81.28 173.176,83.237 172.047,85.132 L172.477,85.388" fill="#B8C1C6"/>
    <path d="M405.187,137.295 C390.297,139.171 377.776,126.65 379.652,111.761 C380.931,101.615 389.123,93.423 399.269,92.145 C414.158,90.268 426.68,102.79 424.803,117.679 C423.524,127.824 415.332,136.017 405.187,137.295 z M444.461,114.72 C444.461,112.158 444.227,109.653 443.787,107.218 C443.517,105.719 444.231,104.217 445.55,103.456 L451.425,100.064 C453.168,99.057 453.766,96.828 452.759,95.084 L444.499,80.776 C443.492,79.033 441.262,78.435 439.519,79.442 L433.636,82.838 C432.316,83.6 430.657,83.468 429.494,82.483 C425.685,79.257 421.296,76.695 416.505,74.974 C415.074,74.46 414.134,73.087 414.134,71.567 L414.134,64.786 C414.134,62.772 412.502,61.14 410.488,61.14 L393.968,61.14 C391.954,61.14 390.321,62.772 390.321,64.786 L390.321,71.567 C390.321,73.087 389.381,74.46 387.95,74.974 C383.159,76.695 378.771,79.257 374.961,82.483 C373.799,83.468 372.14,83.6 370.82,82.838 L364.938,79.442 C363.193,78.435 360.964,79.033 359.957,80.776 L351.696,95.084 C350.689,96.828 351.287,99.057 353.031,100.064 L358.905,103.456 C360.225,104.217 360.939,105.719 360.668,107.218 C360.229,109.653 359.995,112.158 359.995,114.72 C359.995,117.281 360.229,119.787 360.668,122.221 C360.939,123.72 360.225,125.222 358.905,125.984 L353.031,129.376 C351.287,130.382 350.689,132.612 351.696,134.356 L359.957,148.663 C360.964,150.407 363.193,151.004 364.938,149.998 L370.819,146.601 C372.139,145.839 373.798,145.972 374.961,146.956 C378.771,150.183 383.159,152.745 387.95,154.466 C389.381,154.98 390.321,156.353 390.321,157.873 L390.321,164.653 C390.321,166.667 391.954,168.299 393.968,168.299 L410.488,168.299 C412.502,168.299 414.134,166.667 414.134,164.653 L414.134,157.873 C414.134,156.353 415.074,154.98 416.505,154.466 C421.296,152.745 425.685,150.183 429.494,146.956 C430.657,145.972 432.316,145.839 433.636,146.601 L439.519,149.998 C441.262,151.004 443.492,150.407 444.499,148.663 L452.759,134.356 C453.766,132.612 453.168,130.382 451.425,129.376 L445.55,125.984 C444.23,125.222 443.517,123.72 443.787,122.221 C444.227,119.787 444.461,117.281 444.461,114.72" fill="#FFFFFE"/>
    <path d="M405.187,137.295 L405.124,136.799 C404.146,136.922 403.18,136.982 402.227,136.982 C396.078,136.982 390.516,134.491 386.486,130.461 C382.456,126.431 379.966,120.868 379.965,114.719 C379.965,113.767 380.025,112.801 380.148,111.823 C381.394,101.909 389.417,93.887 399.331,92.641 C400.309,92.517 401.275,92.458 402.228,92.458 C408.377,92.458 413.939,94.949 417.969,98.978 C421.999,103.008 424.489,108.57 424.49,114.719 C424.49,115.672 424.43,116.639 424.307,117.617 C423.061,127.531 415.038,135.553 405.124,136.799 L405.187,137.295 L405.249,137.791 C415.626,136.48 423.988,128.118 425.299,117.742 C425.427,116.723 425.49,115.714 425.49,114.719 C425.489,101.872 415.075,91.458 402.228,91.458 C401.233,91.458 400.225,91.52 399.206,91.649 C388.829,92.96 380.467,101.322 379.156,111.698 C379.028,112.717 378.965,113.725 378.965,114.719 C378.966,127.567 389.379,137.982 402.227,137.982 C403.222,137.982 404.23,137.919 405.249,137.791 L405.187,137.295 z M444.461,114.72 L444.961,114.72 C444.961,112.128 444.724,109.592 444.279,107.129 C444.246,106.947 444.23,106.766 444.23,106.586 C444.23,105.49 444.822,104.453 445.8,103.889 L451.675,100.497 C453.004,99.729 453.749,98.335 453.748,96.903 C453.748,96.2 453.568,95.485 453.192,94.834 L444.932,80.526 C444.164,79.197 442.769,78.452 441.338,78.453 C440.634,78.453 439.92,78.633 439.268,79.009 L433.386,82.405 C432.895,82.689 432.351,82.828 431.81,82.828 C431.094,82.828 430.387,82.584 429.817,82.102 C425.963,78.837 421.522,76.245 416.674,74.503 C415.447,74.063 414.634,72.88 414.634,71.567 L414.634,64.786 C414.633,62.496 412.778,60.641 410.488,60.64 L393.968,60.64 C391.678,60.641 389.822,62.496 389.821,64.786 L389.821,71.567 C389.821,72.88 389.008,74.063 387.781,74.503 C382.933,76.245 378.493,78.837 374.638,82.102 C374.069,82.584 373.362,82.828 372.646,82.828 C372.105,82.828 371.561,82.689 371.07,82.405 L365.188,79.009 C364.536,78.633 363.821,78.453 363.118,78.453 C361.686,78.452 360.292,79.197 359.524,80.526 L351.263,94.834 C350.887,95.485 350.707,96.2 350.707,96.903 C350.706,98.335 351.452,99.729 352.781,100.497 L358.655,103.889 C359.634,104.453 360.225,105.489 360.225,106.584 C360.225,106.764 360.209,106.947 360.176,107.129 C359.731,109.593 359.495,112.128 359.495,114.72 C359.495,117.311 359.731,119.847 360.176,122.31 C360.209,122.493 360.225,122.675 360.225,122.856 C360.225,123.95 359.634,124.986 358.655,125.551 L352.781,128.943 C351.452,129.71 350.706,131.105 350.707,132.536 C350.707,133.24 350.887,133.955 351.263,134.606 L359.524,148.913 C360.292,150.242 361.686,150.987 363.118,150.987 C363.821,150.987 364.536,150.807 365.187,150.431 L371.069,147.034 C371.56,146.751 372.104,146.611 372.645,146.611 C373.361,146.611 374.068,146.856 374.638,147.338 C378.493,150.602 382.933,153.195 387.781,154.937 C389.008,155.377 389.821,156.559 389.821,157.873 L389.821,164.653 C389.822,166.943 391.678,168.799 393.968,168.799 L410.488,168.799 C412.778,168.799 414.633,166.943 414.634,164.653 L414.634,157.873 C414.634,156.559 415.447,155.377 416.674,154.937 C421.522,153.195 425.963,150.602 429.817,147.338 C430.387,146.856 431.094,146.611 431.81,146.611 C432.351,146.611 432.895,146.751 433.386,147.034 L439.269,150.431 C439.92,150.807 440.634,150.987 441.338,150.987 C442.769,150.987 444.164,150.242 444.932,148.913 L453.192,134.606 C453.568,133.954 453.748,133.24 453.748,132.536 C453.749,131.105 453.004,129.71 451.675,128.943 L445.8,125.551 C444.821,124.986 444.23,123.95 444.23,122.854 C444.23,122.674 444.246,122.492 444.279,122.31 C444.724,119.847 444.961,117.311 444.961,114.72 L443.961,114.72 C443.961,117.25 443.729,119.726 443.295,122.132 C443.251,122.374 443.23,122.615 443.23,122.854 C443.231,124.31 444.013,125.673 445.3,126.417 L451.175,129.809 C452.184,130.391 452.747,131.448 452.748,132.536 C452.748,133.07 452.612,133.609 452.326,134.106 L444.066,148.413 C443.483,149.423 442.426,149.986 441.338,149.987 C440.804,149.986 440.265,149.851 439.769,149.565 L433.886,146.168 C433.241,145.796 432.523,145.611 431.81,145.611 C430.867,145.611 429.927,145.935 429.171,146.574 C425.406,149.763 421.07,152.295 416.336,153.996 C414.702,154.583 413.634,156.146 413.634,157.873 L413.634,164.653 C413.631,166.391 412.226,167.796 410.488,167.799 L393.968,167.799 C392.23,167.796 390.824,166.391 390.821,164.653 L390.821,157.873 C390.821,156.146 389.754,154.583 388.119,153.996 C383.385,152.295 379.05,149.763 375.284,146.575 C374.528,145.935 373.588,145.611 372.645,145.611 C371.932,145.611 371.214,145.796 370.569,146.168 L364.687,149.565 C364.19,149.851 363.652,149.986 363.118,149.987 C362.029,149.986 360.973,149.423 360.39,148.413 L352.129,134.106 C351.842,133.609 351.707,133.07 351.707,132.536 C351.708,131.448 352.271,130.392 353.281,129.809 L359.155,126.417 C360.442,125.674 361.225,124.311 361.225,122.856 C361.225,122.616 361.204,122.374 361.16,122.132 C360.726,119.726 360.495,117.25 360.495,114.72 C360.495,112.189 360.726,109.713 361.16,107.307 C361.204,107.066 361.225,106.824 361.225,106.584 C361.225,105.128 360.442,103.766 359.155,103.023 L353.281,99.631 C352.271,99.048 351.708,97.992 351.707,96.903 C351.707,96.369 351.843,95.831 352.129,95.334 L360.39,81.026 C360.973,80.017 362.029,79.454 363.118,79.453 C363.652,79.453 364.19,79.588 364.688,79.875 L370.57,83.271 C371.215,83.644 371.933,83.829 372.646,83.828 C373.589,83.829 374.529,83.505 375.284,82.865 C379.05,79.676 383.385,77.145 388.119,75.444 C389.754,74.856 390.821,73.293 390.821,71.567 L390.821,64.786 C390.824,63.049 392.23,61.643 393.968,61.64 L410.488,61.64 C412.226,61.643 413.631,63.049 413.634,64.786 L413.634,71.567 C413.634,73.293 414.702,74.856 416.336,75.444 C421.07,77.145 425.406,79.676 429.171,82.865 C429.926,83.505 430.866,83.829 431.81,83.828 C432.523,83.829 433.241,83.644 433.886,83.271 L439.769,79.875 C440.265,79.588 440.804,79.453 441.338,79.453 C442.426,79.454 443.483,80.017 444.066,81.026 L452.326,95.334 C452.612,95.831 452.748,96.37 452.748,96.903 C452.747,97.992 452.184,99.048 451.175,99.631 L445.3,103.023 C444.013,103.766 443.231,105.13 443.23,106.586 C443.23,106.825 443.252,107.066 443.295,107.307 C443.729,109.713 443.961,112.189 443.961,114.72 L444.461,114.72" fill="#B8C1C6"/>
    <path d="M97.772,140.483 L402.228,140.483 L402.228,335.647 L97.772,335.647 z" fill="#E4E8E8"/>
    <path d="M97.772,148.301 L402.228,148.301 L402.228,165.416 L97.772,165.416 z" fill="#B8C1C6"/>
    <path d="M115.889,153.648 C115.742,153.648 115.595,153.71 115.476,153.835 L113.401,156.018 C113.261,156.167 113.179,156.383 113.179,156.612 L113.179,159.289 C113.179,159.72 113.463,160.07 113.814,160.07 L117.963,160.07 C118.314,160.07 118.598,159.72 118.598,159.289 L118.598,156.612 C118.598,156.383 118.517,156.167 118.376,156.018 L116.301,153.835 C116.183,153.71 116.036,153.648 115.889,153.648 z M115.889,154.853 L117.598,156.651 L117.598,159.07 L114.179,159.07 L114.179,156.651 L115.889,154.853" fill="#1D3848"/>
    <path d="M124.211,159.127 L126.605,157.585 C126.831,157.445 127.039,157.19 127.04,156.859 C127.039,156.527 126.831,156.273 126.606,156.132 L124.211,154.589 C123.978,154.44 123.669,154.507 123.52,154.739 C123.37,154.971 123.437,155.281 123.669,155.43 L126.064,156.972 L126.08,156.984 L126.149,156.912 L126.061,156.954 L126.08,156.984 L126.149,156.912 L126.061,156.954 L126.259,156.859 L126.04,156.859 L126.061,156.954 L126.259,156.859 L126.04,156.859 L126.244,156.859 L126.071,156.745 L126.04,156.859 L126.244,156.859 L126.071,156.745 L126.127,156.781 L126.08,156.732 L126.071,156.745 L126.127,156.781 L126.08,156.732 L126.064,156.745 L123.669,158.287 C123.437,158.436 123.37,158.746 123.52,158.978 C123.669,159.21 123.978,159.277 124.211,159.127" fill="#1D3848"/>
    <path d="M108.109,158.287 L105.714,156.745 L105.697,156.732 L105.628,156.806 L105.717,156.763 L105.697,156.732 L105.628,156.806 L105.717,156.763 L105.518,156.859 L105.738,156.859 L105.717,156.763 L105.518,156.859 L105.738,156.859 L105.534,156.859 L105.707,156.972 L105.738,156.859 L105.534,156.859 L105.707,156.972 L105.652,156.936 L105.698,156.984 L105.707,156.972 L105.652,156.936 L105.698,156.984 L105.714,156.972 L108.109,155.43 C108.341,155.281 108.408,154.971 108.258,154.739 C108.109,154.507 107.799,154.44 107.567,154.589 L105.173,156.131 C104.947,156.273 104.739,156.527 104.738,156.859 C104.739,157.19 104.947,157.445 105.173,157.586 L107.567,159.127 C107.799,159.277 108.109,159.21 108.258,158.978 C108.408,158.746 108.341,158.436 108.109,158.287" fill="#1D3848"/>
    <path d="M367.011,162.175 L136.733,162.175 C135.295,162.175 134.129,161.01 134.129,159.572 L134.129,154.146 C134.129,152.708 135.295,151.542 136.733,151.542 L367.011,151.542 C368.448,151.542 369.614,152.708 369.614,154.146 L369.614,159.572 C369.614,161.01 368.448,162.175 367.011,162.175" fill="#F4F4F1"/>
    <path d="M213.079,155.253 L290.664,155.253 L290.664,158.464 L213.079,158.464 z" fill="#B8C1C6"/>
    <path d="M142.406,155.253 L142.052,155.607 C142.399,155.954 142.57,156.404 142.571,156.859 C142.57,157.313 142.399,157.764 142.052,158.111 C141.705,158.458 141.255,158.629 140.8,158.629 C140.345,158.629 139.895,158.457 139.548,158.111 C139.201,157.764 139.03,157.313 139.029,156.859 C139.03,156.404 139.201,155.954 139.548,155.607 C139.895,155.26 140.345,155.089 140.8,155.088 C141.255,155.088 141.705,155.26 142.052,155.607 L142.406,155.253 L142.759,154.899 C142.22,154.359 141.507,154.087 140.8,154.088 C140.093,154.087 139.381,154.359 138.841,154.899 C138.301,155.439 138.029,156.151 138.029,156.859 C138.029,157.566 138.301,158.278 138.841,158.818 C139.38,159.358 140.093,159.63 140.8,159.629 C141.507,159.63 142.22,159.358 142.759,158.818 C143.299,158.278 143.571,157.566 143.571,156.859 C143.571,156.151 143.299,155.439 142.759,154.899 L142.406,155.253" fill="#B8C1C6"/>
    <path d="M142.052,158.818 L143.417,160.182 C143.612,160.377 143.928,160.377 144.124,160.182 C144.319,159.986 144.319,159.67 144.124,159.475 L142.759,158.111 C142.564,157.916 142.247,157.916 142.052,158.111 C141.857,158.306 141.857,158.623 142.052,158.818" fill="#B8C1C6"/>
    <path d="M365.585,156.858 C365.583,157.836 364.792,158.627 363.814,158.629 C362.836,158.627 362.045,157.836 362.043,156.858 C362.045,155.881 362.836,155.09 363.814,155.088 C364.091,155.088 364.314,154.864 364.314,154.588 C364.314,154.312 364.091,154.088 363.814,154.088 C362.283,154.088 361.043,155.328 361.043,156.858 C361.043,158.389 362.283,159.629 363.814,159.629 C365.345,159.629 366.585,158.389 366.585,156.858 C366.585,156.582 366.361,156.358 366.085,156.358 C365.809,156.358 365.585,156.582 365.585,156.858" fill="#B8C1C6"/>
    <path d="M363.814,153.953 L363.535,154.368 L364.129,154.769 L363.534,155.171 L363.814,155.586 L364.314,155.586 L364.314,153.953 L363.814,153.953 L363.535,154.368 L363.814,153.953 L363.314,153.953 L363.314,155.586 C363.314,155.771 363.417,155.94 363.58,156.027 C363.743,156.114 363.941,156.103 364.094,156 L365.302,155.183 C365.44,155.091 365.522,154.935 365.522,154.769 C365.522,154.604 365.439,154.447 365.302,154.355 L364.094,153.539 C363.941,153.435 363.743,153.425 363.58,153.512 C363.416,153.598 363.314,153.768 363.314,153.953 L363.814,153.953" fill="#B8C1C6"/>
    <path d="M379.392,153.638 L378.916,153.793 L379.715,156.253 C379.782,156.458 379.974,156.598 380.19,156.598 L381.239,156.598 L380.391,157.214 C380.216,157.341 380.142,157.568 380.209,157.773 L380.533,158.77 L379.685,158.154 C379.511,158.027 379.272,158.027 379.098,158.154 L378.249,158.77 L378.573,157.773 C378.64,157.568 378.566,157.341 378.392,157.214 L377.544,156.598 L378.592,156.598 C378.808,156.598 379.001,156.458 379.067,156.253 L379.867,153.793 L379.392,153.638 L378.916,153.793 L379.392,153.638 L378.916,153.484 L378.229,155.598 L376.005,155.598 C375.789,155.598 375.596,155.738 375.529,155.944 C375.463,156.149 375.536,156.376 375.711,156.503 L377.51,157.81 L376.822,159.925 C376.756,160.13 376.829,160.357 377.004,160.484 C377.179,160.611 377.417,160.611 377.592,160.484 L379.392,159.177 L381.19,160.484 C381.365,160.611 381.604,160.611 381.778,160.484 C381.953,160.357 382.027,160.13 381.96,159.925 L381.272,157.81 L383.071,156.503 C383.246,156.376 383.32,156.149 383.253,155.944 C383.186,155.738 382.993,155.598 382.777,155.598 L380.554,155.598 L379.867,153.484 C379.8,153.278 379.608,153.138 379.392,153.138 C379.176,153.138 378.983,153.278 378.916,153.484 L379.392,153.638" fill="#1D3848"/>
    <path d="M388.246,154.66 L396.696,154.66 C396.972,154.66 397.196,154.436 397.196,154.16 C397.196,153.884 396.972,153.66 396.696,153.66 L388.246,153.66 C387.97,153.66 387.746,153.884 387.746,154.16 C387.746,154.436 387.97,154.66 388.246,154.66" fill="#1D3848"/>
    <path d="M388.246,157.358 L396.696,157.358 C396.972,157.358 397.196,157.135 397.196,156.858 C397.196,156.582 396.972,156.358 396.696,156.358 L388.246,156.358 C387.97,156.358 387.746,156.582 387.746,156.858 C387.746,157.135 387.97,157.358 388.246,157.358" fill="#1D3848"/>
    <path d="M388.246,160.057 L396.696,160.057 C396.972,160.057 397.196,159.833 397.196,159.557 C397.196,159.281 396.972,159.057 396.696,159.057 L388.246,159.057 C387.97,159.057 387.746,159.281 387.746,159.557 C387.746,159.833 387.97,160.057 388.246,160.057" fill="#1D3848"/>
    <path d="M401.853,140.483 L401.853,335.272 L97.772,335.272 L97.772,336.022 L402.602,336.022 L402.602,140.483 L401.853,140.483" fill="#1D3848"/>
    <path d="M97.772,140.483 L402.228,140.483 L402.228,148.301 L97.772,148.301 z" fill="#1D3848"/>
    <path d="M105.704,144.392 C105.704,145.403 104.884,146.223 103.873,146.223 C102.862,146.223 102.042,145.403 102.042,144.392 C102.042,143.381 102.862,142.561 103.873,142.561 C104.884,142.561 105.704,143.381 105.704,144.392" fill="#F7E453"/>
    <path d="M110.731,144.392 C110.731,145.403 109.911,146.223 108.9,146.223 C107.889,146.223 107.069,145.403 107.069,144.392 C107.069,143.381 107.889,142.561 108.9,142.561 C109.911,142.561 110.731,143.381 110.731,144.392" fill="#486FA8"/>
    <path d="M115.758,144.392 C115.758,145.403 114.938,146.223 113.927,146.223 C112.916,146.223 112.096,145.403 112.096,144.392 C112.096,143.381 112.916,142.561 113.927,142.561 C114.938,142.561 115.758,143.381 115.758,144.392" fill="#B94F8E"/>
    <path d="M273.53,312.204 L378.781,312.204 L378.781,324.102 L273.53,324.102 z" fill="#4E4589"/>
    <path d="M148.686,187.565 C148.686,195.227 142.476,201.438 134.814,201.438 C127.152,201.438 120.941,195.227 120.941,187.565 C120.941,179.904 127.152,173.693 134.814,173.693 C142.476,173.693 148.686,179.904 148.686,187.565" fill="#4E4589"/>
    <path d="M155.592,181.743 L209.83,181.743 L209.83,186.45 L155.592,186.45 z" fill="#B09EC0"/>
    <path d="M155.592,188.681 L195.462,188.681 L195.462,193.389 L155.592,193.389 z" fill="#B09EC0"/>
    <path d="M283.954,181.743 L311.073,181.743 L311.073,186.45 L283.954,186.45 z" fill="#B8C1C6"/>
    <path d="M317.809,181.743 L344.927,181.743 L344.927,186.45 L317.809,186.45 z" fill="#B8C1C6"/>
    <path d="M121.475,206.152 L378.525,206.152 L378.525,207.152 L121.475,207.152 z" fill="#1D3848"/>
    <path d="M121.475,266.299 L209.83,266.299 L209.83,273.407 L121.475,273.407 z" fill="#B09EC0"/>
    <path d="M121.475,280.221 L244.429,280.221 L244.429,283.369 L121.475,283.369 z" fill="#B8C1C6"/>
    <path d="M121.475,286.314 L233.689,286.314 L233.689,289.461 L121.475,289.461 z" fill="#B8C1C6"/>
    <path d="M121.475,292.406 L224.611,292.406 L224.611,295.553 L121.475,295.553 z" fill="#B8C1C6"/>
    <path d="M121.475,298.498 L244.429,298.498 L244.429,301.645 L121.475,301.645 z" fill="#B8C1C6"/>
    <path d="M159.1,325.102 L128.424,325.102 C125.138,325.102 122.475,322.438 122.475,319.153 C122.475,315.867 125.138,313.204 128.424,313.204 L159.1,313.204 C162.386,313.204 165.049,315.867 165.049,319.153 C165.049,322.438 162.386,325.102 159.1,325.102" fill="#B1B3B3"/>
    <path d="M158.1,324.102 L127.424,324.102 C124.138,324.102 121.475,321.438 121.475,318.153 C121.475,314.867 124.138,312.204 127.424,312.204 L158.1,312.204 C161.386,312.204 164.049,314.867 164.049,318.153 C164.049,321.438 161.386,324.102 158.1,324.102" fill="#F7E453"/>
    <path d="M208.13,325.102 L177.454,325.102 C174.168,325.102 171.504,322.438 171.504,319.153 C171.504,315.867 174.168,313.204 177.454,313.204 L208.13,313.204 C211.416,313.204 214.079,315.867 214.079,319.153 C214.079,322.438 211.416,325.102 208.13,325.102" fill="#B1B3B3"/>
    <path d="M207.13,324.102 L176.454,324.102 C173.168,324.102 170.504,321.438 170.504,318.153 C170.504,314.867 173.168,312.204 176.454,312.204 L207.13,312.204 C210.416,312.204 213.079,314.867 213.079,318.153 C213.079,321.438 210.416,324.102 207.13,324.102" fill="#1D3848"/>
    <path d="M121.475,218.446 L139.426,218.446 L139.426,236.398 L121.475,236.398 z" fill="#4E4589"/>
    <path d="M121.298,218.623 L139.249,236.575 L139.603,236.221 L121.651,218.27" fill="#F4F4F1"/>
    <path d="M139.249,218.27 L121.298,236.221 L121.651,236.575 L139.603,218.623" fill="#F4F4F1"/>
    <path d="M146.616,218.446 L164.568,218.446 L164.568,236.398 L146.616,236.398 z" fill="#4E4589"/>
    <path d="M146.439,218.623 L164.391,236.575 L164.745,236.221 L146.792,218.27" fill="#F4F4F1"/>
    <path d="M164.391,218.27 L146.439,236.221 L146.792,236.575 L164.745,218.623" fill="#F4F4F1"/>
    <path d="M171.757,218.446 L189.709,218.446 L189.709,236.398 L171.757,236.398 z" fill="#4E4589"/>
    <path d="M171.581,218.623 L189.532,236.575 L189.886,236.221 L171.934,218.27" fill="#F4F4F1"/>
    <path d="M189.532,218.27 L171.581,236.221 L171.934,236.575 L189.886,218.623" fill="#F4F4F1"/>
    <path d="M219.491,259.277 L126.143,257.792 L126.395,241.948 L219.743,243.434 L219.491,259.277" fill="#B1B3B3"/>
    <path d="M124.395,240.948 L217.743,242.434 L217.491,258.277 L124.143,256.792 L124.395,240.948" fill="#4E4589"/>
    <path d="M316.952,33.213 L316.952,111.319 C316.952,111.595 317.176,111.819 317.452,111.819 C317.728,111.819 317.952,111.595 317.952,111.319 L317.952,33.213 C317.952,32.937 317.728,32.713 317.452,32.713 C317.176,32.713 316.952,32.937 316.952,33.213" fill="#B8C1C6"/>
    <path d="M317.452,109.604 C319.005,109.604 320.268,110.867 320.268,112.419 C320.268,113.371 319.791,114.21 319.066,114.72 C318.586,114.273 317.931,114.019 317.226,114.084 C316.682,114.134 316.204,114.37 315.831,114.714 C315.11,114.204 314.636,113.368 314.636,112.419 C314.636,110.867 315.899,109.604 317.452,109.604 z M322.161,128.653 C321.44,128.677 320.876,129.28 320.9,130.001 C320.955,131.637 319.655,133.192 318.024,133.453 C317.62,133.509 317.201,133.54 316.771,133.451 C316.361,133.395 315.992,133.251 315.633,133.043 C314.917,132.635 314.337,131.933 314.078,131.169 C313.806,130.393 313.742,129.426 314.107,128.691 C315.96,124.966 319.654,122.593 319.654,118.863 C322.333,117.945 324.268,115.406 324.268,112.419 C324.268,108.661 321.21,105.604 317.452,105.604 C313.693,105.604 310.636,108.661 310.636,112.419 C310.636,115.307 312.443,117.774 314.983,118.766 C314.746,121.379 311.699,123.725 310.419,127.244 C309.808,128.924 309.943,130.76 310.578,132.346 C311.215,133.941 312.421,135.232 313.874,135.979 C315.332,136.752 317.02,136.902 318.535,136.565 C320.06,136.213 321.42,135.323 322.297,134.111 C323.2,132.915 323.604,131.42 323.515,130.001 L323.507,129.874 C323.462,129.172 322.868,128.629 322.161,128.653" fill="#B8C1C6"/>
    <path d="M402.602,245.338 L402.602,199.407 L403.077,199.341 L408.588,239.439 C406.859,241.442 404.879,243.416 402.602,245.338" fill="#C7C6C1"/>
    <path d="M412.792,270.024 L402.991,262.592 C406.136,263.734 409.337,265.372 412.436,267.439 L412.792,270.024 M412.256,266.125 C409.086,264.088 405.819,262.487 402.602,261.395 L402.602,246.641 C404.938,244.725 406.978,242.755 408.768,240.75 L412.256,266.125" fill="#C7C6C1"/>
    <path d="M402.602,246.641 L402.602,245.338 C404.879,243.416 406.859,241.442 408.588,239.439 L408.768,240.75 C406.978,242.755 404.938,244.725 402.602,246.641" fill="#90989C"/>
    <path d="M412.436,267.439 C409.337,265.372 406.136,263.734 402.991,262.592 L402.602,262.297 L402.602,261.395 C405.819,262.487 409.086,264.088 412.256,266.125 L412.436,267.439" fill="#90989C"/>
    <path d="M250.766,312.674 L238.302,221.988 L346.247,207.152 L378.525,207.152 L378.525,206.152 L353.523,206.152 L401.853,199.51 L401.853,261.729 L368.458,236.405 L324.511,294.358 L286.51,265.54 L250.766,312.674 M316.835,223.87 C316.178,223.87 315.511,223.914 314.842,224.006 C306.903,225.097 301.353,232.417 302.444,240.355 C303.443,247.623 309.663,252.889 316.799,252.889 C317.456,252.889 318.122,252.845 318.792,252.753 C326.73,251.662 332.28,244.342 331.189,236.404 C330.191,229.136 323.971,223.87 316.835,223.87" fill="#B1B3B3"/>
    <path d="M402.602,262.297 L401.853,261.729 L401.853,199.51 L402.602,199.407 L402.602,262.297" fill="#182C37"/>
    <path d="M378.525,207.152 L346.247,207.152 L353.523,206.152 L378.525,206.152 L378.525,207.152" fill="#182C37"/>
    <path d="M402.602,299.175 L402.602,299.174 L413.976,297.611 C413.977,297.611 413.977,297.611 413.977,297.611 L402.602,299.175" fill="#C7C6C1"/>
    <path d="M415.045,297.465 C415.045,297.464 415.044,297.464 415.044,297.464 L420.497,296.714 L420.497,296.715 L415.045,297.465" fill="#C7C6C1"/>
    <path d="M413.977,297.611 C413.977,297.611 413.977,297.611 413.976,297.611 L415.044,297.464 C415.044,297.464 415.045,297.464 415.045,297.465 L413.977,297.611" fill="#90989C"/>
    <path d="M247.797,320.45 L273.53,316.913 L247.797,320.45 M307.799,312.204 L307.796,312.204 L401.853,299.277 L401.853,299.278 L307.799,312.204" fill="#B1B3B3"/>
    <path d="M401.853,299.278 L401.853,299.277 L402.602,299.174 L402.602,299.175 L401.853,299.278" fill="#182C37"/>
    <path d="M273.53,316.913 L273.53,316.913 L307.796,312.204 L307.799,312.204 L273.53,316.913" fill="#40357E"/>
    <path d="M402.602,295.136 L402.602,282.665 C404.748,285.236 406.944,287.809 408.958,290.375 C409.884,291.553 410.769,292.728 411.593,293.901 L402.602,295.136" fill="#C7C6C1"/>
    <path d="M412.704,293.748 C409.775,289.51 406.069,285.285 402.602,281.101 L402.602,262.453 C402.731,262.498 402.862,262.545 402.991,262.592 L412.792,270.024 L415.99,293.296 L412.704,293.748" fill="#C7C6C1"/>
    <path d="M411.593,293.901 C410.769,292.728 409.884,291.553 408.958,290.375 C406.944,287.809 404.748,285.236 402.602,282.665 L402.602,281.101 C406.069,285.285 409.775,289.51 412.704,293.748 L411.593,293.901" fill="#90989C"/>
    <path d="M402.991,262.592 C402.862,262.545 402.731,262.498 402.602,262.453 L402.602,262.297 L402.991,262.592" fill="#90989C"/>
    <path d="M251.215,315.943 L250.766,312.674 L286.51,265.54 L324.511,294.358 L368.458,236.405 L401.853,261.729 L401.853,295.24 L278.422,312.204 L273.53,312.204 L273.53,312.876 L251.215,315.943" fill="#B1B3B3"/>
    <path d="M401.853,295.24 L401.853,261.729 L402.602,262.297 L402.602,295.136 L401.853,295.24" fill="#182C37"/>
    <path d="M273.53,312.876 L273.53,312.204 L278.422,312.204 L273.53,312.876" fill="#40357E"/>
    <path d="M419.115,286.658 L417.299,273.442 L419.115,286.658" fill="#C7C6C1"/>
    <path d="M402.602,299.174 L402.602,295.136 L411.593,293.901 C412.465,295.142 413.268,296.379 413.976,297.611 L402.602,299.174 M408.588,239.439 L403.077,199.341 L402.602,199.407 L402.602,195.369 L406.495,194.834 L412.013,234.985 C410.994,236.481 409.859,237.968 408.588,239.439" fill="#C7C6C1"/>
    <path d="M415.044,297.464 C414.708,296.866 414.351,296.269 413.976,295.672 C413.572,295.031 413.147,294.389 412.704,293.748 L415.99,293.296 L412.436,267.439 C413.968,268.46 415.474,269.586 416.937,270.808 L420.497,296.714 L415.044,297.464 M416.737,269.355 C415.276,268.182 413.778,267.104 412.256,266.125 L408.768,240.75 C410.038,239.329 411.181,237.891 412.214,236.444 L416.737,269.355" fill="#C7C6C1"/>
    <path d="M413.976,297.611 C413.268,296.379 412.465,295.142 411.593,293.901 L412.704,293.748 C413.147,294.389 413.572,295.031 413.976,295.672 C414.351,296.269 414.708,296.866 415.044,297.464 L413.976,297.611 M408.768,240.75 L408.588,239.439 C409.859,237.968 410.994,236.481 412.013,234.985 L412.214,236.444 C411.181,237.891 410.038,239.329 408.768,240.75" fill="#90989C"/>
    <path d="M416.937,270.808 C415.474,269.586 413.968,268.46 412.436,267.439 L412.256,266.125 C413.778,267.104 415.276,268.182 416.737,269.355 L416.937,270.808" fill="#90989C"/>
    <path d="M247.797,320.45 L242.701,283.369 L244.429,283.369 L244.429,280.221 L242.268,280.221 L233.795,218.569 L316.869,207.152 L346.247,207.152 L238.302,221.988 L251.215,315.943 L273.53,312.876 L273.53,316.913 L247.797,320.45 M307.796,312.204 L278.422,312.204 L401.853,295.24 L401.853,299.277 L307.796,312.204 M353.523,206.152 L324.145,206.152 L401.853,195.472 L401.853,199.51 L353.523,206.152" fill="#B1B3B3"/>
    <path d="M401.853,299.277 L401.853,295.24 L402.602,295.136 L402.602,299.174 L401.853,299.277 M401.853,199.51 L401.853,195.472 L402.602,195.369 L402.602,199.407 L401.853,199.51" fill="#182C37"/>
    <path d="M273.53,316.913 L273.53,312.876 L278.422,312.204 L307.796,312.204 L273.53,316.913" fill="#40357E"/>
    <path d="M346.247,207.152 L316.869,207.152 L324.145,206.152 L353.523,206.152 L346.247,207.152" fill="#182C37"/>
    <path d="M244.429,283.369 L242.701,283.369 L242.268,280.221 L244.429,280.221 L244.429,283.369" fill="#90989C"/>
    <path d="M316.799,252.889 C309.663,252.889 303.443,247.623 302.444,240.355 C301.353,232.417 306.903,225.097 314.842,224.006 C315.511,223.914 316.178,223.87 316.835,223.87 C323.971,223.87 330.191,229.136 331.189,236.404 C332.28,244.342 326.73,251.662 318.792,252.753 C318.122,252.845 317.456,252.889 316.799,252.889" fill="#B1B3B3"/>
    <path d="M410.497,279.714 L237.797,303.45 L223.795,201.569 L396.495,177.834 L410.497,279.714" fill="#B09EC0"/>
    <path d="M358.458,219.404 L314.511,277.358 L276.51,248.54 L237.348,300.181 L237.797,303.45 L410.497,279.715 L407.299,256.442 L358.458,219.404" fill="#4E4589"/>
    <path d="M396.495,177.834 L223.795,201.569 L237.797,303.45 L410.497,279.714 L396.495,177.834 z M393.077,182.341 L405.99,276.296 L241.215,298.943 L228.302,204.987 L393.077,182.341" fill="#4E4589"/>
    <path d="M321.189,219.404 C322.28,227.342 316.73,234.662 308.792,235.753 C300.854,236.843 293.535,231.293 292.444,223.355 C291.353,215.417 296.903,208.098 304.842,207.006 C312.779,205.916 320.099,211.466 321.189,219.404" fill="#F4F4F1"/>
    <path d="M234.549,199.884 L226.734,226.305 C226.658,226.564 226.802,226.838 227.058,226.922 C227.315,227.006 227.593,226.87 227.684,226.616 L237.256,199.953 C237.349,199.693 237.214,199.407 236.954,199.314 C236.694,199.22 236.408,199.355 236.315,199.615 L232.662,209.79 L235.508,200.167 C235.587,199.902 235.435,199.624 235.171,199.546 C234.906,199.468 234.628,199.619 234.549,199.884" fill="#B8C1C6"/>
    <path d="M379.328,180.072 L381.975,183.254 L378.329,179.178 C378.145,178.972 377.828,178.955 377.623,179.139 C377.417,179.323 377.399,179.639 377.583,179.845 L399.76,204.635 C399.942,204.838 400.253,204.858 400.459,204.68 C400.666,204.502 400.692,204.192 400.517,203.982 L380.097,179.433 C379.921,179.22 379.605,179.192 379.393,179.368 C379.181,179.545 379.152,179.86 379.329,180.072" fill="#B8C1C6"/>
    <path d="M378.262,179.116 L320.526,134.39 L320.22,134.786 L320.628,134.497 C319.832,133.369 318.583,132.796 317.344,132.797 C316.153,132.796 314.95,133.325 314.147,134.381 L314.545,134.684 L314.224,134.301 L236.464,199.401 C236.252,199.578 236.224,199.893 236.402,200.105 C236.579,200.317 236.894,200.345 237.106,200.168 L314.866,135.068 L314.943,134.987 C315.551,134.189 316.443,133.799 317.344,133.797 C318.282,133.799 319.208,134.222 319.811,135.074 L319.914,135.181 L377.65,179.907 C377.868,180.076 378.182,180.036 378.351,179.818 C378.52,179.599 378.481,179.285 378.262,179.116" fill="#B8C1C6"/>
    <path d="M300.41,33.213 L299.91,33.213 C299.91,38.195 303.948,42.234 308.931,42.234 C313.913,42.234 317.952,38.195 317.952,33.213 C317.952,28.23 313.913,24.192 308.931,24.192 C303.948,24.192 299.91,28.231 299.91,33.213 L300.91,33.213 C300.91,30.996 301.807,28.994 303.259,27.541 C304.712,26.089 306.714,25.192 308.931,25.192 C311.147,25.192 313.149,26.089 314.603,27.541 C316.055,28.994 316.952,30.996 316.952,33.213 C316.952,35.43 316.055,37.432 314.603,38.885 C313.149,40.337 311.147,41.234 308.931,41.234 C306.714,41.234 304.712,40.337 303.259,38.885 C301.807,37.432 300.91,35.43 300.91,33.213 L300.41,33.213" fill="#B8C1C6"/>
    <path d="M305.785,33.213 L305.285,33.213 C305.285,35.227 306.917,36.858 308.931,36.858 C310.944,36.858 312.576,35.227 312.576,33.213 C312.576,31.199 310.944,29.567 308.931,29.567 C306.917,29.567 305.285,31.199 305.285,33.213 L306.285,33.213 C306.288,31.751 307.47,30.57 308.931,30.567 C310.392,30.57 311.574,31.751 311.576,33.213 C311.574,34.674 310.392,35.856 308.931,35.859 C307.47,35.856 306.288,34.674 306.285,33.213 L305.785,33.213" fill="#B8C1C6"/>
    <path d="M373.183,298.231 C369.915,313.09 371.177,332.188 378.401,343.342 C384.102,352.143 394.246,354.861 403.285,361.82 L402.866,366.172 L406.849,361.419 C406.849,361.419 401.837,356.438 387.276,341.403 C383.714,337.724 386.26,323.178 387.188,319.544 C391.714,313.505 387.173,307.195 384.177,298.231 L373.183,298.231" fill="#1D3848"/>
    <path d="M403.285,361.82 L402.866,366.172 L406.849,361.419 L405.164,359.726 C405.164,359.726 405.376,361.535 403.285,361.82" fill="#486FA8"/>
    <path d="M369.006,298.231 C359.459,317.067 359.853,329.143 373.669,373.121 L369.257,375.855 L375.985,375.855 C375.985,375.855 375.698,329.371 378.401,318.775 C382.929,312.738 382.996,307.195 380,298.231 L369.006,298.231" fill="#2E4C5A"/>
    <path d="M369.257,375.855 L375.985,375.855 L375.985,373.121 C375.985,373.121 374.538,373.97 373.669,373.121 L369.257,375.855" fill="#486FA8"/>
    <path d="M379.352,254.841 C377.674,259.979 372.943,262.485 370.478,262.022 C368.013,261.559 366.732,257.358 367.618,252.639 C368.505,247.919 371.197,245.241 373.687,244.932 C377.252,244.491 381.681,247.71 379.352,254.841" fill="#F4F4F1"/>
    <path d="M373.669,256.261 L378.302,256.261 L378.302,267.89 L373.669,267.89 z" fill="#F4F4F1"/>
    <path d="M374.582,265.144 C368.501,266.251 364.411,276.228 363.81,279.799 C363.453,281.918 363.688,283.978 366.038,288.097 C369.312,293.835 369.006,298.231 369.006,298.231 L384.244,298.231 C384.244,293.673 387.174,288.561 388.902,281.456 C390.631,274.35 384.898,263.265 374.582,265.144" fill="#486FA8"/>
    <path d="M379.794,265.377 C379.773,265.376 388.633,266.442 392.273,265.144 C400.852,262.086 404.574,254.711 404.867,247.113 L407.188,247.113 C407.188,247.113 410.297,269.553 389.066,277.566 L379.794,265.377" fill="#537CB1"/>
    <path d="M404.867,247.113 C403.318,245.406 404.297,244 403.686,242.655 C403.074,241.309 403.821,239.774 405.505,243.443 L404.806,238.301 C404.806,238.301 406.815,239.307 407.188,247.113 L404.867,247.113" fill="#F4F4F1"/>
    <path d="M374.192,266.332 C378.744,267.225 378.187,275.465 372.982,280.236 C368.071,284.738 354.211,288.678 335.559,291.089 L334.953,289.044 C334.953,289.044 345.383,287.132 354.465,281.616 C363.547,276.098 367.625,265.044 374.192,266.332" fill="#537CB1"/>
    <path d="M334.953,289.044 C332.954,288.099 331.895,289.307 330.478,289.099 C329.061,288.891 328.362,289.853 332.231,290.434 L326.91,291.203 C326.91,291.203 328.165,292.679 335.559,291.089 L334.953,289.044" fill="#F4F4F1"/>
    <path d="M368.322,245.551 C365.981,249.651 373.669,248.645 373.669,252.666 C373.669,256.685 365.244,257.431 363.676,262.675 C361.885,268.665 374.104,267.069 372.265,273.285 C369.562,282.418 351.678,283.181 358.487,292.86 C363.446,299.908 375.541,295.896 374.175,307.409 C372.85,318.584 393.255,316.332 395.011,307.168 C396.178,301.073 384.802,297.37 391.171,292.769 C398.968,287.138 408.827,279.593 400.392,273.208 C396.128,269.98 384.593,267.978 383.422,262.794 C382.252,257.609 389.065,249.646 380.964,244.345 C372.658,238.911 368.322,245.551 368.322,245.551" fill="#F7E453"/>
    <path d="M163.731,124.26 C163.731,124.26 167.714,140.47 176.183,140.47 C195.587,140.47 201.134,133.042 208.899,133.554 C213.018,133.826 223.34,140.47 223.34,140.47 L229.166,140.47 L225.075,137.923 C225.075,137.923 213.905,123.292 206.421,122.386 C196.942,121.238 184.387,130.642 177.655,124.26 L163.731,124.26" fill="#1D3848"/>
    <path d="M223.34,140.47 L222.04,139.657 C222.04,139.657 224.319,139.793 225.075,137.923 L229.166,140.47 L223.34,140.47" fill="#486FA8"/>
    <path d="M304.266,25.501 L214.125,82.357 L200.98,94.883 L200.98,137.923 C200.98,138.2 201.204,138.423 201.48,138.423 C201.757,138.423 201.98,138.2 201.98,137.923 L201.98,95.311 L214.743,83.15 L304.8,26.347 C305.033,26.199 305.103,25.891 304.956,25.657 C304.809,25.424 304.5,25.354 304.266,25.501" fill="#B8C1C6"/>
    <path d="M199.196,96.794 C200,95.432 201.855,92.761 202.784,94.532 C203.37,95.652 203.133,97.63 202.599,97.827 C202.065,98.024 200.679,98.148 200.679,98.148 L199.196,96.794" fill="#B8C1C6"/>
    <path d="M161.288,94.126 C168.669,89.961 180.624,103.29 184.246,103.978 C190.104,105.089 198.455,97.396 199.196,96.794 L200.679,98.148 C200.679,98.148 191.536,111.268 182.887,111.515 C174.237,111.762 151.87,99.439 161.288,94.126" fill="#486FA8"/>
    <path d="M199.196,96.794 C199.492,95.418 199.99,94.885 200.952,94.37 C202.354,93.618 202.058,92.886 202.527,92.886 C202.997,92.886 203.491,94.246 202.305,94.726 C202.305,94.726 202.355,97.149 200.259,97.765 L199.196,96.794" fill="#F4F4F1"/>
    <path d="M202.784,94.532 C202.844,95.045 202.28,94.967 201.732,94.944 C200.993,94.912 200.24,94.802 200.365,95.77 C200.562,97.288 200.335,98.147 201.068,98.184 C201.801,98.221 202.306,98.384 202.784,98.131 C203.262,97.878 203.515,95.685 202.784,94.532" fill="#F4F4F1"/>
    <path d="M178.369,120.076 C187.902,138.882 195.27,158.166 212.924,174.855 L217.901,173.408 L213.405,178.401 C213.405,178.401 176.485,156.799 166.466,143.554 C161.946,137.525 160.813,133.197 163.804,124.247 L178.369,120.076" fill="#2E4C5A"/>
    <path d="M213.405,178.401 L217.901,173.408 L212.924,174.855 C212.924,174.855 213.178,176.548 211.368,177.188 L213.405,178.401" fill="#486FA8"/>
    <path d="M157.269,84.889 C160.019,88.99 164.801,90.02 166.854,89.002 C168.907,87.983 168.991,83.971 167.041,80.041 C165.091,76.111 162.058,74.422 159.792,74.769 C156.547,75.265 153.451,79.195 157.269,84.889" fill="#F4F4F1"/>
    <path d="M158.98,96.794 L165.504,94.954 L162.619,84.728 L155.553,80.653 L158.98,96.794" fill="#F4F4F1"/>
    <path d="M163.932,92.765 C157.022,93.637 151.075,95.602 154.009,118.794 C156.761,140.545 163.932,140.47 163.932,140.47 C163.932,140.47 185.701,142.006 190.104,125.58 C190.104,125.58 180.742,119.07 177.843,107.289 C174.945,95.508 169.271,92.091 163.932,92.765" fill="#537CB1"/>
    <path d="M163.932,92.765 L211.781,82.726 L212.911,85.32 C212.911,85.32 179.96,106.696 168.45,107.437 C156.939,108.178 155.604,95.267 163.932,92.765" fill="#537CB1"/>
    <path d="M211.781,82.726 C211.781,82.726 213.773,80.012 214.918,80.195 C216.063,80.378 217.576,82.99 216.934,83.998 C216.292,85.005 212.911,85.32 212.911,85.32 L211.781,82.726" fill="#F4F4F1"/>
    <path d="M157.888,91.648 C157.888,91.648 161.445,90.347 161.278,86.235 C161.278,86.235 159.598,87.112 159.111,83.463 C158.889,81.795 160.528,81.461 161.283,83.297 C162.338,83.686 163.762,82.966 163.543,81.032 C163.191,77.901 167.095,78.427 167.236,74.725 C167.418,69.928 157.849,63.62 156.031,67.996 C154.547,71.571 154.984,73.719 150.452,73.764 C142.11,73.845 150.65,93.321 157.888,91.648" fill="#1D3848"/>
    <path d="M130.093,298.231 C133.36,313.09 132.099,332.188 124.874,343.342 C119.173,352.143 109.029,354.861 99.99,361.82 L100.409,366.172 L96.426,361.419 C96.426,361.419 101.438,356.438 115.999,341.403 C119.562,337.724 117.015,323.178 116.087,319.544 C111.561,313.505 116.103,307.195 119.099,298.231 L130.093,298.231" fill="#1D3848"/>
    <path d="M99.99,361.82 L100.409,366.172 L96.426,361.419 L98.111,359.726 C98.111,359.726 97.899,361.535 99.99,361.82" fill="#486FA8"/>
    <path d="M134.27,298.231 C143.816,317.067 143.423,329.143 129.606,373.121 L134.019,375.855 L127.29,375.855 C127.29,375.855 127.577,329.371 124.874,318.775 C120.347,312.738 120.279,307.195 123.275,298.231 L134.27,298.231" fill="#2E4C5A"/>
    <path d="M134.019,375.855 L127.29,375.855 L127.29,373.121 C127.29,373.121 128.737,373.97 129.606,373.121 L134.019,375.855" fill="#486FA8"/>
    <path d="M123.924,254.841 C125.602,259.979 130.332,262.485 132.797,262.022 C135.262,261.559 136.542,257.358 135.657,252.639 C134.771,247.919 132.078,245.241 129.589,244.932 C126.023,244.491 121.594,247.71 123.924,254.841" fill="#F4F4F1"/>
    <path d="M121.475,256.261 L129.606,256.261 L129.606,267.89 L121.475,267.89 z" fill="#F4F4F1"/>
    <path d="M123.481,265.377 C123.502,265.376 114.643,266.442 111.002,265.144 C102.423,262.086 98.701,254.711 98.408,247.113 L96.087,247.113 C96.087,247.113 92.978,269.553 114.209,277.566 L123.481,265.377" fill="#537CB1"/>
    <path d="M98.408,247.113 C99.956,245.406 98.979,244 99.59,242.655 C100.201,241.309 99.454,239.774 97.77,243.443 L97.772,238.301 C97.772,238.301 96.46,239.307 96.087,247.113 L98.408,247.113" fill="#F4F4F1"/>
    <path d="M132.986,267.004 C127.335,264.201 124.975,265.37 115.53,265.773 C106.085,266.175 114.112,288.964 114.112,314.615 C114.112,314.615 122.323,319.382 142.762,314.615 C142.762,314.615 141.96,271.457 132.986,267.004" fill="#537CB1"/>
    <path d="M129.027,258.038 C130.431,260.507 122.37,262.664 120.226,260.181 C118.082,257.699 110.853,255.755 116.164,246.077 C118.476,241.864 119.354,235.686 122.781,235.091 C131.011,233.665 134.967,239.984 134.782,243.708 C134.525,248.85 132.523,251.942 130.45,252.96 C129.043,253.651 126.846,254.201 129.027,258.038" fill="#B94F8E"/>
    <path d="M128.324,265.393 C138.125,265.347 145.379,270.732 152.533,271.407 C160.858,272.193 169.145,266.537 170.813,262.076 L174.555,261.427 C174.555,261.427 168.882,273.407 152.896,278.659 C144.862,281.298 135.037,281.707 129.083,278.965 C123.13,276.224 121.451,265.426 128.324,265.393" fill="#537CB1"/>
    <path d="M170.813,262.076 C169.634,260.323 171.426,258.523 171.674,257.21 C171.922,255.897 172.599,254.926 173.251,254.789 C174.363,254.553 174.03,256.103 173.672,257.586 C173.634,257.744 173.788,257.878 173.936,257.811 C174.797,257.418 177.032,256.498 178.74,256.669 C179.326,256.728 179.687,257.367 177.321,258.549 C175.021,259.7 174.555,261.427 174.555,261.427 L170.813,262.076" fill="#F4F4F1"/>
    <path d="M282.131,361.097 L263.455,361.097 L263.455,360.097 L281.131,360.097 L281.131,336.022 L282.131,336.022 L282.131,361.097" fill="#C7C6C1"/>
    <path d="M281.131,331.469 L282.131,331.469 L282.131,335.272 L281.131,335.272 z" fill="#B1B3B3"/>
    <path d="M281.131,335.272 L282.131,335.272 L282.131,336.022 L281.131,336.022 z" fill="#182C37"/>
    <path d="M169.878,330.469 L281.131,330.469 L281.131,360.097 L169.878,360.097 z" fill="#4E4589"/>
    <path d="M177.352,336.307 L195.304,336.307 L195.304,354.259 L177.352,354.259 z" fill="#645493"/>
    <path d="M177.175,336.484 L195.127,354.436 L195.481,354.083 L177.529,336.13 L177.175,336.484" fill="#4E4589"/>
    <path d="M195.127,336.13 L177.175,354.083 L177.529,354.436 L195.481,336.484 L195.127,336.13" fill="#4E4589"/>
    <path d="M201.555,340.28 L268.603,340.28 L268.603,342.391 L201.555,342.391 z" fill="#618BBB"/>
    <path d="M201.555,348.175 L268.603,348.175 L268.603,350.287 L201.555,350.287 z" fill="#618BBB"/>
    <path d="M201.555,344.227 L261.372,344.227 L261.372,346.339 L201.555,346.339 z" fill="#618BBB"/>
    <path d="M152.203,370.853 L152.203,344.227 L169.878,344.227 L169.878,350.065 L160.03,350.065 L159.853,349.888 L159.5,350.242 L159.676,350.419 L159.676,367.664 L159.5,367.84 L159.853,368.194 L160.03,368.017 L177.274,368.017 L177.451,368.194 L177.805,367.84 L177.628,367.664 L177.628,361.097 L263.455,361.097 L263.455,370.26 C259.011,370.253 254.523,370.25 250,370.25 C214.235,370.25 180.774,370.47 152.203,370.853 M183.878,364.045 L250.927,364.045 L250.927,361.933 L183.878,361.933 z" fill="#C7C6C1"/>
    <path d="M263.455,373.855 L152.203,373.855 L152.203,370.853 C180.774,370.47 214.235,370.25 250,370.25 C254.523,370.25 259.011,370.253 263.455,370.26 L263.455,373.855" fill="#B1B3B3"/>
    <path d="M177.628,360.097 L263.455,360.097 L263.455,361.097 L177.628,361.097 z" fill="#9A9B97"/>
    <path d="M263.455,360.097 L243.696,360.097 L243.696,357.985 L183.878,357.985 L183.878,360.097 L177.628,360.097 L177.628,354.337 L177.706,354.259 L183.878,354.259 L183.878,356.149 L250.927,356.149 L250.927,354.038 L195.436,354.038 L195.304,353.906 L195.304,344.227 L201.555,344.227 L201.555,346.339 L261.372,346.339 L261.372,344.227 L263.455,344.227 L263.455,348.175 L201.555,348.175 L201.555,350.287 L263.455,350.287 L263.455,360.097 M177.274,350.065 L169.878,350.065 L169.878,344.227 L177.352,344.227 L177.352,349.987 L177.274,350.065" fill="#40357E"/>
    <path d="M183.878,354.259 L177.706,354.259 L186.328,345.637 L194.728,354.038 L183.878,354.038 L183.878,354.259 M195.304,353.906 L186.681,345.283 L187.737,344.227 L195.304,344.227 L195.304,353.906 M177.628,353.63 L177.628,350.419 L177.805,350.242 L177.451,349.888 L177.352,349.987 L177.352,344.227 L184.918,344.227 L185.974,345.283 L177.628,353.63 M186.328,344.93 L185.625,344.227 L187.03,344.227 L186.328,344.93" fill="#574388"/>
    <path d="M195.436,354.038 L194.728,354.038 L186.328,345.637 L186.681,345.283 L195.436,354.038 M185.974,345.283 L184.918,344.227 L185.625,344.227 L186.328,344.93 L185.974,345.283" fill="#40357E"/>
    <path d="M177.628,354.337 L177.628,353.63 L185.974,345.283 L186.328,344.93 L187.03,344.227 L187.737,344.227 L186.681,345.283 L186.328,345.637 L177.628,354.337" fill="#40357E"/>
    <path d="M201.555,348.175 L263.455,348.175 L263.455,350.287 L201.555,350.287 z" fill="#486FA8"/>
    <path d="M201.555,344.227 L261.372,344.227 L261.372,346.339 L201.555,346.339 z" fill="#486FA8"/>
    <path d="M177.274,368.017 L160.03,368.017 L168.652,359.395 L177.274,368.017 M177.628,367.664 L171.062,361.097 L177.628,361.097 L177.628,367.664 M170.878,360.914 L170.062,360.097 L170.878,360.097 L170.878,360.914" fill="#C7C6C1"/>
    <path d="M177.628,361.097 L171.062,361.097 L170.878,360.914 L170.878,360.097 L177.628,360.097 L177.628,361.097" fill="#9A9B97"/>
    <path d="M169.878,359.914 L169.006,359.041 L169.878,358.168 L169.878,359.914" fill="#C7C6C1"/>
    <path d="M177.628,360.097 L170.062,360.097 L169.878,359.914 L169.878,358.168 L177.352,350.694 L177.352,353.906 L177.175,354.083 L177.529,354.436 L177.628,354.337 L177.628,360.097" fill="#40357E"/>
    <path d="M177.352,353.906 L177.352,350.694 L177.628,350.419 L177.628,353.63 L177.352,353.906" fill="#574388"/>
    <path d="M177.529,354.436 L177.175,354.083 L177.628,353.63 L177.628,354.337 L177.529,354.436" fill="#40357E"/>
    <path d="M159.676,367.664 L159.676,350.419 L168.299,359.041 L159.676,367.664 M168.652,358.687 L160.03,350.065 L169.878,350.065 L169.878,357.461 L168.652,358.687" fill="#C7C6C1"/>
    <path d="M169.878,357.461 L169.878,350.065 L177.274,350.065 L169.878,357.461" fill="#40357E"/>
    <path d="M177.451,368.194 L168.652,359.395 L169.006,359.041 L169.878,359.914 L169.878,360.097 L170.062,360.097 L170.878,360.914 L170.878,361.097 L171.062,361.097 L177.628,367.664 L177.805,367.84 L177.451,368.194" fill="#C7C6C1"/>
    <path d="M171.062,361.097 L170.878,361.097 L170.878,360.914 L171.062,361.097" fill="#9A9B97"/>
    <path d="M170.062,360.097 L169.878,360.097 L169.878,359.914 L170.062,360.097" fill="#40357E"/>
    <path d="M168.299,359.041 L159.676,350.419 L159.5,350.242 L159.853,349.888 L168.652,358.687 L168.299,359.041" fill="#C7C6C1"/>
    <path d="M159.853,368.194 L159.5,367.84 L168.299,359.041 L168.652,358.687 L169.878,357.461 L169.878,358.168 L169.006,359.041 L159.853,368.194" fill="#C7C6C1"/>
    <path d="M169.878,358.168 L169.878,357.461 L177.352,349.987 L177.352,350.694 L169.878,358.168" fill="#40357E"/>
    <path d="M177.352,350.694 L177.352,349.987 L177.451,349.888 L177.805,350.242 L177.628,350.419 L177.352,350.694" fill="#574388"/>
    <path d="M250.927,356.149 L183.878,356.149 L183.878,354.259 L194.95,354.259 L195.127,354.436 L195.304,354.259 L195.481,354.083 L195.436,354.038 L250.927,354.038 L250.927,356.149" fill="#40357E"/>
    <path d="M195.304,354.259 L195.304,354.259 M194.95,354.259 L183.878,354.259 L183.878,354.038 L194.728,354.038 L194.95,354.259" fill="#574388"/>
    <path d="M195.127,354.436 L194.95,354.259 L194.728,354.038 L195.436,354.038 L195.481,354.083 L195.304,354.259 L195.127,354.436" fill="#40357E"/>
    <path d="M183.878,361.933 L250.927,361.933 L250.927,364.045 L183.878,364.045 z" fill="#C7C6C1"/>
    <path d="M183.878,357.985 L243.696,357.985 L243.696,360.097 L183.878,360.097 z" fill="#40357E"/>
    <path d="M151.203,343.227 L262.455,343.227 L262.455,372.855 L151.203,372.855 z" fill="#486FA8"/>
    <path d="M158.676,349.065 L176.628,349.065 L176.628,367.017 L158.676,367.017 z" fill="#4E4589"/>
    <path d="M158.499,349.242 L176.451,367.194 L176.805,366.84 L158.853,348.888" fill="#486FA8"/>
    <path d="M176.451,348.888 L158.499,366.84 L158.853,367.194 L176.805,349.242" fill="#486FA8"/>
    <path d="M182.878,353.038 L249.927,353.038 L249.927,355.149 L182.878,355.149 z" fill="#618BBB"/>
    <path d="M182.878,360.933 L249.927,360.933 L249.927,363.044 L182.878,363.044 z" fill="#618BBB"/>
    <path d="M182.878,356.985 L242.696,356.985 L242.696,359.097 L182.878,359.097 z" fill="#618BBB"/>
    <path d="M256.552,123.126 C256.552,124.737 255.245,126.044 253.633,126.044 C252.021,126.044 250.714,124.737 250.714,123.126 C250.714,121.514 252.021,120.207 253.633,120.207 C255.245,120.207 256.552,121.514 256.552,123.126" fill="#FFFFFE"/>
    <path d="M256.552,123.126 L256.052,123.126 C256.049,124.461 254.969,125.542 253.633,125.544 C252.297,125.542 251.216,124.461 251.214,123.126 C251.216,121.79 252.297,120.709 253.633,120.707 C254.969,120.709 256.049,121.79 256.052,123.126 L257.052,123.126 C257.051,121.237 255.521,119.707 253.633,119.707 C251.744,119.707 250.214,121.237 250.214,123.126 C250.214,125.014 251.744,126.544 253.633,126.544 C255.521,126.544 257.051,125.014 257.052,123.126 L256.552,123.126" fill="#B8C1C6"/>
    <path d="M248.804,104.007 C248.804,107.17 246.239,109.734 243.076,109.734 C239.912,109.734 237.348,107.17 237.348,104.007 C237.348,100.843 239.912,98.279 243.076,98.279 C246.239,98.279 248.804,100.843 248.804,104.007" fill="#FFFFFE"/>
    <path d="M248.804,104.007 L248.304,104.007 C248.303,105.452 247.719,106.756 246.772,107.703 C245.825,108.65 244.521,109.234 243.076,109.234 C241.63,109.234 240.327,108.65 239.379,107.703 C238.432,106.756 237.848,105.452 237.848,104.007 C237.848,102.562 238.432,101.258 239.379,100.31 C240.327,99.363 241.63,98.779 243.076,98.779 C244.521,98.779 245.825,99.363 246.772,100.31 C247.719,101.258 248.303,102.562 248.304,104.007 L249.304,104.007 C249.303,100.567 246.515,97.779 243.076,97.779 C239.636,97.779 236.848,100.567 236.848,104.007 C236.848,107.446 239.636,110.234 243.076,110.234 C246.515,110.234 249.303,107.446 249.304,104.007 L248.804,104.007" fill="#B8C1C6"/>
    <path d="M275.168,109.014 C275.168,110.825 273.7,112.293 271.889,112.293 C270.078,112.293 268.61,110.825 268.61,109.014 C268.61,107.203 270.078,105.734 271.889,105.734 C273.7,105.734 275.168,107.203 275.168,109.014" fill="#FFFFFE"/>
    <path d="M275.168,109.014 L274.668,109.014 C274.665,110.549 273.424,111.79 271.889,111.793 C270.355,111.79 269.113,110.549 269.11,109.014 C269.113,107.479 270.355,106.237 271.889,106.234 C273.424,106.237 274.665,107.479 274.668,109.014 L275.668,109.014 C275.668,106.926 273.977,105.235 271.889,105.234 C269.802,105.235 268.111,106.926 268.11,109.014 C268.111,111.101 269.802,112.793 271.889,112.793 C273.977,112.793 275.668,111.101 275.668,109.014 L275.168,109.014" fill="#B8C1C6"/>
    <path d="M63.841,89.664 C63.841,92.215 61.773,94.283 59.222,94.283 C56.671,94.283 54.604,92.215 54.604,89.664 C54.604,87.114 56.671,85.046 59.222,85.046 C61.773,85.046 63.841,87.114 63.841,89.664" fill="#FFFFFE"/>
    <path d="M63.841,89.664 L63.341,89.664 C63.341,90.803 62.881,91.83 62.134,92.576 C61.388,93.323 60.361,93.783 59.222,93.783 C58.083,93.783 57.057,93.323 56.31,92.576 C55.564,91.83 55.104,90.803 55.104,89.664 C55.104,88.525 55.564,87.499 56.31,86.752 C57.057,86.006 58.083,85.546 59.222,85.546 C60.361,85.546 61.388,86.006 62.134,86.752 C62.881,87.499 63.341,88.525 63.341,89.664 L64.341,89.664 C64.34,86.837 62.049,84.546 59.222,84.546 C56.395,84.546 54.104,86.838 54.104,89.664 C54.104,92.491 56.395,94.782 59.222,94.783 C62.049,94.782 64.34,92.491 64.341,89.664 L63.841,89.664" fill="#B8C1C6"/>
    <path d="M74.593,75.266 C74.593,77.457 72.816,79.234 70.625,79.234 C68.434,79.234 66.657,77.457 66.657,75.266 C66.657,73.074 68.434,71.298 70.625,71.298 C72.816,71.298 74.593,73.074 74.593,75.266" fill="#FFFFFE"/>
    <path d="M74.593,75.266 L74.093,75.266 C74.09,77.181 72.54,78.73 70.625,78.734 C68.71,78.73 67.161,77.181 67.157,75.266 C67.161,73.351 68.71,71.801 70.625,71.798 C72.54,71.801 74.09,73.351 74.093,75.266 L75.093,75.266 C75.093,72.798 73.093,70.798 70.625,70.798 C68.157,70.798 66.158,72.798 66.157,75.266 C66.158,77.733 68.157,79.734 70.625,79.734 C73.093,79.734 75.093,77.733 75.093,75.266 L74.593,75.266" fill="#B8C1C6"/>
    <path d="M435.396,168.929 C435.396,170.869 433.823,172.442 431.883,172.442 C429.942,172.442 428.369,170.869 428.369,168.929 C428.369,166.989 429.942,165.416 431.883,165.416 C433.823,165.416 435.396,166.989 435.396,168.929" fill="#FFFFFE"/>
    <path d="M435.396,168.929 L434.896,168.929 C434.893,170.593 433.547,171.939 431.883,171.942 C430.219,171.939 428.872,170.593 428.869,168.929 C428.872,167.265 430.219,165.919 431.883,165.916 C433.547,165.919 434.893,167.265 434.896,168.929 L435.896,168.929 C435.896,166.712 434.1,164.916 431.883,164.916 C429.666,164.916 427.869,166.712 427.869,168.929 C427.87,171.146 429.666,172.942 431.883,172.942 C434.1,172.942 435.896,171.146 435.896,168.929 L435.396,168.929" fill="#B8C1C6"/>
    <path d="M449.216,164.8 C449.216,169.021 452.638,172.442 456.857,172.442 C461.078,172.442 464.5,169.021 464.5,164.8 C464.5,160.58 461.078,157.158 456.857,157.158 C452.638,157.158 449.216,160.58 449.216,164.8" fill="#FFFFFE"/>
    <path d="M449.216,164.8 L448.716,164.8 C448.716,169.297 452.361,172.942 456.857,172.942 C461.354,172.942 465,169.297 465,164.8 C465,160.304 461.354,156.659 456.857,156.658 C452.361,156.659 448.716,160.304 448.716,164.8 L449.716,164.8 C449.716,162.827 450.515,161.044 451.808,159.75 C453.102,158.457 454.884,157.659 456.857,157.658 C458.831,157.659 460.614,158.457 461.908,159.75 C463.201,161.044 464,162.827 464,164.8 C464,166.774 463.201,168.557 461.908,169.851 C460.614,171.144 458.831,171.942 456.857,171.942 C454.884,171.942 453.102,171.144 451.808,169.851 C450.515,168.557 449.716,166.774 449.716,164.8 L449.216,164.8" fill="#B8C1C6"/>
  </g>
</svg>
